<svg width="140" height="141" viewBox="0 0 140 141" fill="none" xmlns="http://www.w3.org/2000/svg">
<path d="M21.5611 124.855C21.8035 123.894 21.1684 122.934 20.4591 122.241C19.7498 121.549 18.9025 120.929 18.5303 120.011C17.9271 118.522 18.7157 116.586 17.6936 115.347C17.0924 114.618 16.0206 114.379 15.4864 113.6C15.2063 113.191 15.1133 112.688 15.0016 112.205C14.4305 109.742 13.1833 107.44 11.4329 105.617C11.3243 107.814 11.8211 110.037 12.8546 111.978C13.2699 112.758 13.779 113.518 13.92 114.391C14.1493 115.808 13.366 117.273 13.7223 118.664C14.1297 120.254 15.9248 121.31 16.0189 122.948C16.0985 124.334 14.8974 125.558 14.9954 126.942C15.037 127.531 15.3141 128.077 15.6215 128.582C16.7034 130.357 18.2845 131.576 20.6705 131.522L23.5938 131.608L21.5611 124.855Z" fill="#F5F5F5"/>
<path d="M24.1852 131.684C24.1852 131.684 24.4642 131.747 24.9897 131.662C25.2514 131.622 25.5734 131.551 25.9381 131.418C26.3006 131.283 26.713 131.091 27.1074 130.769C27.2964 130.601 27.4855 130.395 27.5863 130.123C27.6854 129.852 27.7022 129.554 27.7189 129.249C27.7329 128.943 27.7312 128.625 27.7818 128.303C27.8292 127.981 27.9538 127.664 28.1336 127.361C28.4749 126.754 29.0437 126.178 29.2238 125.355C29.4193 124.545 29.2708 123.671 29.13 122.793C28.9893 121.918 28.8524 120.962 29.1825 120.047C29.4908 119.132 30.127 118.303 30.4417 117.27C30.7547 116.228 30.5998 115.109 30.6609 114.005C30.6886 113.45 30.7924 112.895 31.0326 112.38C31.2661 111.861 31.5914 111.372 31.8444 110.825C32.3568 109.721 32.4415 108.473 32.5763 107.249C32.642 106.633 32.7084 106.01 32.7754 105.38C32.8416 104.748 32.8939 104.119 33.0896 103.509C33.2664 102.896 33.5236 102.302 33.7785 101.697C33.9034 101.392 34.0355 101.088 34.1123 100.75C34.1675 100.405 34.1821 100.083 34.2008 99.7445C34.2298 99.0743 34.1983 98.3951 34.1114 97.7218C34.0282 97.0477 33.9025 96.3797 33.8263 95.7042C33.8215 95.6642 33.8168 95.6243 33.8126 95.5877L33.7967 95.4531L33.6775 95.5137C33.0533 95.8307 32.5202 96.3007 32.1117 96.8505C31.6961 97.3968 31.3948 98.0122 31.1552 98.6375C30.674 99.8961 30.5059 101.213 30.2669 102.47C30.0337 103.727 29.724 104.964 29.0862 106.012C28.7689 106.534 28.3841 107.011 28.0479 107.521C27.7125 108.027 27.4179 108.582 27.3322 109.191C27.1663 110.428 27.8535 111.51 27.7181 112.606C27.6706 113.15 27.457 113.66 27.1936 114.126C26.9309 114.594 26.6214 115.029 26.3279 115.466C26.0347 115.903 25.7557 116.346 25.551 116.819C25.3427 117.29 25.2296 117.794 25.2003 118.286C25.1347 119.272 25.2799 120.206 25.2126 121.089C25.1581 121.974 24.8523 122.777 24.5049 123.495C24.1556 124.216 23.766 124.869 23.4401 125.501C23.2762 125.817 23.1251 126.126 23.0023 126.435C22.8721 126.744 22.8093 127.06 22.7509 127.361C22.6585 127.967 22.6711 128.531 22.7389 129.029C22.8718 130.029 23.2491 130.748 23.5873 131.151C23.6649 131.259 23.7546 131.335 23.8252 131.406C23.8942 131.48 23.9624 131.529 24.0179 131.568C24.1266 131.647 24.1852 131.684 24.1852 131.684C24.198 131.669 23.9439 131.536 23.6161 131.127C23.2921 130.722 22.9308 130.008 22.8107 129.019C22.7493 128.528 22.7426 127.97 22.8386 127.375C22.8987 127.08 22.9629 126.771 23.0919 126.471C23.2145 126.169 23.3673 125.862 23.5326 125.55C23.861 124.923 24.2547 124.273 24.6119 123.547C24.9663 122.825 25.2841 122.006 25.3444 121.099C25.4162 120.197 25.2751 119.259 25.3441 118.296C25.3748 117.815 25.4854 117.335 25.6884 116.878C25.8884 116.421 26.1635 115.986 26.4567 115.552C26.7499 115.118 27.063 114.682 27.3333 114.204C27.6036 113.729 27.8298 113.198 27.882 112.622C28.0163 111.455 27.3341 110.365 27.5031 109.215C27.5843 108.646 27.8639 108.115 28.1948 107.618C28.5257 107.118 28.9125 106.64 29.2392 106.104C29.8971 105.027 30.2119 103.766 30.4476 102.504C30.6888 101.239 30.8575 99.9358 31.33 98.7034C31.5651 98.0907 31.86 97.4909 32.2616 96.9633C32.6568 96.4319 33.167 95.9843 33.7615 95.6818L33.6263 95.6081C33.6308 95.6453 33.6356 95.6855 33.6403 95.726C33.7177 96.4093 33.8436 97.0787 33.9257 97.745C34.0117 98.4107 34.0427 99.0765 34.0145 99.7367C33.9972 100.063 33.9793 100.405 33.9302 100.712C33.8606 101.02 33.7311 101.324 33.6074 101.625C33.3541 102.228 33.0932 102.831 32.9131 103.458C32.7135 104.082 32.659 104.735 32.5948 105.36C32.5286 105.99 32.463 106.613 32.3979 107.23C32.2652 108.459 32.1806 109.687 31.6872 110.753C31.4434 111.284 31.1186 111.775 30.8782 112.311C30.6299 112.845 30.5218 113.431 30.4959 113.996C30.4386 115.124 30.5917 116.225 30.2923 117.226C29.9949 118.222 29.3621 119.056 29.0454 120C28.7061 120.955 28.8544 121.942 28.9988 122.815C29.1448 123.694 29.2917 124.549 29.1077 125.328C28.9432 126.114 28.3908 126.684 28.0426 127.309C27.8613 127.619 27.732 127.955 27.6857 128.289C27.6363 128.622 27.641 128.943 27.6296 129.246C27.6162 129.547 27.6005 129.842 27.5098 130.096C27.4196 130.349 27.2417 130.549 27.0599 130.714C26.6801 131.032 26.2752 131.227 25.9186 131.366C25.56 131.503 25.2422 131.58 24.9836 131.625C24.725 131.674 24.5239 131.682 24.3893 131.686C24.255 131.682 24.1852 131.684 24.1852 131.684Z" fill="#E0E0E0"/>
<path d="M33.2245 97.2031C33.2215 97.2026 33.212 97.2325 33.1969 97.2917C33.1801 97.3618 33.1595 97.4483 33.1338 97.5553C33.0776 97.7857 33.0109 98.1336 32.9031 98.5684C32.7909 99.0018 32.5283 99.4933 32.3052 100.098C32.0729 100.699 31.8377 101.394 31.6222 102.176C31.4038 102.956 31.2111 103.823 31.0097 104.751C30.802 105.678 30.595 106.672 30.0904 107.611C29.8536 108.087 29.5866 108.569 29.3752 109.096C29.1585 109.623 29.0435 110.198 28.9639 110.775C28.8301 111.934 28.6243 113.111 28.354 114.315C27.7815 116.713 27.2364 118.998 26.7399 121.077C26.2311 123.15 25.7725 125.019 25.386 126.593C25.0102 128.154 24.7047 129.421 24.4891 130.316C24.3899 130.745 24.3115 131.084 24.2545 131.33C24.2316 131.437 24.2132 131.524 24.1981 131.595C24.1864 131.655 24.1819 131.686 24.185 131.687C24.188 131.688 24.1986 131.658 24.2165 131.6C24.2363 131.53 24.2609 131.445 24.2911 131.339C24.3564 131.095 24.4463 130.759 24.56 130.333C24.7893 129.443 25.1146 128.18 25.5148 126.625C25.9125 125.054 26.3841 123.189 26.9074 121.119C27.4087 119.039 27.9591 116.754 28.5372 114.355C28.8078 113.152 29.0156 111.954 29.146 110.8C29.2239 110.227 29.3339 109.673 29.5417 109.162C29.7453 108.648 30.008 108.168 30.2451 107.687C30.7539 106.731 30.9623 105.707 31.1617 104.784C31.3563 103.853 31.5409 102.989 31.7501 102.21C31.9564 101.43 32.1812 100.736 32.403 100.135C32.6146 99.5319 32.8682 99.0345 32.9735 98.5866C33.0721 98.1412 33.126 97.7968 33.1704 97.5623C33.1885 97.4539 33.2033 97.3662 33.215 97.295C33.2248 97.235 33.2279 97.2037 33.2245 97.2031Z" fill="#E0E0E0"/>
<path d="M24.7013 131.692C26.6039 130.547 27.1323 127.099 26.3241 125.03C25.5159 122.962 24.1113 121.076 23.8839 118.866C23.7091 117.168 24.2556 115.421 23.8504 113.763C23.3036 111.524 21.1056 109.801 21.1179 107.497C21.1246 106.204 21.8532 104.984 21.7873 103.693C21.7066 102.109 20.4834 100.859 19.7224 99.4683C18.5577 97.339 18.4675 94.8142 18.0597 92.4218C17.652 90.0294 16.7249 87.4698 14.5955 86.3047C14.2937 88.3396 13.7664 89.7351 13.9502 92.4886C14.0161 93.4774 15.1761 95.3646 15.3448 97.5317C15.4456 98.8269 15.5177 100.124 15.6042 101.42C15.6883 102.682 15.7774 103.966 16.2365 105.144C16.5881 106.047 17.1496 106.866 17.4124 107.798C17.9067 109.552 17.2812 111.459 17.6822 113.237C18.022 114.743 19.0732 116.036 19.2952 117.564C19.6071 119.711 18.229 121.951 18.9525 123.997C19.3117 125.012 20.1528 125.824 20.3963 126.873C20.5851 127.687 20.3893 128.55 20.5608 129.368C20.837 130.685 23.3584 131.695 24.7013 131.606" fill="#E0E0E0"/>
<path d="M15.1338 88.3203C15.1304 88.3209 15.1338 88.3597 15.1427 88.4351C15.1542 88.5205 15.169 88.6306 15.1877 88.7691C15.2332 89.0626 15.2849 89.4935 15.3871 90.0503C15.4971 90.6105 15.7892 91.24 16.0246 91.9995C16.2726 92.7569 16.5197 93.631 16.7395 94.6098C16.9629 95.588 17.1514 96.671 17.3494 97.8366C17.5538 98.9935 17.7633 100.272 18.3489 101.484C18.62 102.092 18.9241 102.702 19.1531 103.351C19.388 103.998 19.4983 104.695 19.5676 105.411C19.6742 106.851 19.8747 108.348 20.1526 109.855C20.7544 112.865 21.3277 115.731 21.8494 118.339C22.3984 120.938 22.8932 123.279 23.3096 125.25C23.7299 127.206 24.0709 128.793 24.3099 129.905C24.43 130.444 24.5241 130.867 24.5911 131.169C24.6232 131.305 24.6489 131.413 24.669 131.496C24.6875 131.57 24.6986 131.607 24.7017 131.606C24.7048 131.606 24.7 131.567 24.6877 131.492C24.6724 131.408 24.6528 131.298 24.6283 131.161C24.5696 130.858 24.4867 130.432 24.3814 129.89C24.1566 128.775 23.8355 127.184 23.4395 125.222C23.0343 123.249 22.5528 120.906 22.0186 118.304C21.5017 115.696 20.9337 112.83 20.3375 109.822C20.0596 108.313 19.8605 106.838 19.7505 105.393C19.6795 104.672 19.5648 103.954 19.3221 103.291C19.0858 102.628 18.7778 102.016 18.5067 101.412C17.9244 100.219 17.7152 98.9704 17.5027 97.8092C17.2983 96.6455 17.1017 95.5595 16.8691 94.5793C16.6401 93.5986 16.3826 92.7228 16.1243 91.9657C15.8774 91.2034 15.5761 90.5795 15.4586 90.0336C15.3469 89.4868 15.2823 89.0517 15.2251 88.7621C15.1988 88.625 15.1779 88.5158 15.1617 88.4312C15.1463 88.3577 15.1369 88.32 15.1338 88.3203Z" fill="#EBEBEB"/>
<path d="M58.7686 15.8449C60.3992 13.9429 64.6383 15.1387 67.5435 16.6947C67.5435 16.6947 69.5424 17.6372 70.2863 18.1262C70.2944 18.1281 70.3023 18.1298 70.3103 18.132L77.103 17.2837C77.6545 17.2147 78.2142 17.313 78.7093 17.5657L79.2659 17.8494C79.5471 17.993 79.5331 18.3993 79.243 18.5233L74.2426 20.661C74.2403 20.6886 74.2401 20.6948 74.2378 20.7224C76.8966 22.4695 79.174 23.9657 79.174 23.9657C79.1983 23.9822 79.2231 23.9984 79.248 24.0143C80.1776 24.6083 81.2997 24.8339 82.3919 24.6387L85.0356 24.166C85.1697 24.1419 85.3098 24.1478 85.4358 24.1995C85.9055 24.3924 85.9963 25.0096 85.6126 25.3307L82.5502 27.8913C82.0705 28.2923 81.4027 28.3814 80.8347 28.1197L79.4007 27.4595L72.1448 24.0046L72.9775 28.1359C73.0083 28.306 72.8739 28.4612 72.7011 28.4548L72.359 28.4422C71.8907 28.4249 71.4642 28.1674 71.2311 27.7611L68.3067 22.1771L59.7469 18.1013C58.6061 17.5763 58.1987 16.5978 58.7686 15.8449Z" fill="#E0E0E0"/>
<path d="M11.2037 34.1323L32.7417 33.6459C32.7417 33.6459 30.7587 30.223 25.2263 30.8527C19.9425 31.454 19.6239 29.2732 16.9257 29.0649C14.2275 28.8566 12.0303 30.9708 11.2037 34.1323Z" fill="#F5F5F5"/>
<path d="M111.902 45.7813H132.192C132.192 45.7813 130.398 42.5162 125.175 42.9915C120.187 43.4453 119.934 41.3852 117.397 41.1316C114.861 40.8775 112.747 42.8223 111.902 45.7813Z" fill="#F5F5F5"/>
<path d="M23.4691 23.4429H38.9473C38.9473 23.4429 37.5786 20.9522 33.5944 21.3147C29.7896 21.661 29.596 20.0893 27.6613 19.8958C25.7264 19.7025 24.1142 21.1857 23.4691 23.4429Z" fill="#F5F5F5"/>
<path d="M111.922 56.0072H122.047C122.047 56.0072 121.152 54.3777 118.545 54.6151C116.056 54.8416 115.93 53.8136 114.664 53.6868C113.398 53.5603 112.344 54.5308 111.922 56.0072Z" fill="#F5F5F5"/>
<path d="M106.859 27.9918H116.984C116.984 27.9918 116.089 26.3623 113.482 26.5994C110.993 26.8259 110.867 25.798 109.601 25.6712C108.336 25.5449 107.281 26.5154 106.859 27.9918Z" fill="#FAFAFA"/>
<path d="M132.527 131.709C132.527 131.75 104.339 131.782 69.576 131.782C34.8003 131.782 6.61847 131.749 6.61847 131.709C6.61847 131.669 34.8003 131.637 69.576 131.637C104.339 131.637 132.527 131.669 132.527 131.709Z" fill="#263238"/>
<path d="M113.234 82.4512C113.192 82.048 112.852 81.7419 112.446 81.7422L106.483 81.7483C105.987 81.7489 105.615 82.2024 105.711 82.6894C105.785 83.0656 106.12 83.3337 106.503 83.3245L112.447 83.3247C112.916 83.325 113.283 82.9184 113.234 82.4512Z" fill="#263238"/>
<path d="M126.239 129.747C126.087 130.787 126.806 131.753 127.845 131.905C128.885 132.057 129.851 131.338 130.003 130.299C130.155 129.26 129.436 128.294 128.397 128.141C127.357 127.989 126.392 128.708 126.239 129.747Z" fill="#263238"/>
<path d="M127.727 130.033L126.566 127.637L127.174 127.25L128.299 129.751L127.727 130.033Z" fill="#455A64"/>
<path d="M116.984 100.537L109.782 81.7461L108.415 82.4325L115.395 101.051L116.984 100.537Z" fill="#263238"/>
<path d="M122.987 129.574L133.618 125.351C134.014 125.193 134.208 124.745 134.05 124.349L123.469 97.7135C122.636 95.6177 120.262 94.5936 118.166 95.4264L113.691 97.2044C111.595 98.0372 110.571 100.411 111.404 102.507L121.985 129.143C122.143 129.538 122.591 129.732 122.987 129.574Z" fill="#055BC9"/>
<path d="M121.962 129.274C121.962 129.274 121.946 129.218 121.907 129.111C121.865 128.998 121.806 128.841 121.73 128.638C121.569 128.218 121.336 127.609 121.037 126.827C120.426 125.251 119.546 122.981 118.459 120.178C117.364 117.371 116.061 114.032 114.615 110.324C113.89 108.47 113.129 106.524 112.34 104.507C112.143 104.003 111.943 103.494 111.743 102.981C111.53 102.482 111.461 101.932 111.52 101.39C111.649 100.304 112.405 99.3018 113.456 98.8957C114.502 98.4785 115.739 98.6983 116.572 99.4073C116.984 99.7645 117.307 100.215 117.491 100.726C117.692 101.239 117.892 101.748 118.09 102.252C118.882 104.268 119.646 106.213 120.374 108.066C121.833 111.769 123.147 115.104 124.251 117.908C125.359 120.702 126.256 122.966 126.879 124.538C127.19 125.314 127.433 125.919 127.601 126.337C127.683 126.538 127.747 126.692 127.793 126.804C127.837 126.908 127.863 126.961 127.863 126.961C127.863 126.961 127.847 126.904 127.809 126.798C127.767 126.685 127.708 126.528 127.632 126.325C127.471 125.904 127.238 125.295 126.939 124.514C126.328 122.938 125.448 120.668 124.361 117.865C123.266 115.058 121.963 111.718 120.517 108.01C119.792 106.156 119.03 104.21 118.241 102.192C118.044 101.688 117.845 101.179 117.644 100.666C117.455 100.137 117.112 99.6553 116.679 99.2808C115.802 98.5335 114.498 98.3015 113.396 98.7413C112.289 99.1688 111.491 100.226 111.356 101.369C111.293 101.938 111.37 102.524 111.591 103.04C111.792 103.553 111.992 104.062 112.19 104.566C112.981 106.582 113.746 108.526 114.474 110.379C115.932 114.082 117.246 117.417 118.35 120.22C119.458 123.015 120.355 125.278 120.978 126.85C121.29 127.627 121.533 128.232 121.7 128.65C121.783 128.85 121.846 129.006 121.892 129.116C121.935 129.222 121.962 129.274 121.962 129.274Z" fill="#263238"/>
<path d="M121.274 110.346C121.297 110.417 122.688 109.869 124.382 109.122C126.077 108.374 127.432 107.71 127.409 107.639C127.387 107.568 125.996 108.116 124.301 108.863C122.607 109.611 121.252 110.274 121.274 110.346Z" fill="#263238"/>
<path d="M111.865 81.7416L110.62 79.2836C110.482 79.0082 110.25 78.7915 109.965 78.6734L108.007 77.8599L102.741 70.7148L102.249 76.1847L105.609 79.6464C105.609 79.6464 107.71 84.0748 109.428 83.8497C109.428 83.8497 109.37 83.1996 109.083 82.7062C108.524 81.7416 109.12 81.7416 109.197 81.7458L110.623 81.7486L111.865 81.7416Z" fill="#FFBE9D"/>
<path d="M103.264 77.9635C103.424 78.2017 104.727 79.9649 104.727 79.9649L108.415 77.2818L107.075 75.9727L103.264 77.9635Z" fill="#055BC9"/>
<path d="M109.083 82.707C109.083 82.707 110.042 83.2521 110.162 83.7185V83.9936L109.012 83.8266L109.083 82.707Z" fill="#FFBE9D"/>
<path d="M110.37 83.2374C110.212 83.0908 110.048 82.9344 109.984 82.7289C109.919 82.5233 109.997 82.2564 110.201 82.1885C110.401 82.1223 110.605 82.2656 110.761 82.4063C110.959 82.5845 111.146 82.773 111.324 82.9713C111.47 83.1355 111.618 83.3427 111.566 83.556C111.523 83.7278 111.35 83.8476 111.173 83.8585C110.997 83.8694 110.824 83.7862 110.695 83.6647C110.566 83.5432 110.477 83.3868 110.4 83.2271" fill="#FFBE9D"/>
<path d="M111.345 83.1476C111.187 83.001 111.023 82.8446 110.959 82.6391C110.894 82.4335 110.972 82.1666 111.176 82.0987C111.376 82.0325 111.58 82.1755 111.736 82.3165C111.934 82.4944 112.121 82.6832 112.299 82.8815C112.445 83.0454 112.593 83.2529 112.541 83.4662C112.498 83.638 112.324 83.7578 112.148 83.7687C111.971 83.7795 111.799 83.6963 111.67 83.5749C111.541 83.4534 111.452 83.297 111.375 83.1373" fill="#FFBE9D"/>
<path d="M108.415 78.9547C108.412 78.9215 108.663 78.9346 108.95 79.1831C109.086 79.3239 109.174 79.5166 109.284 79.726C109.386 79.938 109.494 80.1968 109.474 80.492C109.452 80.7914 109.289 81.0223 109.172 81.2186C109.049 81.4091 108.985 81.6057 108.942 81.7724C108.855 82.1103 108.922 82.3231 108.902 82.329C108.886 82.3413 108.775 82.117 108.842 81.752C108.873 81.5739 108.932 81.3594 109.057 81.1505C109.171 80.9469 109.312 80.7305 109.329 80.4814C109.347 80.2312 109.256 79.9913 109.163 79.7833C109.063 79.5766 108.979 79.3764 108.875 79.2535C108.763 79.1365 108.634 79.0608 108.553 79.015C108.468 78.9681 108.417 78.965 108.415 78.9547Z" fill="#EB996E"/>
<path d="M68.6723 53.7539L64.759 66.2677L76.274 78.2979L86.8277 75.5547L68.6723 53.7539Z" fill="#F5F5F5"/>
<path d="M68.6723 53.75C68.6723 53.75 68.7019 53.7824 68.7614 53.8519C68.8242 53.9262 68.9122 54.0298 69.0264 54.165C69.2637 54.4473 69.6086 54.8578 70.0532 55.3867C70.9533 56.4605 72.256 58.0145 73.8807 59.9523C77.1441 63.8558 81.6994 69.3049 86.8824 75.5047L86.9547 75.5913L86.8453 75.6198C84.929 76.1183 82.9337 76.6371 80.8959 77.1672C79.3304 77.5738 77.79 77.9739 76.2918 78.3632L76.2508 78.3738L76.2215 78.3434C71.881 73.8004 67.9286 69.6641 64.7174 66.3029L64.694 66.2786L64.704 66.2468C65.918 62.4131 66.9096 59.2821 67.5994 57.1042C67.942 56.0282 68.2093 55.1876 68.393 54.6112C68.4829 54.3309 68.5519 54.1155 68.6002 53.965C68.6474 53.8201 68.6723 53.75 68.6723 53.75C68.538 54.1865 67.159 58.6644 64.8132 66.2809L64.8001 66.2247C68.0174 69.5797 71.9773 73.7091 76.3262 78.2443L76.2561 78.2244C77.754 77.8349 79.2944 77.4344 80.8596 77.0273C82.8977 76.4981 84.8932 75.9798 86.8095 75.4821L86.7727 75.5972C81.6301 69.3979 77.1103 63.9493 73.8723 60.0464C72.254 58.0902 70.9563 56.5216 70.0599 55.4378C69.6145 54.898 69.269 54.4794 69.0311 54.1912C68.9158 54.0508 68.8273 53.9427 68.7642 53.8653C68.7036 53.791 68.6723 53.75 68.6723 53.75Z" fill="#263238"/>
<path d="M69.0304 62.0108C69.5783 61.0655 71.0064 60.7843 71.8718 61.4512C72.5923 62.0064 72.923 63.0628 73.7889 63.3412C74.4156 63.5425 75.1037 63.2488 75.7516 63.3649C76.5098 63.5009 77.0727 64.1893 77.292 64.9277C77.5112 65.666 77.452 66.4546 77.3905 67.2226L73.644 67.2745L69.0304 62.0108Z" fill="#E0E0E0"/>
<path d="M62.1069 54.8945L86.3722 79.9012L76.484 78.8993L62.6515 64.2957L62.1069 54.8945Z" fill="#F5F5F5"/>
<path d="M62.1069 54.8945C62.1298 55.2601 62.3329 58.4771 62.6998 64.2927L62.6867 64.2622C66.2235 67.9875 71.058 73.0801 76.5356 78.8498L76.4912 78.828C78.9358 79.0752 81.4749 79.3321 84.0767 79.5952C84.8656 79.675 85.6486 79.7546 86.3795 79.8286L86.32 79.9515C72.8254 65.9867 62.6423 55.4486 62.1069 54.8945C62.6442 55.4458 72.8715 65.9417 86.4244 79.8504L86.5635 79.9934L86.3649 79.9733C85.6341 79.8993 84.8508 79.82 84.0619 79.7401C81.4603 79.4759 78.9213 79.2182 76.4767 78.9699L76.4504 78.9671L76.4323 78.9478C70.9678 73.1655 66.145 68.0621 62.6166 64.3287L62.6043 64.3159L62.6035 64.2983C62.2963 58.4794 62.1262 55.2601 62.1069 54.8945Z" fill="#263238"/>
<path d="M71.6034 64.832C70.8536 65.6941 70.9631 67.0722 71.6043 68.0181C72.2455 68.9639 73.2994 69.5465 74.3659 69.9561C75.2285 70.2873 76.2916 70.4982 77.0054 69.9117" fill="#E0E0E0"/>
<path d="M70.3407 63.4774C70.3862 63.6866 70.124 63.8416 69.9112 63.8212C69.6981 63.8008 69.5021 63.6838 69.2884 63.6718C68.7048 63.6391 68.3876 64.3308 67.9106 64.669C67.3537 65.0639 66.4808 64.8944 66.1122 64.3199C65.7944 63.8248 65.8022 63.0946 65.2998 62.7879C65.0217 62.6182 64.6692 62.6416 64.3489 62.7019C64.0289 62.7622 63.7044 62.8544 63.3827 62.8036C63.061 62.753 62.7393 62.5034 62.7407 62.1775L62.567 61.9052L62.1517 55.0039L70.3407 63.4774Z" fill="#E0E0E0"/>
<path d="M82.1674 79.3941C82.7158 79.4885 83.2392 79.2095 83.3227 78.6594C83.4062 78.1092 82.9741 77.534 82.4223 77.4611C81.928 77.3957 81.4164 77.6828 80.9406 77.5345C80.4002 77.3661 80.176 76.737 80.0386 76.1877C79.9012 75.6386 79.7107 75.0081 79.1857 74.7964C78.315 74.4451 77.399 75.5582 76.4931 75.3125C75.821 75.1304 75.5601 74.3225 75.0334 73.8667C74.6109 73.5012 73.991 73.3792 73.4615 73.5576C72.932 73.736 72.6207 74.0354 72.5056 74.5822L76.5116 78.8074L82.1674 79.3941Z" fill="#E0E0E0"/>
<path d="M75.5335 121.656L74.5365 127.404C74.5365 127.404 68.3593 128.321 68.0714 129.365L79.1468 131.699L81.0678 122.807L75.5335 121.656Z" fill="#055BC9"/>
<g opacity="0.6">
<path d="M78.0621 127.649C78.264 127.752 78.3615 128.024 78.2659 128.231C78.1704 128.437 77.8945 128.538 77.6907 128.438C77.4868 128.337 77.36 128.014 77.4779 127.82C77.5957 127.626 77.9264 127.525 78.1001 127.671" fill="white"/>
</g>
<path opacity="0.6" d="M79.1468 131.697L79.3383 130.811L68.6271 128.895C68.6271 128.895 68.0887 129.005 68.0714 129.364L79.1468 131.697Z" fill="white"/>
<path d="M74.3687 127.311C74.3592 127.366 74.6242 127.447 74.8537 127.677C75.0891 127.901 75.1771 128.164 75.2313 128.153C75.2832 128.153 75.2709 127.813 74.988 127.539C74.708 127.263 74.3675 127.259 74.3687 127.311Z" fill="#263238"/>
<path d="M73.1058 127.549C73.0823 127.598 73.2973 127.74 73.4328 128.007C73.576 128.271 73.5705 128.528 73.6246 128.537C73.6738 128.556 73.7779 128.247 73.6031 127.918C73.4311 127.587 73.1178 127.497 73.1058 127.549Z" fill="#263238"/>
<path d="M72.1531 128.797C72.1997 128.819 72.332 128.565 72.2555 128.239C72.1812 127.913 71.9509 127.743 71.9185 127.783C71.8785 127.821 72.0092 128.015 72.0679 128.283C72.1332 128.549 72.1006 128.781 72.1531 128.797Z" fill="#263238"/>
<path d="M74.7411 126.028C74.7534 126.082 75.0173 126.06 75.3186 126.145C75.6216 126.224 75.8378 126.377 75.8757 126.337C75.9154 126.304 75.7252 126.055 75.3689 125.96C75.0137 125.862 74.7235 125.98 74.7411 126.028Z" fill="#263238"/>
<path opacity="0.3" d="M75.3371 122.797L75.1581 123.821L80.612 124.918L80.8119 124.004L75.3371 122.797Z" fill="black"/>
<path d="M74.9637 124.874C74.9584 124.896 75.1651 124.974 75.5192 124.988C75.6954 124.994 75.9073 124.981 76.1372 124.932C76.2519 124.907 76.3709 124.874 76.4913 124.83C76.5493 124.808 76.6166 124.787 76.6862 124.735C76.758 124.691 76.8222 124.554 76.7716 124.452C76.7328 124.355 76.6404 124.297 76.5608 124.278C76.4798 124.258 76.41 124.261 76.3466 124.263C76.217 124.267 76.0928 124.284 75.9769 124.309C75.7451 124.361 75.5474 124.446 75.3946 124.537C75.0874 124.721 74.9573 124.904 74.9735 124.919C74.9942 124.942 75.155 124.799 75.4577 124.657C75.6085 124.587 75.7965 124.521 76.0112 124.483C76.1187 124.464 76.2324 124.453 76.3505 124.452C76.4742 124.446 76.5742 124.466 76.5935 124.524C76.6002 124.547 76.5999 124.555 76.5681 124.584C76.536 124.61 76.4821 124.631 76.4248 124.653C76.3134 124.696 76.2031 124.731 76.0964 124.759C75.883 124.814 75.6845 124.84 75.5169 124.851C75.181 124.873 74.969 124.844 74.9637 124.874Z" fill="#263238"/>
<path d="M75.0179 124.965C75.0352 124.977 75.1835 124.806 75.277 124.46C75.3228 124.288 75.3491 124.074 75.3293 123.837C75.3186 123.719 75.2963 123.595 75.2589 123.47C75.217 123.347 75.1687 123.184 74.964 123.116C74.8554 123.089 74.7462 123.155 74.6998 123.221C74.6473 123.288 74.6266 123.351 74.6001 123.413C74.5524 123.538 74.5281 123.665 74.5211 123.786C74.5063 124.029 74.5616 124.246 74.6373 124.409C74.7934 124.741 75.0053 124.854 75.0137 124.836C75.0374 124.813 74.871 124.669 74.7635 124.358C74.7104 124.205 74.6755 124.011 74.6979 123.8C74.7087 123.695 74.733 123.587 74.7755 123.482C74.8177 123.368 74.8819 123.282 74.9232 123.303C74.9785 123.314 75.0534 123.422 75.079 123.526C75.1151 123.637 75.1388 123.748 75.153 123.855C75.1804 124.07 75.1701 124.268 75.1438 124.431C75.0905 124.76 74.9902 124.951 75.0179 124.965Z" fill="#263238"/>
<path d="M111.926 122.012L109.531 118.885L109.406 118.723L105.326 121.757L109.105 125.908L108.967 130.109C106.862 130.653 106.546 131.705 106.546 131.705L110.921 131.7L114.893 124.047L111.926 122.012Z" fill="#055BC9"/>
<path opacity="0.6" d="M114.893 124.046L110.92 131.699L106.546 131.704L107.038 131.046L110.595 130.847L114.262 123.613L114.893 124.046Z" fill="white"/>
<path d="M108.993 128.188C109.025 128.233 109.278 128.089 109.616 128.099C109.954 128.099 110.203 128.249 110.236 128.205C110.277 128.172 110.03 127.91 109.618 127.906C109.207 127.899 108.953 128.154 108.993 128.188Z" fill="#263238"/>
<path d="M109.063 127.145C109.107 127.176 109.301 126.918 109.65 126.849C109.998 126.777 110.278 126.94 110.306 126.895C110.321 126.875 110.271 126.802 110.148 126.735C110.027 126.668 109.828 126.617 109.612 126.661C109.397 126.704 109.233 126.828 109.147 126.936C109.06 127.045 109.042 127.132 109.063 127.145Z" fill="#263238"/>
<path d="M109.034 125.801C109.082 125.825 109.231 125.573 109.535 125.467C109.839 125.358 110.113 125.461 110.136 125.412C110.147 125.39 110.092 125.329 109.971 125.284C109.852 125.238 109.663 125.218 109.471 125.286C109.279 125.354 109.145 125.488 109.081 125.598C109.016 125.709 109.011 125.792 109.034 125.801Z" fill="#263238"/>
<path d="M107.862 124.764C107.914 124.783 108.037 124.534 108.308 124.358C108.575 124.174 108.852 124.156 108.855 124.101C108.869 124.05 108.53 123.976 108.201 124.198C107.87 124.417 107.81 124.759 107.862 124.764Z" fill="#263238"/>
<path d="M107.291 123.872C107.313 123.887 107.457 123.711 107.672 123.414C107.794 123.241 107.917 123.067 108.042 122.888C108.105 122.786 108.193 122.696 108.245 122.535C108.267 122.453 108.266 122.356 108.218 122.269C108.173 122.176 108.05 122.117 107.954 122.131C107.763 122.159 107.656 122.257 107.545 122.343C107.438 122.435 107.35 122.54 107.28 122.647C107.139 122.863 107.073 123.089 107.051 123.278C107.008 123.665 107.135 123.885 107.15 123.876C107.184 123.868 107.112 123.645 107.185 123.3C107.222 123.13 107.294 122.932 107.426 122.747C107.493 122.654 107.572 122.566 107.666 122.487C107.758 122.413 107.878 122.331 107.968 122.323C108.011 122.321 108.032 122.332 108.051 122.362C108.069 122.394 108.074 122.442 108.062 122.486C108.039 122.58 107.954 122.688 107.894 122.791C107.78 122.977 107.669 123.159 107.558 123.34C107.373 123.655 107.269 123.858 107.291 123.872Z" fill="#263238"/>
<path d="M107.135 124C107.155 123.999 107.139 123.769 106.902 123.506C106.671 123.258 106.165 122.992 105.605 123.273C105.565 123.307 105.533 123.369 105.537 123.429C105.539 123.49 105.565 123.535 105.59 123.568C105.642 123.636 105.699 123.669 105.747 123.705C105.848 123.777 105.953 123.835 106.056 123.882C106.262 123.976 106.463 124.024 106.631 124.042C106.972 124.079 107.176 124.013 107.172 123.991C107.169 123.961 106.965 123.976 106.654 123.908C106.499 123.874 106.318 123.817 106.133 123.722C106.04 123.675 105.947 123.619 105.857 123.552C105.811 123.518 105.764 123.485 105.743 123.454C105.722 123.416 105.728 123.426 105.735 123.415C105.749 123.399 105.807 123.381 105.862 123.368C105.915 123.355 105.97 123.346 106.024 123.343C106.132 123.334 106.237 123.343 106.335 123.365C106.531 123.407 106.69 123.503 106.807 123.604C107.04 123.811 107.105 124.013 107.135 124Z" fill="#263238"/>
<path opacity="0.6" d="M111.403 123.913C111.403 124.2 111.636 124.432 111.922 124.432C112.209 124.432 112.441 124.2 112.441 123.913C112.441 123.627 112.209 123.395 111.922 123.395C111.636 123.395 111.403 123.627 111.403 123.913Z" fill="white"/>
<path opacity="0.3" d="M105.706 122.173L106.546 123.096L110.078 119.598L109.587 118.957L105.706 122.173Z" fill="black"/>
<path d="M94.8329 49.3408C97.1485 48.5324 99.7009 48.4165 102.08 49.0119C103.145 49.2783 104.225 49.7198 104.908 50.5791C105.716 51.5953 105.816 52.9815 105.94 54.2737C106.192 56.902 106.677 59.5081 107.388 62.051C107.979 64.168 108.729 66.2519 109.049 68.4264C109.369 70.601 109.221 72.9286 108.113 74.827C106.405 77.7534 102.772 79.0477 99.3843 79.1041C97.6006 79.1337 95.7765 78.8729 94.1951 78.0474C92.6137 77.2222 91.2998 75.7771 90.9138 74.0356" fill="#055BC9"/>
<g opacity="0.5">
<path d="M94.8329 49.3408C97.1485 48.5324 99.7009 48.4165 102.08 49.0119C103.145 49.2783 104.225 49.7198 104.908 50.5791C105.716 51.5953 105.816 52.9815 105.94 54.2737C106.192 56.902 106.677 59.5081 107.388 62.051C107.979 64.168 108.729 66.2519 109.049 68.4264C109.369 70.601 109.221 72.9286 108.113 74.827C106.405 77.7534 102.772 79.0477 99.3843 79.1041C97.6006 79.1337 95.7765 78.8729 94.1951 78.0474C92.6137 77.2222 91.2998 75.7771 90.9138 74.0356" fill="black"/>
</g>
<path d="M99.4887 52.0164C99.4672 52.0412 99.9565 52.3493 100.458 53.1035C100.711 53.4763 100.961 53.953 101.214 54.4973C101.47 55.0391 101.736 55.6515 102.115 56.2463C102.494 56.8389 102.974 57.3418 103.514 57.6471C104.051 57.9621 104.641 58.0377 105.1 57.9573C105.565 57.883 105.904 57.6795 106.091 57.501C106.187 57.4139 106.25 57.3343 106.287 57.2773C106.325 57.2204 106.342 57.1894 106.336 57.1857C106.323 57.1754 106.241 57.2927 106.045 57.4474C105.852 57.6024 105.523 57.7764 105.082 57.8311C104.644 57.8903 104.101 57.8082 103.597 57.5032C103.091 57.2075 102.634 56.7238 102.266 56.1488C101.897 55.5708 101.629 54.9662 101.363 54.4255C101.101 53.8827 100.834 53.4021 100.562 53.0306C100.292 52.6573 100.024 52.3928 99.8227 52.2334C99.6216 52.0728 99.4943 52.0077 99.4887 52.0164Z" fill="#E0E0E0"/>
<path d="M104.397 78.1749C104.403 78.1746 104.406 78.0992 104.405 77.9563C104.402 77.794 104.399 77.5868 104.394 77.3304C104.382 76.787 104.354 76.0012 104.311 75.0305C104.227 73.0891 104.074 70.4082 103.842 67.4523C103.609 64.4952 103.342 61.8233 103.122 59.8922C103.012 58.9268 102.917 58.1463 102.844 57.6076C102.809 57.3537 102.78 57.1485 102.757 56.9879C102.735 56.8463 102.721 56.7726 102.715 56.7734C102.708 56.774 102.711 56.8494 102.721 56.9921C102.735 57.1538 102.753 57.3602 102.775 57.6154C102.829 58.1789 102.903 58.9556 102.995 59.9053C103.182 61.8389 103.43 64.5108 103.662 67.4662C103.894 70.4205 104.067 73.098 104.184 75.0372C104.242 75.9897 104.29 76.7683 104.324 77.3335C104.342 77.589 104.357 77.796 104.369 77.9577C104.381 78.1004 104.39 78.1752 104.397 78.1749Z" fill="#E0E0E0"/>
<path d="M103.7 66.3047C103.702 66.3524 104.771 66.3398 106.078 66.1765C107.385 66.0156 108.424 65.7671 108.415 65.7202C108.405 65.6693 107.355 65.8377 106.056 65.9977C104.756 66.16 103.697 66.253 103.7 66.3047Z" fill="#E0E0E0"/>
<path d="M104.564 66.2774C104.541 66.2724 104.473 66.4631 104.418 66.7857C104.391 66.9471 104.369 67.1392 104.361 67.3579C104.359 67.4679 104.361 67.5955 104.42 67.7234C104.479 67.8547 104.615 67.9625 104.782 67.9661C104.866 67.9678 104.959 67.9273 105.011 67.8611C105.067 67.7952 105.087 67.7156 105.092 67.648C105.102 67.5092 105.067 67.3945 105.042 67.2906C104.988 67.0792 104.919 66.8952 104.851 66.7458C104.714 66.4467 104.587 66.2867 104.567 66.2984C104.544 66.3115 104.63 66.4919 104.733 66.7927C104.784 66.9432 104.838 67.1242 104.881 67.3286C104.902 67.4319 104.926 67.5377 104.916 67.6321C104.908 67.7279 104.859 67.7863 104.783 67.786C104.594 67.7815 104.519 67.5606 104.526 67.3587C104.525 67.1507 104.534 66.9594 104.544 66.8005C104.566 66.4813 104.59 66.2827 104.564 66.2774Z" fill="#E0E0E0"/>
<path d="M92.5292 50.3562L103.746 49.0462C105.215 48.8744 106.268 47.544 106.096 46.0743L105.853 43.9935C105.681 42.5238 104.351 41.4718 102.882 41.6433L91.6649 42.9533C90.1955 43.1251 89.1432 44.4554 89.3147 45.9249L89.5576 48.0056C89.7291 49.4757 91.0595 50.5279 92.5292 50.3562Z" fill="#455A64"/>
<path d="M102.697 41.8152C102.698 41.8099 102.662 41.7917 102.59 41.7688C102.517 41.7462 102.405 41.7236 102.259 41.7194C101.972 41.7099 101.53 41.8004 101.111 42.1179C100.702 42.4251 100.228 42.8627 99.9542 43.5067C99.6694 44.1378 99.5761 44.9116 99.6361 45.6946C99.6819 46.4872 99.9685 47.2264 100.391 47.7715C100.812 48.3225 101.364 48.6676 101.857 48.8268C102.352 48.991 102.783 48.998 103.068 48.9597C103.212 48.9435 103.321 48.9164 103.393 48.8944C103.466 48.8718 103.502 48.8572 103.501 48.8511C103.497 48.8355 103.344 48.8748 103.062 48.8899C102.783 48.9061 102.369 48.8793 101.9 48.7067C101.431 48.5383 100.917 48.2007 100.524 47.6712C100.128 47.1457 99.8604 46.4442 99.816 45.6818C99.7576 44.9178 99.8433 44.1783 100.106 43.5728C100.355 42.9621 100.8 42.5309 101.187 42.2201C101.577 41.9051 101.984 41.8026 102.26 41.7898C102.54 41.7775 102.693 41.8322 102.697 41.8152Z" fill="#263238"/>
<path d="M96.2853 42.386L98.015 42.2148C97.555 42.3419 97.166 42.6695 96.9049 43.0691C96.6438 43.4684 96.5022 43.9362 96.4291 44.4076C96.1194 46.3973 97.1769 48.5384 98.8793 49.6143L97.4875 49.8C97.4875 49.8 93.4938 46.232 96.2853 42.386Z" fill="#263238"/>
<path d="M94.3226 46.0443C95.2107 46.2892 96.2096 46.0904 96.9359 45.5243C97.6625 44.958 98.099 44.0378 98.0784 43.1171C98.0588 42.2573 97.6701 41.381 97.9373 40.5633C98.1208 40.002 98.5914 39.5644 98.7491 38.9953C98.9846 38.1458 98.471 37.287 97.9803 36.5545C97.6656 36.0846 97.3442 35.6073 96.9058 35.2501C96.4671 34.8932 95.8856 34.6679 95.3324 34.7852" fill="#263238"/>
<path d="M86.3935 34.8633C86.4413 35.5123 86.0126 36.0923 85.5809 36.579C85.1489 37.0661 84.6685 37.5735 84.575 38.2177C84.4097 39.3593 85.5273 40.4191 85.2966 41.5493C85.1732 42.155 84.6772 42.6414 84.5887 43.2533C84.5032 43.8451 84.8205 44.4242 85.2134 44.875C85.6066 45.3254 86.0855 45.701 86.4332 46.1875C86.7996 46.6999 87.0009 47.3081 87.264 47.8806C87.527 48.4531 87.8808 49.0211 88.4346 49.3216C89.2671 49.7731 90.433 49.5606 91.0714 50.2604C91.6882 50.9365 92.4442 51.0435 93.2043 51.5534" fill="#263238"/>
<path d="M96.3699 35.8518C96.3867 35.2631 95.8424 34.8082 95.2942 34.5926C94.7463 34.3771 94.1372 34.2958 93.6485 33.9668C93.216 33.6756 92.9253 33.2215 92.5591 32.8503C91.6608 31.9397 90.2583 31.5621 89.0243 31.8989C87.7903 32.2354 86.7738 33.2729 86.4624 34.5136C86.2518 35.3519 86.3956 36.3433 87.0564 36.9004C87.8235 37.5469 88.9604 37.4034 89.9433 37.2023C90.926 37.0012 92.0383 36.8027 92.8591 37.3799C93.3539 37.7279 93.6376 38.2942 93.9401 38.8181C94.2425 39.342 94.6223 39.877 95.1942 40.0739C95.7661 40.2708 96.543 39.9307 96.5654 39.3261" fill="#263238"/>
<path d="M94.0484 35.9578C94.5569 36.0129 94.9387 36.4477 94.9275 36.959L94.3397 50.2623C94.3151 51.8334 92.0185 52.7164 90.3362 52.677C88.6375 52.6374 88.5828 51.8043 88.5615 50.3095C88.5261 47.8121 88.5292 46.8746 88.528 46.8888C88.528 46.8888 86.3822 46.5278 85.9438 43.726C85.7257 42.3327 85.8008 40.0493 85.9226 38.1827C86.0323 36.5027 87.1499 34.4437 88.8238 34.6244L94.0484 35.9578Z" fill="#FFBE9D"/>
<path d="M86.4534 39.7849C86.4461 39.9745 86.6011 40.137 86.7988 40.1479C86.9962 40.1591 87.1627 40.0147 87.1697 39.8248C87.1766 39.6352 87.0219 39.4724 86.8245 39.4615C86.6268 39.4506 86.4604 39.5953 86.4534 39.7849Z" fill="#263238"/>
<path d="M86.4154 39.3876C86.4598 39.4345 86.7324 39.2337 87.1189 39.2357C87.5051 39.2321 87.7882 39.4314 87.8301 39.3843C87.8508 39.3633 87.8056 39.2787 87.6821 39.1885C87.5607 39.0986 87.3537 39.0112 87.1127 39.0117C86.872 39.0126 86.6693 39.1008 86.5525 39.1913C86.4339 39.282 86.3934 39.3667 86.4154 39.3876Z" fill="#263238"/>
<path d="M90.3015 39.8979C90.2943 40.0875 90.4492 40.2501 90.647 40.2612C90.8444 40.2721 91.0108 40.128 91.0178 39.9381C91.0251 39.7485 90.8701 39.5857 90.6727 39.5748C90.4749 39.5637 90.3085 39.7083 90.3015 39.8979Z" fill="#263238"/>
<path d="M90.2145 39.4777C90.2589 39.5246 90.532 39.3239 90.9182 39.3258C91.3041 39.3222 91.5876 39.5216 91.6295 39.4744C91.6501 39.4534 91.6055 39.3688 91.4815 39.2786C91.36 39.1887 91.1531 39.1013 90.9121 39.1016C90.6713 39.1024 90.4686 39.1906 90.3519 39.2811C90.2335 39.3722 90.1927 39.4568 90.2145 39.4777Z" fill="#263238"/>
<path d="M88.8051 42.3255C88.8071 42.3035 88.5669 42.2616 88.1776 42.2108C88.0791 42.2004 87.9855 42.1806 87.969 42.1133C87.9459 42.0418 87.9875 41.9357 88.0355 41.8209C88.1288 41.5821 88.2265 41.3322 88.329 41.07C88.7367 40.001 89.0322 39.1216 88.9889 39.1057C88.9456 39.0898 88.5801 39.9432 88.1726 41.0122C88.0746 41.2758 87.9805 41.5271 87.8914 41.7676C87.8537 41.8796 87.7892 42.0066 87.8395 42.1549C87.866 42.2286 87.9383 42.2822 88.0014 42.2996C88.0646 42.3191 88.1201 42.3202 88.169 42.3233C88.5605 42.3454 88.8037 42.3476 88.8051 42.3255Z" fill="#263238"/>
<path d="M88.5282 46.9024C88.5282 46.9024 90.4121 47.028 92.2811 45.9102C92.2811 45.9102 91.3669 47.832 88.5645 47.5636L88.5282 46.9024Z" fill="#EB996E"/>
<path d="M88.9667 43.2653C89.106 43.0818 89.3498 42.9816 89.5917 43.0081C89.7595 43.0266 89.9287 43.1078 90.0301 43.2447C90.1318 43.3815 90.1527 43.5753 90.0597 43.7054C89.955 43.852 89.7372 43.8853 89.5528 43.8325C89.3685 43.7797 89.2099 43.658 89.0594 43.5365C89.0178 43.503 88.9753 43.4678 88.9494 43.422C88.9234 43.3762 88.9181 43.3161 88.9502 43.2782" fill="#EB996E"/>
<path d="M89.942 42.5821C89.8792 42.5782 89.8775 42.9979 89.5176 43.2947C89.1584 43.5927 88.7113 43.5447 88.708 43.6033C88.7021 43.6296 88.8074 43.6851 88.9962 43.6905C89.1813 43.6972 89.4519 43.6382 89.672 43.4567C89.8915 43.2746 89.9862 43.0311 90.001 42.8591C90.0174 42.6837 89.9708 42.5796 89.942 42.5821Z" fill="#263238"/>
<path d="M90.0421 38.7722C90.0801 38.8772 90.466 38.8284 90.9192 38.8842C91.3739 38.9308 91.7391 39.0643 91.7994 38.9702C91.8263 38.9253 91.7629 38.8261 91.6151 38.7242C91.4688 38.6223 91.2351 38.5254 90.9631 38.4944C90.6908 38.4639 90.4417 38.5067 90.2761 38.5734C90.1096 38.6399 90.0256 38.7222 90.0421 38.7722Z" fill="#263238"/>
<path d="M86.5597 38.2619C86.6275 38.3499 86.8939 38.2594 87.2143 38.2557C87.5343 38.2409 87.8054 38.3161 87.868 38.2245C87.8954 38.1798 87.8529 38.0918 87.7345 38.0086C87.6181 37.9254 87.4229 37.8575 87.2028 37.8637C86.9827 37.8701 86.792 37.9494 86.6803 38.039C86.5672 38.1287 86.5301 38.2192 86.5597 38.2619Z" fill="#263238"/>
<path d="M96.0041 45.1868C95.2339 45.342 94.395 45.1052 93.8194 44.5704C93.2439 44.0357 92.9467 43.216 93.0453 42.4366C93.1325 41.7488 93.5033 41.049 93.2648 40.398C92.9495 39.5374 91.7429 39.2724 91.4228 38.4134C91.2369 37.9141 91.4038 37.3301 91.1927 36.8409C90.9945 36.3809 90.5102 36.1159 90.0391 35.9456C89.568 35.7752 89.0628 35.6576 88.6674 35.3502C88.272 35.0427 88.0251 34.4624 88.2803 34.0312C90.3698 34.2817 92.429 34.7819 94.4003 35.5183C94.8574 35.6889 95.3375 35.8942 95.6078 36.3005C95.8938 36.7303 95.8801 37.2857 95.8561 37.8015C95.7388 40.3162 95.6215 42.8309 95.5039 45.3459" fill="#263238"/>
<path d="M97.514 47.5157C97.4919 47.519 97.5517 47.2454 97.3685 46.8181C97.2788 46.6067 97.1205 46.3679 96.8907 46.1356C96.6611 45.9019 96.3514 45.6891 95.985 45.4944C95.6206 45.2959 95.1992 45.1158 94.7686 44.8689C94.3413 44.6226 93.8993 44.2866 93.6097 43.7904C93.4656 43.5449 93.3756 43.2517 93.3751 42.9498C93.3737 42.6485 93.4418 42.3542 93.5013 42.0615C93.5591 41.7702 93.618 41.4689 93.5594 41.1821C93.5089 40.8925 93.3083 40.6527 93.0422 40.5019C92.778 40.3446 92.4759 40.2483 92.1902 40.114C91.9073 39.9816 91.6211 39.7934 91.4658 39.5083C91.3083 39.2282 91.2667 38.9146 91.2555 38.6233C91.2452 38.3292 91.2639 38.0463 91.2603 37.7735C91.2575 37.5012 91.234 37.2362 91.148 37.0008C91.0637 36.7651 90.9151 36.566 90.7233 36.4266C90.3384 36.1432 89.883 36.0435 89.4814 35.9399C89.0767 35.8391 88.7039 35.7187 88.4247 35.5207C88.1412 35.3247 87.9857 35.0549 87.9209 34.8265C87.855 34.5942 87.8863 34.4001 87.9307 34.2842C87.9784 34.1675 88.0273 34.1211 88.0273 34.1211C88.0343 34.1253 87.9955 34.1786 87.9586 34.2937C87.9251 34.4082 87.9047 34.5922 87.9754 34.8103C88.0449 35.0253 88.1999 35.2761 88.4708 35.4537C88.7408 35.6361 89.1016 35.7461 89.5063 35.8402C89.9073 35.9382 90.3775 36.0304 90.7956 36.3303C91.0042 36.4778 91.1745 36.7 91.2681 36.957C91.3642 37.2136 91.3896 37.4937 91.3943 37.7721C91.3996 38.0514 91.3826 38.3345 91.3943 38.6185C91.406 38.9012 91.449 39.1905 91.5892 39.4376C91.7263 39.6881 91.978 39.8551 92.2516 39.9836C92.5273 40.1134 92.8311 40.2086 93.1168 40.3776C93.2584 40.4619 93.3924 40.5672 93.4971 40.7004C93.6024 40.8331 93.6686 40.9928 93.7013 41.1539C93.7658 41.4812 93.699 41.7968 93.6409 42.0906C93.5798 42.3852 93.5139 42.6709 93.5142 42.9496C93.5136 43.2266 93.5932 43.4935 93.7264 43.7248C93.9939 44.1911 94.415 44.5212 94.8297 44.7656C95.2489 45.0121 95.6686 45.1984 96.0347 45.4051C96.4022 45.6075 96.7186 45.8332 96.9493 46.0795C97.1805 46.3244 97.3366 46.5754 97.4213 46.7972C97.5087 47.0183 97.5307 47.2046 97.5307 47.3283C97.5341 47.3903 97.5265 47.4375 97.5237 47.4691C97.5196 47.4998 97.5165 47.516 97.514 47.5157Z" fill="#263238"/>
<path d="M89.3505 49.437C89.3517 49.4421 89.3045 49.4557 89.2126 49.4781C89.1668 49.4909 89.1093 49.5007 89.0403 49.5074C88.9716 49.5177 88.892 49.5244 88.8018 49.5233C88.4452 49.5323 87.9026 49.4379 87.3622 49.0712C87.0964 48.8872 86.8294 48.6372 86.6356 48.3035C86.4331 47.9723 86.3357 47.566 86.262 47.1524C86.1846 46.74 86.119 46.299 85.8989 45.9145C85.6808 45.5277 85.2748 45.27 84.9095 44.9396C84.5294 44.6145 84.2862 44.1454 84.2234 43.6771C84.1552 43.2074 84.2597 42.7326 84.4822 42.3615C84.6978 41.9903 84.9525 41.6815 85.0676 41.3344C85.189 40.9906 85.2097 40.6426 85.1865 40.331C85.1298 39.7046 84.9478 39.2156 84.8324 38.8819C84.7115 38.5477 84.64 38.3639 84.6504 38.3594C84.6548 38.3575 84.6786 38.401 84.7191 38.4857C84.7595 38.5706 84.8171 38.6965 84.8852 38.8615C85.017 39.1913 85.2167 39.6775 85.2887 40.3221C85.3195 40.6426 85.3049 41.0079 85.1812 41.374C85.0625 41.7463 84.8012 42.0699 84.599 42.4274C84.3915 42.7815 84.3002 43.2168 84.3644 43.6572C84.4278 44.0971 84.6462 44.5224 85.0075 44.8326C85.3563 45.151 85.7819 45.4185 86.0221 45.8435C86.2583 46.2627 86.3195 46.7187 86.3938 47.129C86.4636 47.5423 86.5535 47.9288 86.7398 48.2432C86.9185 48.5618 87.1695 48.8054 87.4214 48.9874C87.9336 49.3507 88.4552 49.4588 88.8029 49.4672C89.1548 49.4767 89.3478 49.4206 89.3505 49.437Z" fill="#263238"/>
<path d="M97.4842 36.0925C97.4842 36.0925 97.5169 36.1249 97.5308 36.207C97.5473 36.2874 97.5244 36.4211 97.4228 36.5435C97.3239 36.6633 97.153 36.7839 96.9215 36.797C96.6911 36.8026 96.4529 36.7018 96.2116 36.5845C95.9706 36.463 95.7053 36.3558 95.3945 36.3432C95.0865 36.324 94.7542 36.3712 94.4057 36.4332C94.0569 36.494 93.6863 36.5742 93.2875 36.5772C92.8943 36.5826 92.4511 36.4644 92.1406 36.1586C91.8264 35.8607 91.6474 35.4817 91.4802 35.1343C91.314 34.7844 91.1587 34.4462 90.9457 34.1734C90.5312 33.6085 89.8258 33.4532 89.329 33.5836C88.8169 33.7126 88.5086 34.0617 88.3542 34.3049C88.1969 34.5571 88.1629 34.7247 88.1489 34.7199C88.1444 34.7188 88.15 34.6772 88.1701 34.5995C88.1919 34.5227 88.231 34.4099 88.3056 34.2762C88.4505 34.0165 88.7577 33.6369 89.3034 33.4842C89.5717 33.4116 89.8887 33.4057 90.2031 33.5021C90.519 33.592 90.8256 33.8 91.051 34.0907C91.2802 34.3787 91.4413 34.7255 91.6086 35.0729C91.7765 35.4186 91.9527 35.7814 92.2397 36.0525C92.5226 36.3298 92.9147 36.4365 93.2878 36.4351C93.6654 36.4343 94.0309 36.3594 94.3828 36.3013C94.7344 36.2427 95.0781 36.1977 95.4032 36.2231C95.7302 36.2407 96.0226 36.3661 96.2569 36.4924C96.4937 36.6155 96.7168 36.7135 96.9193 36.7158C97.1198 36.7127 97.2845 36.6102 97.3795 36.5066C97.4778 36.4008 97.5068 36.2851 97.5012 36.21C97.4985 36.1335 97.4758 36.0955 97.4842 36.0925Z" fill="#455A64"/>
<path d="M95.9161 35.2838C95.0021 35.0727 94.3 34.167 94.3232 33.2293C94.3464 32.2915 95.0925 31.4219 96.0158 31.2563C96.4615 31.1765 96.9775 31.2753 97.2453 31.6406C97.5017 31.9902 97.4849 32.5122 97.812 32.7967C98.1622 33.1014 98.6992 32.9701 99.1527 33.0682C99.8553 33.2198 100.325 33.99 100.245 34.7043C100.166 35.4187 99.6174 36.0288 98.9522 36.3011C98.287 36.5737 97.5268 36.543 96.8365 36.3425C96.1462 36.1419 95.5139 35.782 94.9029 35.403" fill="#263238"/>
<path d="M99.2816 33.2542C99.2958 33.2584 99.2494 33.4693 99.0763 33.7681C98.9054 34.0663 98.5865 34.4389 98.1372 34.7203C97.6864 34.9999 97.2117 35.1222 96.8685 35.1443C96.5239 35.168 96.3142 35.1169 96.3167 35.1024C96.3186 35.0772 96.5283 35.0909 96.8568 35.042C97.1846 34.9949 97.6303 34.863 98.0601 34.5969C98.4885 34.3283 98.8026 33.9865 98.9895 33.7128C99.1782 33.4391 99.2584 33.2447 99.2816 33.2542Z" fill="#455A64"/>
<path d="M97.7992 36.3546C97.7629 36.3853 97.3348 35.6713 96.473 35.1856C95.6188 34.6858 94.7866 34.6763 94.795 34.6294C94.7947 34.6132 94.9997 34.5911 95.3281 34.6358C95.6554 34.6793 96.1041 34.807 96.5454 35.0594C96.9858 35.3133 97.322 35.6364 97.5247 35.8972C97.7291 36.1583 97.8135 36.3465 97.7992 36.3546Z" fill="#055BC9"/>
<path d="M77.4511 66.7734L72.9361 65.8945L73.7507 67.0537L71.8112 68.0214L70.1924 67.2635C70.1924 67.2635 70.3102 67.6181 70.6643 68.2096C71.0184 68.801 71.4909 69.2744 71.7981 69.2981C72.258 69.3339 72.3399 69.3403 71.7981 69.2981C71.7981 69.2981 71.8972 69.848 72.3977 70.3816C72.6962 70.7 73.4812 71.2016 74.4377 70.9463L77.4782 69.8477L77.4511 66.7734Z" fill="#FFBE9D"/>
<path d="M72.8858 69.0442C72.9135 69.0708 72.6633 69.3042 72.2617 69.3486C71.8607 69.3969 71.5638 69.2263 71.5848 69.1942C71.6001 69.1543 71.8881 69.2486 72.2452 69.2042C72.603 69.1663 72.8618 69.0088 72.8858 69.0442Z" fill="#EB996E"/>
<path d="M73.476 70.0046C73.5045 70.0303 73.3107 70.2492 72.9745 70.3355C72.6385 70.4246 72.3626 70.328 72.3749 70.2917C72.3827 70.25 72.6399 70.2749 72.9376 70.1948C73.2367 70.1196 73.4489 69.9722 73.476 70.0046Z" fill="#EB996E"/>
<path d="M74.6206 66.5824C74.6276 66.6034 74.4662 66.6696 74.226 66.812C73.9836 66.951 73.6717 67.1795 73.3134 67.4244C72.9548 67.6693 72.594 67.8522 72.3125 67.9243C72.0316 68.0005 71.8493 67.9835 71.8493 67.9667C71.8473 67.9435 72.0216 67.9237 72.281 67.8265C72.5421 67.7327 72.878 67.5453 73.2321 67.3038C73.5862 67.0619 73.9158 66.8407 74.1777 66.7212C74.438 66.5978 74.6156 66.5651 74.6206 66.5824Z" fill="#EB996E"/>
<path d="M102.078 74.2852C102.078 74.2852 102.233 74.3818 102.617 75.0671C103.799 77.1752 104.277 82.2284 99.8204 86.7367C94.0604 92.564 87.3175 102.096 87.3175 102.096L82.0225 124.481L74.0245 122.749L78.1461 99.4815L89.4491 78.5165L102.078 74.2852Z" fill="#263238"/>
<path d="M110.901 117.612L98.5803 98.7562L94.8424 82.4805L85.3262 87.1569L90.0992 103.677L105.326 122.645L110.901 117.612Z" fill="#263238"/>
<path d="M82.0225 124.484C82.02 124.484 82.0264 124.446 82.0409 124.374C82.0577 124.295 82.0806 124.188 82.1094 124.053C82.1744 123.764 82.2674 123.35 82.3864 122.822C82.6349 121.748 82.9915 120.205 83.4316 118.303C84.3295 114.484 85.5668 109.22 86.9335 103.406C87.0408 102.952 87.1472 102.503 87.2466 102.083L87.2502 102.067L87.26 102.055C90.7524 97.5895 93.9317 93.6372 96.2733 90.8303C97.4454 89.4282 98.4027 88.3081 99.0812 87.5513C99.4155 87.1684 99.6881 86.8836 99.8685 86.687C99.9562 86.594 100.025 86.5211 100.077 86.4664C100.124 86.4172 100.149 86.3929 100.151 86.3946C100.153 86.3963 100.131 86.4239 100.087 86.4762C100.038 86.5331 99.9726 86.6094 99.8891 86.7063C99.7154 86.9087 99.4499 87.1994 99.122 87.5876C98.4565 88.355 97.5113 89.4846 96.3498 90.8943C94.0292 93.7165 90.8638 97.6786 87.3742 102.144L87.3876 102.117C87.2885 102.537 87.1821 102.986 87.0748 103.439C85.692 109.25 84.4398 114.51 83.5313 118.327C83.0725 120.225 82.7005 121.763 82.4411 122.836C82.3107 123.361 82.2088 123.772 82.1376 124.06C82.1027 124.194 82.0753 124.299 82.0552 124.378C82.0359 124.449 82.025 124.485 82.0225 124.484Z" fill="#455A64"/>
<path d="M96.4713 80.2373C96.4749 80.2457 96.4073 80.2862 96.2775 80.3437C96.1476 80.4013 95.9533 80.4705 95.7047 80.5286C95.2118 80.6467 94.4833 80.692 93.7281 80.4722C92.9727 80.2524 92.3824 79.8232 92.03 79.4588C91.8518 79.2764 91.7247 79.1136 91.6463 78.9952C91.5675 78.8771 91.5321 78.8067 91.5399 78.8014C91.5605 78.7863 91.7354 79.0472 92.1015 79.3845C92.4637 79.7213 93.042 80.1206 93.7689 80.3323C94.4958 80.544 95.1979 80.5174 95.6843 80.4275C96.1744 80.3398 96.4618 80.2136 96.4713 80.2373Z" fill="#455A64"/>
<path d="M103.264 75.2403C98.4464 77.778 90.6222 79.2949 88.1222 78.2647L88.0345 68.9808C88.0345 68.9808 84.6067 63.3294 84.5938 61.1931C84.5754 58.1137 88.409 51.0921 88.409 51.0921L94.1637 49.5665C95.5178 49.5606 96.6134 49.8706 97.4952 50.3392C99.7117 51.5168 100.92 53.9922 100.67 56.4896L99.2211 65.7246L103.264 75.2403Z" fill="#055BC9"/>
<g opacity="0.3">
<path d="M97.089 50.3259C97.423 50.275 97.5475 50.8218 97.3079 51.0598C97.0683 51.2977 96.695 51.3111 96.3613 51.3633C94.8628 51.5976 93.7041 52.8819 93.1582 54.2969C92.6122 55.7119 92.5617 57.261 92.472 58.7751C92.3824 60.2892 92.2341 61.8483 91.5226 63.1879C90.1986 60.8405 89.9919 57.8932 90.9758 55.3841C91.9596 52.8749 94.1138 50.8534 96.6807 50.0312" fill="black"/>
</g>
<path d="M97.4954 50.3361C97.4954 50.3361 96.6674 48.9702 93.8891 49.5633C92.0326 49.9596 87.9781 53.8539 89.1093 60.1134C90.2406 66.3733 93.2731 68.5878 93.2731 68.5878C93.2731 68.5878 90.483 59.0067 92.0326 54.8251C93.5819 50.6438 97.4954 50.3361 97.4954 50.3361Z" fill="#263238"/>
<g opacity="0.3">
<path d="M88.1404 70.9638C89.2879 71.3333 90.3884 71.7932 91.5831 71.9532C92.7777 72.1133 94.0271 72.0521 95.1363 71.5804C96.67 70.9281 97.8091 69.5296 98.3958 67.9696C98.9826 66.4097 99.063 64.6987 98.9072 63.0391C97.858 64.3337 97.9853 66.2533 97.0945 67.6616C96.5368 68.543 95.6287 69.1428 94.6962 69.6103C92.6655 70.6279 90.4113 71.0144 88.1404 70.9638Z" fill="black"/>
</g>
<path d="M91.5916 61.4766C91.5916 61.4766 91.2179 68.525 99.8165 67.122L100.683 69.1609C100.683 69.1609 91.6421 71.0702 90.3606 63.5844L91.5916 61.4766Z" fill="#263238"/>
<path d="M99.4273 52.7179C100.178 53.7889 100.373 55.1544 100.065 56.4253L97.9234 66.0131C97.0033 68.7107 94.3813 70.348 92.7521 70.5675L77.4781 72.1772V66.4851L91.6558 64.3789L92.3207 56.615C92.3791 55.5705 92.8943 53.6936 93.5584 52.8855C94.3009 51.9821 95.4434 50.7528 97.3077 51.0653C98.4521 51.2566 98.936 52.017 99.4273 52.7179Z" fill="#055BC9"/>
<path d="M99.8703 56.7969C99.8754 56.7974 99.8695 56.872 99.8544 57.0133C99.8396 57.1546 99.8139 57.3624 99.7779 57.6299C99.7056 58.1644 99.5916 58.9371 99.4232 59.8871C99.256 60.8372 99.0337 61.9648 98.7477 63.2084C98.603 63.8297 98.4506 64.4812 98.2651 65.1523C98.0775 65.8217 97.8504 66.5117 97.5165 67.1758C97.1855 67.8404 96.7474 68.4383 96.2252 68.9089C95.706 69.3822 95.1263 69.7455 94.544 70.0164C93.3759 70.5646 92.2195 70.7654 91.2619 70.869C90.2993 70.9675 89.5171 70.9731 88.9782 70.9784C88.7196 70.9773 88.5129 70.9762 88.3571 70.9756C88.2152 70.9728 88.1407 70.9692 88.1404 70.9642C88.1404 70.9592 88.2147 70.9533 88.3565 70.9463C88.5121 70.9402 88.7184 70.9321 88.9768 70.922C89.5149 70.8991 90.2954 70.8779 91.2505 70.7668C92.2008 70.6509 93.3416 70.4409 94.4868 69.8952C95.0579 69.6257 95.6237 69.2671 96.1291 68.8039C96.6371 68.3431 97.0618 67.7625 97.3869 67.1102C97.7147 66.4586 97.9401 65.7778 98.1283 65.1135C98.3146 64.448 98.4698 63.7968 98.6176 63.1776C98.91 61.938 99.1423 60.8146 99.3224 59.8682C99.5034 58.922 99.6327 58.1527 99.722 57.6212C99.765 57.3663 99.7997 57.1627 99.8256 57.0091C99.8502 56.8692 99.8656 56.796 99.8703 56.7969Z" fill="#263238"/>
<path d="M92.0677 66.0082C92.0295 66.0205 91.8753 65.6493 91.7234 65.1791C91.5715 64.7085 91.479 64.3173 91.5173 64.305C91.5556 64.2927 91.7097 64.6638 91.8616 65.1344C92.0138 65.6047 92.106 65.9959 92.0677 66.0082Z" fill="#263238"/>
<path d="M92.9359 65.7953C92.9138 65.8266 92.5338 65.5887 92.1565 65.1896C91.7773 64.7919 91.5592 64.4004 91.5915 64.38C91.6265 64.3566 91.8926 64.7026 92.2618 65.0893C92.6293 65.4781 92.961 65.7618 92.9359 65.7953Z" fill="#263238"/>
<path d="M78.8079 66.2851C78.8076 66.2828 78.8291 66.2772 78.8715 66.2686C78.9221 66.2594 78.9844 66.2479 79.0609 66.2337C79.2388 66.2041 79.4831 66.1636 79.7931 66.1119C80.4426 66.01 81.3659 65.8653 82.5094 65.6861C84.8256 65.3359 88.032 64.8511 91.6448 64.3051L91.5836 64.3694C91.6342 63.8402 91.6875 63.2803 91.7417 62.7128C91.9257 60.6974 92.1184 58.7806 92.2131 57.0293C92.284 56.1497 92.4496 55.3239 92.6878 54.5761C92.9266 53.831 93.2393 53.1513 93.6862 52.6425C94.5921 51.6564 95.6047 51.1334 96.3506 51.0393C96.7223 50.9848 97.0146 51.0225 97.2073 51.0546C97.3031 51.0756 97.3749 51.0976 97.4232 51.1108C97.4715 51.1244 97.4958 51.1328 97.495 51.1351C97.4938 51.1638 97.092 50.982 96.3592 51.0954C95.6329 51.2035 94.6446 51.7324 93.7635 52.7103C93.3368 53.2055 93.033 53.8757 92.8029 54.6124C92.5728 55.3516 92.413 56.1709 92.3468 57.0391C92.2594 58.7903 92.0704 60.7114 91.8866 62.7262C91.8322 63.2937 91.7783 63.8538 91.7274 64.383L91.7221 64.4392L91.6663 64.4473C88.0507 64.9748 84.8418 65.4431 82.5239 65.7813C81.3776 65.9421 80.4521 66.072 79.8012 66.1633C79.4895 66.2041 79.2438 66.2362 79.0651 66.2597C78.9877 66.2683 78.9246 66.2756 78.8738 66.2812C78.8305 66.2865 78.8081 66.2873 78.8079 66.2851Z" fill="#263238"/>
<path d="M87.5496 70.9322C87.5097 70.9361 87.3477 69.6445 87.188 68.0477C87.0282 66.4503 86.9313 65.1526 86.9713 65.1484C87.0112 65.1445 87.1732 66.4358 87.3329 68.0332C87.4926 69.63 87.5895 70.9282 87.5496 70.9322Z" fill="#FAFAFA"/>
<path d="M98.7291 62.2758C98.7288 62.2959 98.3579 62.3001 97.7584 62.2909C97.1588 62.2817 96.3305 62.2588 95.416 62.2244C94.5011 62.1901 93.6734 62.151 93.0749 62.1152C92.4765 62.0795 92.107 62.0477 92.1082 62.0275C92.1093 62.0074 92.481 62.0033 93.0805 62.0125C93.6801 62.0217 94.5078 62.0446 95.4216 62.0789C96.3353 62.1133 97.1622 62.1524 97.7606 62.1878C98.3591 62.2233 98.7294 62.2557 98.7291 62.2758Z" fill="#FAFAFA"/>
<path d="M89.0344 60.4644C89.0358 60.4837 88.7943 60.5191 88.4016 60.5476C88.009 60.5764 87.4647 60.5954 86.8638 60.5839C86.2628 60.5719 85.7196 60.5314 85.3284 60.4873C84.9372 60.4432 84.6973 60.3985 84.6992 60.3792C84.7015 60.3586 84.9447 60.3672 85.3362 60.3848C85.728 60.4027 86.2687 60.4267 86.8666 60.4387C87.4642 60.4502 88.0054 60.4476 88.3974 60.4451C88.7898 60.4426 89.033 60.4435 89.0344 60.4644Z" fill="#FAFAFA"/>
<path d="M90.2963 53.8295C90.2751 53.8669 89.6884 53.5589 88.9271 53.2721C88.167 52.9817 87.5239 52.8228 87.5328 52.7809C87.539 52.744 88.2058 52.8412 88.9788 53.1364C89.7529 53.4279 90.3165 53.7977 90.2963 53.8295Z" fill="#FAFAFA"/>
<path d="M101.388 71.2549C101.39 71.2597 101.347 71.2809 101.263 71.3169C101.164 71.358 101.042 71.408 100.895 71.4686C100.575 71.599 100.106 71.7738 99.5225 71.9774C98.3554 72.3859 96.7193 72.8866 94.8792 73.3091C93.0381 73.7297 91.3469 73.9905 90.1184 74.1307C89.5044 74.2014 89.0062 74.2477 88.661 74.2698C88.5024 74.2793 88.3714 74.2871 88.2636 74.2935C88.1726 74.2974 88.1248 74.2969 88.1243 74.2919C88.124 74.2868 88.1709 74.2776 88.2611 74.2642C88.3681 74.2505 88.4982 74.2338 88.6557 74.2134C88.9986 74.174 89.4943 74.112 90.1056 74.0285C91.3282 73.8626 93.0113 73.5864 94.8468 73.1673C96.6813 72.7462 98.3166 72.2625 99.4898 71.8799C100.077 71.6892 100.55 71.5291 100.876 71.4155C101.026 71.3652 101.151 71.3236 101.253 71.2895C101.34 71.2622 101.387 71.2502 101.388 71.2549Z" fill="#FAFAFA"/>
<path d="M100.478 54.5509C100.476 54.5911 98.83 54.5704 96.8009 54.5048C94.7713 54.4392 93.1273 54.3534 93.1287 54.3135C93.1301 54.2733 94.776 54.294 96.8056 54.3596C98.8347 54.4252 100.479 54.5109 100.478 54.5509Z" fill="#FAFAFA"/>
<path d="M80.8002 71.7612C80.76 71.7629 80.6796 70.5152 80.6204 68.9753C80.5612 67.4347 80.5458 66.185 80.586 66.1836C80.6262 66.1822 80.7066 67.4294 80.7659 68.9697C80.8251 70.5099 80.8404 71.7598 80.8002 71.7612Z" fill="#FAFAFA"/>
<path d="M49.559 43.2028C52.0265 42.7367 54.6287 43.0081 56.9468 43.9733C57.9842 44.4053 59.0105 45.0168 59.5713 45.9906C60.2342 47.1425 60.125 48.5612 60.0535 49.8885C59.908 52.5881 60.0024 55.3002 60.3347 57.9833C60.6112 60.2168 61.0533 62.4408 61.0457 64.6914C61.0382 66.9419 60.5347 69.276 59.1236 71.0291C56.9487 73.7318 53.0735 74.4891 49.6347 74.0303C47.8246 73.7888 46.0172 73.2467 44.5419 72.1705C43.0666 71.0942 41.9562 69.431 41.8306 67.6091" fill="#455A64"/>
<path d="M53.8645 46.6294C53.8388 46.6512 54.2875 47.0377 54.6802 47.8777C54.8798 48.2938 55.0602 48.8143 55.2334 49.4038C55.4107 49.9917 55.5861 50.6518 55.879 51.3117C56.1731 51.9694 56.5819 52.5516 57.0832 52.9431C57.5783 53.3436 58.1645 53.5103 58.6414 53.4989C59.1229 53.4944 59.4974 53.34 59.7138 53.1878C59.8247 53.1143 59.9009 53.0434 59.947 52.9912C59.9936 52.9392 60.0154 52.9102 60.0109 52.906C59.9989 52.8934 59.8981 52.9998 59.6764 53.1266C59.4574 53.2539 59.0972 53.3802 58.6428 53.3684C58.1899 53.3617 57.6529 53.1959 57.1893 52.8102C56.7215 52.4335 56.3328 51.8747 56.0477 51.2363C55.7626 50.5949 55.583 49.942 55.3962 49.3541C55.2133 48.7646 55.0164 48.2374 54.7975 47.8199C54.581 47.401 54.3501 47.0921 54.1705 46.9C53.9904 46.7068 53.8714 46.6216 53.8645 46.6294Z" fill="#263238"/>
<path d="M54.8503 73.8542C54.8567 73.8551 54.8709 73.7791 54.8922 73.6342C54.914 73.4697 54.9422 73.2591 54.9768 72.9989C55.0469 72.4468 55.1382 71.647 55.2429 70.6576C55.4529 68.679 55.7062 65.9417 55.9215 62.9132C56.136 59.8838 56.272 57.1378 56.3438 55.1493C56.3798 54.1551 56.4024 53.3503 56.4111 52.794C56.4136 52.5318 56.4155 52.3193 56.4172 52.1534C56.4166 52.0068 56.413 51.9297 56.4069 51.9297C56.4004 51.9294 56.3915 52.0062 56.3801 52.1523C56.3694 52.3179 56.356 52.5298 56.3393 52.7915C56.3083 53.3704 56.2656 54.1679 56.2136 55.1437C56.1086 57.1297 55.9522 59.8726 55.7378 62.9003C55.5225 65.9266 55.2898 68.6639 55.1133 70.645C55.027 71.6182 54.9567 72.4138 54.9056 72.9913C54.8849 73.2527 54.8684 73.4646 54.8556 73.63C54.8458 73.7763 54.8439 73.8534 54.8503 73.8542Z" fill="#263238"/>
<path d="M55.9528 61.7305C55.9475 61.7791 57.0318 61.929 58.3798 61.9628C59.7281 61.9991 60.8183 61.9056 60.8158 61.8567C60.8135 61.8039 59.7253 61.8145 58.3846 61.7782C57.0444 61.745 55.9578 61.6777 55.9528 61.7305Z" fill="#263238"/>
<path d="M56.8319 61.8401C56.8093 61.8315 56.711 62.0144 56.6069 62.3325C56.5552 62.4919 56.503 62.6829 56.4616 62.903C56.4427 63.0141 56.4262 63.1437 56.4667 63.2822C56.5066 63.4241 56.6278 63.5539 56.7962 63.583C56.8808 63.5975 56.9813 63.5704 57.0439 63.5115C57.1101 63.4531 57.1425 63.3758 57.1581 63.3079C57.1891 63.1688 57.1715 63.0474 57.1623 62.9385C57.1397 62.7164 57.0978 62.5193 57.0517 62.3579C56.9584 62.0342 56.8537 61.853 56.8325 61.8616C56.8065 61.8714 56.8666 62.0672 56.9247 62.3875C56.9531 62.5475 56.9802 62.7391 56.9928 62.9524C56.9984 63.0602 57.007 63.1711 56.9825 63.2652C56.9593 63.361 56.9009 63.4124 56.8238 63.4006C56.6337 63.3674 56.5907 63.132 56.6295 62.929C56.6599 62.7181 56.6982 62.5257 56.7328 62.3663C56.8026 62.0468 56.8571 61.8494 56.8319 61.8401Z" fill="#263238"/>
<path d="M47.0082 43.8858L58.6918 44.2718C60.1705 44.3206 61.409 43.1614 61.4579 41.6828L61.533 39.4113C61.5818 37.9326 60.4226 36.6941 58.944 36.6452L47.2604 36.2593C45.7817 36.2104 44.5432 37.3696 44.4943 38.8483L44.4192 41.1198C44.3703 42.5985 45.5295 43.837 47.0082 43.8858Z" fill="#263238"/>
<path d="M58.666 36.7881C58.6685 36.7831 58.635 36.7591 58.5649 36.725C58.4948 36.6912 58.3853 36.6513 58.2381 36.6247C57.948 36.5714 57.4872 36.5957 57.0142 36.8532C56.5534 37.1017 56.0072 37.4726 55.6318 38.083C55.2473 38.6787 55.0348 39.448 54.9767 40.2498C54.9024 41.0591 55.0797 41.851 55.4249 42.4674C55.767 43.0895 56.2736 43.523 56.7483 43.7589C57.2247 44.0008 57.6601 44.0731 57.9541 44.0778C58.1019 44.0831 58.2166 44.0725 58.2932 44.0611C58.37 44.0494 58.4093 44.0401 58.4088 44.0337C58.4074 44.0172 58.2457 44.0337 57.9586 44.0061C57.6735 43.9798 57.2582 43.8896 56.8092 43.6436C56.3607 43.4018 55.8915 42.9818 55.5737 42.3858C55.2534 41.7938 55.0892 41.0426 55.1604 40.264C55.2177 39.4813 55.4171 38.746 55.7759 38.1729C56.1202 37.5926 56.6366 37.2235 57.0756 36.9679C57.5182 36.7085 57.9469 36.6669 58.2281 36.6957C58.5132 36.7261 58.6593 36.8048 58.666 36.7881Z" fill="#455A64"/>
<path d="M52.0888 36.3867L53.866 36.4769C53.3809 36.5356 52.9372 36.8078 52.6121 37.1726C52.2871 37.5373 52.0726 37.9891 51.9263 38.4555C51.3097 40.4228 52.0545 42.7516 53.6141 44.1001L52.1768 44.0761C52.1768 44.0761 48.6766 39.8557 52.0888 36.3867Z" fill="#455A64"/>
<path d="M43.4079 33.0376C42.6824 31.283 42.6442 28.2307 43.7537 26.6261C44.8632 25.0215 46.9394 23.962 48.8468 23.552C49.1654 23.4836 49.5086 23.4375 49.8091 23.564C50.1096 23.6908 50.3338 24.0494 50.2051 24.349C50.5882 24.1097 50.9806 23.8665 51.421 23.7654C51.8614 23.6643 52.3663 23.7296 52.6902 24.0446C53.0141 24.3596 53.065 24.9547 52.7218 25.2485C53.2537 25.0544 53.8946 25.2052 54.2842 25.6163C54.6738 26.0274 54.7899 26.6752 54.5674 27.196C54.3543 27.6948 53.9013 28.2519 53.5017 28.6183C53.1018 28.9847 53.0359 29.365 53.1018 29.9035" fill="#263238"/>
<path d="M43.8657 29.804L43.3608 40.5485C43.275 42.3757 44.7356 43.9029 46.5647 43.8985C48.2718 43.8943 49.6751 42.5491 49.7533 40.8439C49.7904 40.0352 49.8231 39.3608 49.8323 39.2778C49.8323 39.2778 52.5796 39.1491 52.9044 36.4512C53.0613 35.1473 53.1658 32.4358 53.232 29.9814C53.3032 27.3454 51.3347 25.098 48.7133 24.8154L48.4528 24.7872C45.6244 24.6484 43.9263 26.9729 43.8657 29.804Z" fill="#FFBE9D"/>
<path d="M49.8411 39.2598C49.8411 39.2598 48.1189 39.2146 46.4271 37.8789C46.4271 37.8789 46.9658 39.5693 49.6877 39.6167L49.8411 39.2598Z" fill="#EB996E"/>
<path d="M52.2498 31.7197C52.235 31.9241 52.0498 32.0802 51.8359 32.0687C51.6226 32.0573 51.4609 31.8825 51.4757 31.6781C51.4905 31.4737 51.6759 31.3173 51.8892 31.3287C52.1032 31.3399 52.2646 31.515 52.2498 31.7197Z" fill="#263238"/>
<path d="M52.5087 31.2585C52.4554 31.3035 52.1865 31.0558 51.7712 31.0122C51.3571 30.9625 51.0292 31.1435 50.9898 31.0876C50.97 31.0628 51.0286 30.977 51.1716 30.8949C51.3127 30.8128 51.5456 30.7433 51.8039 30.7723C52.0622 30.8017 52.2697 30.9204 52.3842 31.0312C52.5015 31.1429 52.5347 31.2384 52.5087 31.2585Z" fill="#263238"/>
<path d="M48.1632 31.4189C48.1484 31.6233 47.963 31.7794 47.7494 31.768C47.536 31.7565 47.3743 31.5817 47.3891 31.3773C47.4039 31.1729 47.5894 31.0165 47.8027 31.0279C48.0163 31.0394 48.1777 31.2145 48.1632 31.4189Z" fill="#263238"/>
<path d="M48.4195 30.8915C48.3662 30.9368 48.0967 30.6888 47.682 30.6452C47.2679 30.5955 46.94 30.7762 46.9007 30.7206C46.8811 30.6958 46.9389 30.6103 47.0827 30.5279C47.2238 30.4458 47.4564 30.3763 47.715 30.405C47.9736 30.4344 48.1808 30.5531 48.2953 30.6639C48.4117 30.7759 48.4455 30.8714 48.4195 30.8915Z" fill="#263238"/>
<path d="M49.5944 34.1359C49.5949 34.1122 49.8577 34.0954 50.2816 34.087C50.3889 34.0876 50.4913 34.0773 50.517 34.0069C50.5503 33.9329 50.5182 33.8139 50.4802 33.6849C50.4081 33.4177 50.3327 33.1376 50.2537 32.8438C49.9423 31.6474 49.729 30.6686 49.7773 30.6564C49.8256 30.6444 50.1171 31.6042 50.4285 32.8002C50.5028 33.0948 50.574 33.3758 50.6413 33.6447C50.6684 33.7695 50.7226 33.9136 50.6514 34.0667C50.6142 34.1429 50.5302 34.1918 50.4603 34.2029C50.3903 34.2163 50.3305 34.211 50.2777 34.2085C49.8546 34.1859 49.5932 34.1597 49.5944 34.1359Z" fill="#263238"/>
<path d="M48.3416 34.2737C48.4095 34.277 48.3617 34.7277 48.713 35.0891C49.0635 35.4516 49.5491 35.4527 49.5461 35.5161C49.5494 35.5451 49.4296 35.592 49.2263 35.5758C49.0266 35.5613 48.7432 35.4661 48.5282 35.2449C48.314 35.0235 48.2411 34.7506 48.2456 34.5641C48.2486 34.3739 48.3109 34.2678 48.3416 34.2737Z" fill="#263238"/>
<path d="M48.7024 29.2863C48.6493 29.3947 48.2405 29.2967 47.747 29.3028C47.2533 29.2992 46.8453 29.3994 46.7917 29.2911C46.7679 29.2394 46.8481 29.1409 47.0187 29.0487C47.188 28.9565 47.4502 28.88 47.7462 28.8789C48.0419 28.8786 48.3047 28.9537 48.4745 29.0451C48.6451 29.1364 48.7255 29.235 48.7024 29.2863Z" fill="#263238"/>
<path d="M52.4856 30.0297C52.4024 30.1163 52.127 29.9876 51.7835 29.9457C51.4417 29.892 51.1415 29.9406 51.0851 29.8348C51.0608 29.7837 51.1169 29.6943 51.2538 29.6187C51.3886 29.5433 51.6062 29.4933 51.8419 29.5257C52.0773 29.5586 52.2731 29.6661 52.3822 29.7756C52.4934 29.8859 52.523 29.9873 52.4856 30.0297Z" fill="#263238"/>
<path d="M43.8704 31.8357C43.8266 31.8109 42.0734 31.0865 41.9332 32.9399C41.793 34.7931 43.6825 34.5515 43.6897 34.4987C43.697 34.4457 43.8704 31.8357 43.8704 31.8357Z" fill="#FFBE9D"/>
<path d="M43.1771 33.7712C43.1692 33.7648 43.143 33.7913 43.0866 33.8123C43.0316 33.8327 42.9389 33.8425 42.8447 33.7989C42.6543 33.7123 42.513 33.3889 42.5292 33.0541C42.5373 32.8852 42.5848 32.7271 42.6546 32.5986C42.7213 32.4674 42.8163 32.3791 42.9162 32.3691C43.0159 32.3537 43.0813 32.4182 43.1 32.4719C43.1209 32.5255 43.1064 32.5615 43.1159 32.5657C43.1207 32.5707 43.1581 32.5378 43.1489 32.4598C43.1441 32.4224 43.1257 32.3772 43.0846 32.3381C43.043 32.2984 42.9788 32.2753 42.9095 32.2775C42.766 32.2767 42.6272 32.3984 42.5504 32.5394C42.4658 32.6805 42.4085 32.8578 42.3993 33.0474C42.3828 33.4216 42.5476 33.7858 42.8098 33.8832C42.9377 33.9271 43.0494 33.8961 43.1089 33.8564C43.1704 33.8159 43.1832 33.7752 43.1771 33.7712Z" fill="#EB996E"/>
<path d="M54.6815 26.5917C54.7145 29.0109 51.6786 29.7876 50.4826 28.3449C49.9297 27.6778 49.465 26.8612 48.6688 26.5189C48.1329 26.2885 47.504 26.3418 46.9659 26.5674C46.9606 26.5697 46.9553 26.5719 46.9497 26.5741C46.156 26.9126 45.6375 27.7624 45.454 28.6052C45.1982 29.7806 45.3082 30.8429 44.9164 31.9099C44.8603 32.0632 44.7949 32.2277 44.6556 32.3129C44.4191 32.4573 44.106 32.2908 43.9371 32.0711C43.6665 31.7192 43.5969 31.2556 43.5659 30.8127C43.4953 29.804 43.5807 28.7758 43.9069 27.8188C44.2331 26.8618 44.8083 25.9776 45.6101 25.3613C46.6118 24.5911 47.9332 24.2781 49.1874 24.4331C50.4415 24.5878 51.622 25.1924 52.543 26.0575C52.9702 26.4588 53.3531 26.9296 53.5363 27.4865" fill="#263238"/>
<path d="M52.8203 25.1219C52.8203 25.1166 52.9141 25.1068 53.0758 25.1523C53.2361 25.1967 53.4606 25.314 53.662 25.5399C53.8602 25.7642 54.0334 26.1029 54.0504 26.5084C54.0677 26.9139 53.8999 27.3523 53.6028 27.7022C53.3042 28.0533 52.9163 28.2884 52.5402 28.4076C52.164 28.5308 51.8066 28.5582 51.5122 28.5548C51.2168 28.5487 50.9808 28.5132 50.82 28.4805C50.6591 28.4479 50.5728 28.4191 50.5745 28.4104C50.5784 28.3845 50.9347 28.464 51.5114 28.454C51.7982 28.4448 52.142 28.4074 52.4977 28.2831C52.8529 28.1633 53.2138 27.9388 53.4936 27.6101C53.7709 27.2831 53.9278 26.8801 53.9189 26.512C53.9105 26.1426 53.7605 25.8226 53.5849 25.605C53.4064 25.3861 53.2048 25.2626 53.0574 25.2046C52.9094 25.1456 52.8183 25.1361 52.8203 25.1219Z" fill="#455A64"/>
<path d="M51.6452 24.1769C51.6452 24.1696 51.7147 24.1615 51.8194 24.2215C51.9208 24.281 52.0453 24.4232 52.078 24.6393C52.1107 24.8563 52.0258 25.1096 51.8825 25.338C51.739 25.5664 51.5538 25.8013 51.3209 26.0082C50.8577 26.428 50.3246 26.6564 49.9314 26.7469C49.5362 26.8438 49.2818 26.8203 49.2824 26.8069C49.2801 26.7812 49.5287 26.7684 49.9045 26.6497C50.2796 26.5374 50.7817 26.304 51.2252 25.9024C51.4483 25.7047 51.6284 25.4821 51.7714 25.2682C51.913 25.0554 51.9937 24.8356 51.978 24.651C51.9624 24.4662 51.8675 24.3324 51.7876 24.2673C51.7052 24.2006 51.6424 24.1886 51.6452 24.1769Z" fill="#455A64"/>
<path d="M43.7915 50.5672L44.662 44.2169L32.18 46.7227L20.8228 42.7852L17.7552 45.9377L29.8412 52.1624C30.9188 52.677 32.1333 52.832 33.3057 52.6041L43.7915 50.5672Z" fill="#FFBE9D"/>
<path d="M20.8225 42.7853C20.8225 42.7853 16.4795 40.7076 16.2017 40.638C15.9875 40.5844 12.7073 40.4102 11.2136 40.3328C10.6207 40.3021 10.5327 41.1826 11.1211 41.2625C11.1393 41.265 11.158 41.2669 11.1773 41.2686C12.0111 41.3381 13.8472 41.7556 13.8472 41.7556L13.0134 43.7088C12.9279 43.9087 12.991 44.1411 13.1659 44.2704L15.6929 46.1391C16.367 46.4447 17.1528 46.3681 17.7549 45.9378L18.8689 46.166L20.8225 42.7853Z" fill="#FFBE9D"/>
<path d="M13.0008 43.821C13.0807 44.1868 13.9517 44.9335 14.6124 44.9316C14.757 44.9313 14.9064 44.8891 15.0109 44.7892C15.1153 44.6892 15.1636 44.5247 15.1036 44.3935C15.0642 44.3074 14.9869 44.246 14.9123 44.1879C14.4191 43.8051 13.9263 43.4219 13.4331 43.0391" fill="#FFBE9D"/>
<path d="M13.4328 43.0402C13.4451 43.0242 13.6802 43.184 14.0505 43.4548C14.2477 43.6017 14.4638 43.7631 14.6962 43.9366C14.8176 44.0329 14.9416 44.1136 15.0771 44.2368C15.143 44.299 15.2016 44.401 15.2016 44.5068C15.205 44.6115 15.1678 44.7121 15.105 44.7942C14.9709 44.9595 14.7637 45.0098 14.5886 45.0025C14.4105 44.9972 14.2479 44.9489 14.1041 44.8874C13.8157 44.7637 13.5875 44.5978 13.4146 44.4409C13.2415 44.2837 13.1228 44.1332 13.0597 44.017C12.9952 43.9003 12.9927 43.8221 13.0008 43.8218C13.0128 43.8193 13.0329 43.8863 13.1077 43.9866C13.1815 44.0871 13.3069 44.2211 13.4817 44.3627C13.6559 44.5037 13.8824 44.6543 14.1544 44.7632C14.2898 44.8173 14.4392 44.8576 14.5917 44.8601C14.7403 44.8659 14.9014 44.8173 14.9905 44.7048C15.0807 44.587 15.0824 44.4317 14.9757 44.3365C14.8685 44.2362 14.7283 44.1368 14.6143 44.0424C14.3887 43.86 14.179 43.6905 13.9877 43.5361C13.6336 43.2443 13.4205 43.0561 13.4328 43.0402Z" fill="#EB996E"/>
<path d="M16.5095 44.9509C16.4967 44.9626 16.4121 44.9014 16.3207 44.7618C16.2294 44.6238 16.1429 44.4018 16.1306 44.146C16.1191 43.89 16.185 43.661 16.2635 43.5152C16.3417 43.368 16.4202 43.299 16.4341 43.3097C16.471 43.3314 16.2484 43.6688 16.2758 44.1393C16.2917 44.6102 16.5442 44.926 16.5095 44.9509Z" fill="#EB996E"/>
<path d="M14.7726 43.944C14.9044 44.149 15.1773 44.2509 15.411 44.1825C15.6447 44.1141 15.8198 43.8812 15.8204 43.6377C15.8212 43.319 15.5663 43.0658 15.3297 42.8524C14.9673 42.5254 14.6048 42.1981 14.2423 41.8711" fill="#FFBE9D"/>
<path d="M14.2427 41.8722C14.2561 41.8574 14.4292 41.9892 14.6984 42.2143C14.8461 42.3411 15.002 42.4746 15.1662 42.6153C15.3368 42.7706 15.5426 42.9253 15.7143 43.1521C15.7978 43.2654 15.8649 43.3967 15.8839 43.5374C15.907 43.6765 15.8746 43.8209 15.8118 43.9317C15.687 44.1602 15.4435 44.2719 15.2522 44.2557C15.0592 44.2448 14.9246 44.1538 14.8542 44.0806C14.7819 44.0058 14.766 43.9488 14.773 43.9452C14.783 43.9385 14.8151 43.9834 14.8914 44.0379C14.9654 44.0918 15.0922 44.1563 15.2536 44.1529C15.4122 44.1538 15.5976 44.0552 15.6937 43.8684C15.7967 43.684 15.7526 43.4377 15.5971 43.2384C15.4457 43.0365 15.243 42.8759 15.0762 42.715C14.9196 42.5662 14.7707 42.4249 14.6294 42.2908C14.3781 42.0459 14.2293 41.887 14.2427 41.8722Z" fill="#EB996E"/>
<path d="M16.633 41.7109C15.7583 41.9187 14.9177 42.2703 14.1557 42.7473C14.1101 42.7757 14.0615 42.809 14.047 42.8606C14.0266 42.933 14.0822 43.0042 14.1409 43.0511C14.3651 43.2301 14.6742 43.2605 14.9602 43.2368C15.2462 43.2131 15.5288 43.1427 15.8158 43.1491C16.3124 43.16 16.772 43.3977 17.2507 43.5297C17.7296 43.6616 18.313 43.6585 18.6417 43.286" fill="#FFBE9D"/>
<path d="M18.6418 43.2843C18.6454 43.2876 18.63 43.3102 18.5965 43.3513C18.561 43.3904 18.5038 43.4451 18.4161 43.497C18.2441 43.6051 17.9447 43.6822 17.585 43.6453C17.2206 43.618 16.8243 43.444 16.3865 43.3155C16.1667 43.2524 15.9327 43.2069 15.6894 43.2211C15.4445 43.2329 15.189 43.294 14.9117 43.3119C14.638 43.3275 14.3429 43.2918 14.1169 43.1209C14.0614 43.079 14.001 43.0257 13.9773 42.9343C13.9659 42.8888 13.9745 42.8327 14.0005 42.793C14.0256 42.7528 14.0575 42.7282 14.0859 42.7087C14.1948 42.6397 14.2951 42.5816 14.3981 42.5227C14.807 42.2923 15.1954 42.1231 15.5277 42.0008C15.8603 41.8785 16.1371 41.8031 16.3295 41.7587C16.5222 41.7143 16.6311 41.7009 16.633 41.7095C16.6395 41.7338 16.2133 41.8321 15.5649 42.0966C15.2415 42.2298 14.8634 42.406 14.4646 42.6389C14.3663 42.6967 14.2613 42.7601 14.165 42.8226C14.1194 42.8556 14.1077 42.8765 14.1147 42.9028C14.1217 42.9338 14.1566 42.9754 14.2024 43.0067C14.3873 43.1457 14.6467 43.1815 14.9033 43.1667C15.1628 43.1505 15.4208 43.0902 15.6827 43.0787C15.9469 43.0653 16.1994 43.1181 16.4244 43.1868C16.8752 43.3278 17.2538 43.5054 17.5968 43.5431C17.938 43.5906 18.2192 43.5336 18.389 43.4473C18.5619 43.3633 18.6311 43.2734 18.6418 43.2843Z" fill="#EB996E"/>
<path d="M32.374 48.9189C32.3374 48.9286 32.1891 48.4332 32.1721 47.8004C32.152 47.1674 32.2712 46.6647 32.3083 46.672C32.3505 46.6784 32.2977 47.1794 32.3176 47.7962C32.3338 48.4128 32.4156 48.9102 32.374 48.9189Z" fill="#EB996E"/>
<path d="M43.2952 41.2646L39.7531 45.256C39.7531 45.256 37.8614 59.0388 37.7262 60.1198C37.5911 61.2008 37.2319 64.663 37.2319 65.6089C37.2319 66.5547 36.4467 73.3225 36.4467 73.3225C36.4467 73.3225 51.4752 76.443 53.9896 73.3225L53.2074 67.5279L53.8883 53.1529C53.8883 53.1529 55.0153 43.1753 49.7536 40.8594C49.7536 40.8594 46.4271 42.8647 43.2952 41.2646Z" fill="#055BC9"/>
<path d="M52.1664 42.2743C52.1664 42.2743 51.1295 41.2505 47.82 42.1078C44.3321 43.0115 42.4915 46.2763 43.3569 55.5195C44.0704 63.141 47.085 64.2382 47.085 64.2382C47.085 64.2382 45.4337 52.7411 45.7175 47.9317C46.0758 41.8571 52.1661 43.3695 52.1661 43.3695C53.0337 43.0889 52.1664 42.2743 52.1664 42.2743Z" fill="#263238"/>
<path d="M43.2952 41.2656L40.2334 42.109L33.3463 46.3252L35.3075 52.5529L39.3518 52.11L43.2952 41.2656Z" fill="#055BC9"/>
<path d="M39.311 45.5859C39.3509 45.5896 39.1766 47.8161 38.922 50.5581C38.667 53.301 38.428 55.5208 38.388 55.5172C38.3481 55.5136 38.5223 53.2876 38.7773 50.5447C39.032 47.8024 39.271 45.5823 39.311 45.5859Z" fill="#263238"/>
<path d="M53.3295 64.9427C53.3295 64.9427 52.3513 68.0849 48.8954 62.8968C45.4399 57.7088 45.9261 60.0289 45.9261 60.0289L45.2179 60.8714C45.2179 60.8714 49.0186 69.4326 53.2831 68.0908L53.3295 64.9427Z" fill="#263238"/>
<path opacity="0.3" d="M39.1717 47.0859L36.4464 52.427L38.6983 52.1804L39.1717 47.0859Z" fill="black"/>
<g opacity="0.3">
<path d="M37.922 61.2682C39.9192 63.4453 42.2977 65.272 44.9166 66.6398C46.0157 67.2136 47.2291 67.7191 48.459 67.5619C49.8097 67.389 50.9681 66.4094 51.6062 65.2063C52.2446 64.0033 52.153 63.4227 52.3052 62.0697C52.4727 60.5785 52.4733 58.5885 52.5518 57.2288C52.5657 56.9878 52.5702 56.7085 52.5702 56.4441C52.5699 55.8534 52.9558 55.3334 53.5216 55.1634C53.5216 55.1634 52.6978 54.7758 52.1457 54.8542C51.5936 54.9327 51.1756 55.3926 50.8865 55.8693C49.3545 58.3961 50.0217 62.1007 47.0976 63.674C46.1436 64.1873 45.0308 64.3085 43.9618 64.134C41.5691 63.7436 39.7369 62.1702 37.9723 60.6371" fill="black"/>
</g>
<path d="M41.2281 56.0359C41.96 56.0359 42.5534 54.2501 42.5534 52.0472C42.5534 49.8444 41.96 48.0586 41.2281 48.0586C40.4961 48.0586 39.9027 49.8444 39.9027 52.0472C39.9027 54.2501 40.4961 56.0359 41.2281 56.0359Z" fill="#FAFAFA"/>
<path d="M41.9371 121.411L42.2412 127.977C42.2412 127.977 35.67 130.491 35.608 131.71L48.3589 131.577L48.305 121.328L41.9371 121.411Z" fill="#055BC9"/>
<g opacity="0.6">
<path d="M46.1782 127.384C46.4256 127.448 46.599 127.724 46.5443 127.974C46.4896 128.224 46.2109 128.403 45.962 128.342C45.7135 128.282 45.4951 127.957 45.5775 127.715C45.6599 127.473 45.9986 127.281 46.2254 127.399" fill="white"/>
</g>
<path opacity="0.6" d="M48.359 131.577L48.3536 130.555L36.1048 131.057C36.1048 131.057 35.5396 131.31 35.608 131.709L48.359 131.577Z" fill="white"/>
<path d="M42.0338 127.911C42.0366 127.974 42.348 127.998 42.6566 128.196C42.9702 128.385 43.1307 128.653 43.188 128.627C43.2452 128.614 43.1486 128.243 42.7711 128.011C42.3955 127.776 42.0199 127.854 42.0338 127.911Z" fill="#263238"/>
<path d="M40.7023 128.479C40.6886 128.54 40.9595 128.643 41.1737 128.904C41.3957 129.158 41.4518 129.443 41.5138 129.439C41.5724 129.449 41.6118 129.083 41.3393 128.764C41.0695 128.442 40.7028 128.42 40.7023 128.479Z" fill="#263238"/>
<path d="M39.9592 130.093C40.0159 130.106 40.0994 129.794 39.936 129.454C39.7749 129.114 39.48 128.982 39.4543 129.034C39.4197 129.086 39.6107 129.267 39.7406 129.548C39.8768 129.825 39.8972 130.088 39.9592 130.093Z" fill="#263238"/>
<path d="M42.1306 126.41C42.1574 126.466 42.442 126.378 42.7941 126.398C43.1468 126.411 43.4219 126.526 43.4537 126.472C43.4892 126.427 43.2194 126.199 42.8044 126.181C42.3895 126.16 42.0993 126.362 42.1306 126.41Z" fill="#263238"/>
<path opacity="0.3" d="M41.9988 122.71L42.0516 123.88L48.3178 123.758L48.3148 122.703L41.9988 122.71Z" fill="black"/>
<path d="M42.0934 125.079C42.0931 125.105 42.3394 125.141 42.732 125.069C42.9275 125.033 43.1574 124.967 43.3981 124.857C43.5184 124.802 43.641 124.736 43.7628 124.659C43.8212 124.62 43.8904 124.582 43.9541 124.506C44.0225 124.441 44.0599 124.275 43.9792 124.175C43.9128 124.078 43.7969 124.036 43.705 124.035C43.6109 124.033 43.5349 124.053 43.4659 124.071C43.3244 124.107 43.1917 124.155 43.0702 124.211C42.8278 124.325 42.6312 124.467 42.4855 124.604C42.1925 124.881 42.0939 125.115 42.1154 125.126C42.1439 125.146 42.2858 124.95 42.5846 124.721C42.7334 124.607 42.9242 124.489 43.1509 124.394C43.2646 124.348 43.3869 124.307 43.5165 124.277C43.6511 124.24 43.7661 124.238 43.8013 124.298C43.8142 124.321 43.8159 124.33 43.7879 124.37C43.7592 124.406 43.7047 124.443 43.6472 124.481C43.5352 124.556 43.4224 124.621 43.3118 124.677C43.0906 124.79 42.8787 124.867 42.6969 124.92C42.3324 125.026 42.092 125.046 42.0934 125.079Z" fill="#263238"/>
<path d="M42.1756 125.173C42.1977 125.182 42.3188 124.958 42.3376 124.555C42.3462 124.355 42.323 124.112 42.2432 123.856C42.2027 123.729 42.1479 123.598 42.0765 123.47C42.0005 123.345 41.9075 123.178 41.6657 123.152C41.5394 123.149 41.4356 123.248 41.4007 123.333C41.3593 123.42 41.3518 123.494 41.3375 123.568C41.3158 123.717 41.3199 123.863 41.3414 123.998C41.3845 124.269 41.4978 124.494 41.621 124.655C41.8737 124.983 42.1343 125.055 42.1393 125.034C42.1597 125.002 41.9413 124.884 41.7475 124.569C41.652 124.413 41.5663 124.207 41.5392 123.971C41.5255 123.853 41.526 123.727 41.547 123.601C41.5654 123.466 41.6151 123.356 41.6662 123.369C41.7296 123.367 41.8385 123.469 41.8919 123.576C41.9586 123.69 42.0119 123.806 42.0536 123.921C42.1359 124.15 42.1731 124.371 42.184 124.557C42.2057 124.93 42.1415 125.164 42.1756 125.173Z" fill="#263238"/>
<path d="M54.2919 117.42L59.4475 121.497C59.4475 121.497 57.0361 128.106 57.9155 128.952L66.1776 119.239L58.4048 112.559L54.2919 117.42Z" fill="#055BC9"/>
<g opacity="0.6">
<path d="M61.5815 118.137C61.7929 117.993 62.1146 118.043 62.2674 118.248C62.4201 118.453 62.3724 118.781 62.1635 118.929C61.9549 119.077 61.5664 119.029 61.4377 118.808C61.3087 118.587 61.386 118.205 61.6242 118.112" fill="white"/>
</g>
<path opacity="0.6" d="M66.1775 119.236L65.4023 118.57L57.7487 128.147C57.7487 128.147 57.5689 128.739 57.9151 128.949L66.1775 119.236Z" fill="white"/>
<path d="M59.2642 121.615C59.3131 121.653 59.5362 121.434 59.8873 121.331C60.2355 121.218 60.5432 121.272 60.5617 121.213C60.5896 121.161 60.2458 120.991 59.823 121.124C59.3991 121.253 59.2117 121.588 59.2642 121.615Z" fill="#263238"/>
<path d="M58.8189 122.99C58.8557 123.04 59.111 122.903 59.4486 122.912C59.7865 122.912 60.0378 123.056 60.0761 123.007C60.1216 122.968 59.8717 122.699 59.4517 122.695C59.0319 122.688 58.7747 122.95 58.8189 122.99Z" fill="#263238"/>
<path d="M59.5461 124.606C59.593 124.571 59.412 124.304 59.0487 124.205C58.6859 124.103 58.3933 124.239 58.4156 124.293C58.4318 124.353 58.6938 124.328 58.9909 124.414C59.2897 124.493 59.5014 124.649 59.5461 124.606Z" fill="#263238"/>
<path d="M58.1921 120.552C58.2522 120.569 58.372 120.296 58.6183 120.043C58.8593 119.786 59.1268 119.654 59.1073 119.594C59.0964 119.537 58.7476 119.592 58.4616 119.893C58.1734 120.193 58.1352 120.544 58.1921 120.552Z" fill="#263238"/>
<path opacity="0.3" d="M55.3138 118.226L56.2318 118.953L60.2489 114.143L59.4508 113.453L55.3138 118.226Z" fill="black"/>
<path d="M57.1673 119.714C57.1865 119.731 57.3753 119.569 57.5786 119.225C57.6797 119.054 57.7802 118.837 57.8551 118.583C57.8922 118.456 57.9232 118.32 57.9444 118.178C57.9536 118.108 57.9698 118.031 57.955 117.934C57.9503 117.839 57.85 117.702 57.7213 117.697C57.6043 117.684 57.4973 117.744 57.4362 117.813C57.3731 117.882 57.3382 117.953 57.3063 118.017C57.2404 118.147 57.1901 118.279 57.1527 118.407C57.0793 118.665 57.0578 118.906 57.0656 119.106C57.0826 119.509 57.1943 119.737 57.2172 119.729C57.2513 119.72 57.196 119.485 57.2186 119.109C57.2301 118.922 57.2658 118.7 57.3432 118.467C57.3826 118.351 57.4323 118.232 57.4945 118.114C57.5551 117.989 57.6289 117.901 57.697 117.913C57.7227 117.918 57.7305 117.923 57.7422 117.97C57.7512 118.016 57.7428 118.081 57.7339 118.149C57.7168 118.283 57.692 118.41 57.6621 118.531C57.6021 118.772 57.5216 118.983 57.4423 119.155C57.2837 119.498 57.1407 119.693 57.1673 119.714Z" fill="#263238"/>
<path d="M57.2877 119.705C57.3093 119.695 57.2193 119.456 56.9269 119.178C56.7815 119.04 56.5835 118.899 56.338 118.791C56.2151 118.738 56.0808 118.693 55.9373 118.663C55.7929 118.639 55.6052 118.599 55.4279 118.765C55.3424 118.858 55.3497 119.002 55.3907 119.083C55.429 119.171 55.4801 119.226 55.5265 119.285C55.6248 119.4 55.7379 119.492 55.8538 119.564C56.0864 119.709 56.3305 119.771 56.5329 119.784C56.9462 119.808 57.171 119.658 57.1585 119.641C57.1481 119.605 56.9158 119.692 56.5505 119.632C56.3704 119.602 56.159 119.532 55.9627 119.397C55.8646 119.33 55.7703 119.247 55.6893 119.149C55.5991 119.046 55.5485 118.936 55.5921 118.907C55.6323 118.858 55.78 118.842 55.8962 118.872C56.0258 118.896 56.1487 118.932 56.2623 118.976C56.4896 119.064 56.6804 119.181 56.8278 119.295C57.1241 119.523 57.2587 119.725 57.2877 119.705Z" fill="#263238"/>
<path d="M39.9964 93.6313C39.9964 93.6313 40.3374 77.9507 39.9964 77.9507C39.6554 77.9507 37.2382 76.5703 37.2382 76.5703L34.2174 99.8749C34.2174 99.8749 33.9452 102.491 37.1826 104.335C40.42 106.179 54.8959 119.05 54.8959 119.05L59.7941 113.084C59.7941 113.084 50.2689 103.156 46.3777 99.8749C43.3335 97.3083 39.9964 93.6313 39.9964 93.6313Z" fill="#263238"/>
<path d="M48.8702 89.9778L49.2 87.495C49.2 87.495 51.5863 82.4767 51.927 80.3273C52.2679 78.1775 52.0429 73.5547 52.0429 73.5547H36.9772C36.9772 73.5547 37.042 90.5629 38.8599 95.3351C38.8599 95.3351 39.7829 104.468 39.9186 105.233C40.2065 106.857 41.2104 123.484 41.2104 123.484L48.8071 123.207C48.8071 123.207 49.4667 107.921 48.9395 103.582C48.6784 101.433 48.5546 99.1431 48.498 97.2486C48.4256 94.8182 48.5499 92.3884 48.8702 89.9778Z" fill="#263238"/>
<path d="M37.3891 78.5156C37.3916 78.5156 37.395 78.541 37.3989 78.5905C37.4025 78.6486 37.4072 78.7209 37.4128 78.8105C37.4226 79.0149 37.4357 79.2978 37.4528 79.6564C37.4812 80.3911 37.5354 81.454 37.6111 82.7662C37.7625 85.3912 38.0437 89.0129 38.4584 93.0032C38.8722 96.995 39.3171 100.601 39.6388 103.211C39.7974 104.508 39.9264 105.561 40.0172 106.303C40.0582 106.659 40.0906 106.94 40.1138 107.144C40.1225 107.233 40.1297 107.305 40.1353 107.363C40.1392 107.413 40.1403 107.438 40.1378 107.439C40.1353 107.439 40.1295 107.414 40.1208 107.365C40.1113 107.308 40.0996 107.236 40.0851 107.148C40.0552 106.945 40.0138 106.665 39.9613 106.31C39.8597 105.57 39.715 104.518 39.5371 103.224C39.1895 100.617 38.7281 97.0117 38.314 93.0178C37.8987 89.0255 37.6337 85.3993 37.5086 82.7712C37.4461 81.4573 37.4075 80.3934 37.3964 79.6578C37.391 79.2987 37.3869 79.0155 37.3838 78.8108C37.3838 78.7209 37.3841 78.6486 37.3841 78.5905C37.3849 78.5413 37.3866 78.5159 37.3891 78.5156Z" fill="#455A64"/>
<path d="M48.4833 98.6484C48.4883 98.6479 48.5034 98.7325 48.5274 98.8947C48.5517 99.0696 48.5844 99.3066 48.6257 99.6052C48.7017 100.223 48.7963 101.12 48.8824 102.23C49.0616 104.449 49.1971 107.524 49.2476 110.92C49.2876 114.318 49.2339 117.395 49.113 119.619C49.0561 120.731 48.9851 121.63 48.9251 122.25C48.8916 122.549 48.865 122.787 48.8452 122.962C48.8254 123.125 48.8125 123.21 48.8075 123.209C48.8025 123.209 48.8056 123.123 48.8159 122.959C48.8287 122.783 48.8463 122.545 48.8684 122.245C48.9108 121.624 48.9664 120.726 49.01 119.615C49.1044 117.392 49.1418 114.318 49.1019 110.922C49.0513 107.528 48.9323 104.456 48.7796 102.237C48.7067 101.127 48.6277 100.231 48.569 99.6113C48.5391 99.3117 48.5154 99.074 48.4981 98.8984C48.4836 98.7353 48.4783 98.6493 48.4833 98.6484Z" fill="#455A64"/>
<path d="M51.4464 41.9258C51.4464 41.9258 53.9123 42.5837 54.437 46.2579C54.962 49.9321 53.9894 50.9818 53.9894 50.9818C53.9894 50.9818 54.3898 44.1414 51.3258 43.2081L51.4464 42.0595" fill="#263238"/>
<path d="M34.6466 53.926L21.9166 53.6797L22.0652 54.2968L34.5849 54.4809L34.6466 53.926Z" fill="#263238"/>
<path d="M50.0795 43.0777C49.6056 42.9518 49.1035 43.0129 48.6514 43.2034C47.6195 43.6376 45.7323 44.8859 45.5977 48.4082C45.3807 54.0981 45.3807 54.0981 45.3807 54.0981L53.5217 55.1631C53.5217 55.1631 54.2128 44.1769 50.0795 43.0777Z" fill="#055BC9"/>
<path d="M35.1001 55.1337L45.4206 58.2377L45.5748 54.082L51.755 54.9824L51.4104 61.7393C51.3381 63.7215 49.9485 65.4104 48.0175 65.8634C46.9373 66.1166 45.8015 65.9527 44.8373 65.4045L33.8691 59.1684L35.1001 55.1337Z" fill="#FFBE9D"/>
<path d="M53.5216 55.1689C53.52 55.1669 53.5174 55.1343 53.5144 55.0717C53.5113 55.0019 53.5074 54.9114 53.5026 54.7975C53.494 54.5495 53.4814 54.2001 53.4658 53.7547C53.4367 52.8471 53.3954 51.5503 53.3446 49.9515C53.3214 49.1512 53.296 48.2757 53.2689 47.3363C53.2625 47.1014 53.2558 46.8624 53.2491 46.6197C53.2368 46.5005 53.2242 46.3804 53.2117 46.2595C53.1865 46.1402 53.1681 46.0185 53.1374 45.8987C53.0137 45.4197 52.7852 44.9536 52.4644 44.542C51.8221 43.7291 50.7883 43.11 49.6478 43.0893C49.0806 43.0748 48.5117 43.2485 48.0138 43.556C47.5137 43.8617 47.0909 44.301 46.7524 44.8003C46.2595 45.5203 45.9828 46.3499 45.8217 47.1726C45.6611 47.9987 45.6091 48.8239 45.5692 49.624C45.5237 51.2275 45.481 52.7335 45.4419 54.1055L45.3885 54.0432C47.8237 54.3755 49.8477 54.6517 51.273 54.8461C51.9793 54.9452 52.5367 55.0234 52.9276 55.0784C53.1131 55.1055 53.2588 55.1267 53.3666 55.1424C53.4669 55.1574 53.5197 55.1667 53.5216 55.1689C53.5239 55.1714 53.4753 55.1669 53.3792 55.1566C53.2739 55.1443 53.1318 55.1281 52.9508 55.1072C52.5624 55.06 52.0089 54.993 51.3074 54.9078C49.8698 54.7277 47.8287 54.4721 45.3726 54.1644L45.3179 54.1574L45.3193 54.1019C45.3531 52.7299 45.3776 51.2233 45.4299 49.6167C45.4678 48.8147 45.5181 47.983 45.6801 47.1444C45.842 46.3097 46.1246 45.4588 46.6315 44.7182C46.9797 44.2047 47.4162 43.7506 47.9376 43.4322C48.4548 43.1125 49.056 42.9299 49.6494 42.9463C50.843 42.9712 51.9064 43.6154 52.5694 44.4588C52.9003 44.8863 53.1351 45.3703 53.2608 45.8668C53.2921 45.9908 53.3108 46.1168 53.3359 46.2405C53.3482 46.3661 53.3605 46.491 53.3728 46.6147C53.3781 46.8601 53.3834 47.1017 53.3887 47.3393C53.408 48.2883 53.4258 49.173 53.4423 49.9814C53.47 51.5827 53.4926 52.8818 53.5085 53.791C53.5146 54.2298 53.5194 54.5741 53.5227 54.8181C53.5233 54.9279 53.5239 55.015 53.5241 55.0823C53.5244 55.1415 53.5233 55.1709 53.5216 55.1689Z" fill="#263238"/>
<path d="M35.3076 55.2502L32.8284 53.4169C32.3763 53.0826 31.6711 53.1505 31.1112 53.1C30.0006 53 28.169 53.6719 28.0991 53.7872L28.8476 54.3854L24.0287 54.2374C24.0287 54.2374 24.4431 55.2435 25.7905 55.3471C25.7905 55.3471 25.9461 56.4351 27.3449 56.6426C27.3449 56.6426 27.7076 57.5234 28.4848 57.7825C28.4848 57.7825 28.6404 58.7669 29.8839 58.7153L34.1043 59.1936L35.3076 55.2502Z" fill="#FFBE9D"/>
<path d="M28.8062 55.5291C28.804 55.5693 28.1207 55.5615 27.2801 55.5121C26.4395 55.4627 25.7601 55.3901 25.7623 55.3498C25.7646 55.3099 26.4479 55.3175 27.2885 55.3669C28.129 55.4163 28.8085 55.4889 28.8062 55.5291Z" fill="#EB996E"/>
<path d="M30.0241 56.6898C30.0241 56.73 29.4267 56.7624 28.6898 56.7624C27.9528 56.7624 27.3555 56.7297 27.3555 56.6898C27.3555 56.6496 27.9528 56.6172 28.6898 56.6172C29.4264 56.6169 30.0241 56.6496 30.0241 56.6898Z" fill="#EB996E"/>
<path d="M31.3348 57.7835C31.3348 57.8238 30.7375 57.8561 30.0006 57.8561C29.2636 57.8561 28.6663 57.8235 28.6663 57.7835C28.6663 57.7436 29.2636 57.7109 30.0006 57.7109C30.7375 57.7109 31.3348 57.7433 31.3348 57.7835Z" fill="#EB996E"/>
<path d="M46.1017 60.3455C46.0654 60.3608 45.8437 59.9135 45.6426 59.3332C45.4407 58.7529 45.3371 58.2647 45.3751 58.2541C45.4144 58.2429 45.5795 58.7098 45.78 59.2854C45.9797 59.8612 46.1397 60.3298 46.1017 60.3455Z" fill="#EB996E"/>
<path d="M46.8497 59.9433C46.8164 59.9676 46.483 59.5643 46.0705 59.07C45.6586 58.5749 45.3227 58.1742 45.3523 58.146C45.3808 58.1189 45.767 58.4777 46.1822 58.977C46.5981 59.4755 46.8815 59.9204 46.8497 59.9433Z" fill="#EB996E"/>
</svg>
