<svg width="48" height="49" viewBox="0 0 48 49" fill="none" xmlns="http://www.w3.org/2000/svg">
<path d="M0 8.04688C0 3.6286 3.58172 0.046875 8 0.046875H48V48.0469H8C3.58172 48.0469 0 44.4652 0 40.0469V8.04688Z" fill="#E9F4FF"/>
<path d="M28.2891 18.8275L20.578 26.5396C20.0457 27.072 20.0457 27.9352 20.578 28.4676C21.1103 29.0001 21.9734 29.0001 22.5057 28.4676L30.2168 20.7555C31.8137 19.1583 31.8137 16.5687 30.2168 14.9714C28.6198 13.3742 26.0305 13.3742 24.4335 14.9714L16.7225 22.6836C14.0608 25.3456 14.0608 29.6616 16.7225 32.3238C19.3842 34.9858 23.6996 34.9858 26.3612 32.3238L34.0723 24.6116L36 26.5396L28.2891 34.2518C24.5627 37.9786 18.5211 37.9786 14.7948 34.2518C11.0684 30.5249 11.0684 24.4825 14.7948 20.7555L22.5057 13.0434C25.1674 10.3814 29.4829 10.3814 32.1445 13.0434C34.8062 15.7055 34.8062 20.0215 32.1445 22.6836L24.4335 30.3958C22.8366 31.9929 20.2473 31.9929 18.6503 30.3958C17.0532 28.7985 17.0532 26.2089 18.6503 24.6116L26.3612 16.8995L28.2891 18.8275Z" fill="#055BC9"/>
</svg>
