<svg width="331" height="218" viewBox="0 0 331 218" fill="none" xmlns="http://www.w3.org/2000/svg">
<path d="M197.577 17.5178C197.31 17.1777 195.428 16.57 192.885 18.2792C190.341 19.9894 182.324 26.8271 181.048 27.8864C179.772 28.9456 166.871 40.9259 166.224 42.1141L197.577 17.5178Z" fill="url(#paint0_linear_303_8603)"/>
<path d="M188.258 22.0875C188.258 22.0875 171.879 15.8261 169.068 14.9293C166.258 14.0324 165.551 14.9964 165.636 15.1058C165.722 15.2141 182.496 26.6723 182.496 26.6723L188.258 22.0875Z" fill="url(#paint1_linear_303_8603)"/>
<path d="M180.045 24.9941C181.308 25.8574 181.494 27.4658 180.461 28.4027L182.497 26.6686L180.045 24.9941Z" fill="url(#paint2_linear_303_8603)"/>
<path d="M186.71 21.5059C186.71 21.5059 188.013 22.0702 188.694 21.5189L188.013 22.0702L186.71 21.5059Z" fill="url(#paint3_linear_303_8603)"/>
<path d="M169.764 38.4326C169.764 38.4326 164.56 37.121 163.775 36.9033C162.99 36.6856 162.548 37.4275 162.548 37.4275L167.405 40.7776L169.764 38.4326Z" fill="url(#paint4_linear_303_8603)"/>
<path d="M165.959 39.7812C166.613 40.2329 167.256 40.9803 166.405 41.8651L167.405 40.7777L165.959 39.7812Z" fill="url(#paint5_linear_303_8603)"/>
<path d="M184.974 17.3027L186.156 18.8104L187.339 20.3181C185.306 22.0652 182.109 23.2046 182.109 23.2046L181.518 22.4507L180.926 21.6969C180.926 21.6958 182.793 18.8613 184.974 17.3027Z" fill="url(#paint6_linear_303_8603)"/>
<path d="M197.577 17.5156C197.843 17.8557 197.986 19.8281 195.72 21.8914C193.454 23.9547 184.904 30.1133 183.572 31.1C182.24 32.0867 167.534 41.7664 166.225 42.1119L197.577 17.5156Z" fill="url(#paint7_linear_303_8603)"/>
<path d="M190.921 25.4805C190.921 25.4805 193.104 42.8784 193.307 45.8223C193.509 48.7662 192.405 49.2222 192.319 49.1139C192.233 49.0056 185.098 29.9862 185.098 29.9862L190.921 25.4805Z" fill="url(#paint8_linear_303_8603)"/>
<path d="M186.141 32.7667C185.603 31.3348 184.086 30.7716 182.929 31.5514L185.097 29.9863L186.141 32.7667Z" fill="url(#paint9_linear_303_8603)"/>
<path d="M191.117 27.1215C191.117 27.1215 190.88 25.7221 191.577 25.1914L190.88 25.7221L191.117 27.1215Z" fill="url(#paint10_linear_303_8603)"/>
<path d="M170.643 39.5527C170.643 39.5527 170.679 44.9185 170.704 45.733C170.729 46.5474 169.902 46.8009 169.902 46.8009L167.805 41.2857L170.643 39.5527Z" fill="url(#paint11_linear_303_8603)"/>
<path d="M168.428 42.9261C168.145 42.1831 167.572 41.3805 166.51 41.9968L167.804 41.2852L168.428 42.9261Z" fill="url(#paint12_linear_303_8603)"/>
<path d="M194.784 29.8073L193.602 28.3007L192.419 26.793C190.238 28.3516 188.37 31.1861 188.37 31.1861L188.962 31.9399L189.553 32.6937C189.554 32.6937 192.751 31.5543 194.784 29.8073Z" fill="url(#paint13_linear_303_8603)"/>
<path d="M181.259 40.6816L40.4516 133.481L24.6588 143.889V141.495L39.5927 131.879L181.259 40.6816Z" fill="url(#paint14_linear_303_8603)"/>
<path d="M171.186 29.168L33.9324 119.514L24.6588 125.619V123.383L33.2814 117.837L171.186 29.168Z" fill="url(#paint15_linear_303_8603)"/>
<path d="M330.873 91.816V213.067H116.455V120.055V95.87H123.404V108.19H132.255L135.757 113.942H139.31V84.1356H147.485V91.816H154.422V106.642H163.742V88.0392H171.096V95.8646H174.921L178.231 90.4274H181.999V72.3926H192.529V99.1584H203.294V105.609H207.467V95.87H223.373V106.642H229.456V91.816H238.736V113.942H239.279V84.1356H247.457V91.816H254.391V106.642H263.708V88.0392H271.063V95.8646H274.893L278.203 90.4274H281.968V72.3926H292.495V99.1584H303.266V105.609H307.439V95.87H315.813V106.642H329.423V91.816H330.873Z" fill="url(#paint16_linear_303_8603)"/>
<path d="M106.817 170.27V109.635H115.272V120.714H124.986L127.951 124.718H160.185L165.2 117.944H175.325V106.567H184.177V121.906H200.481L206.764 113.419H226.924V127.721H235.881L240.242 121.831H251.273L254.396 126.05H268.053V110.198H277.767V115.43H285.463V104.336H292.528V121.102H312.335L314.188 123.604H330.873V170.27H106.817Z" fill="url(#paint17_linear_303_8603)"/>
<path d="M129.043 132.262L130.726 134.913L132.279 137.361C132.276 137.348 132.172 136.978 131.997 135.904C131.963 135.701 131.927 135.471 131.889 135.214C131.879 135.138 131.861 135.063 131.841 134.989C131.176 133.456 129.121 132.302 129.046 132.263C129.044 132.262 129.043 132.262 129.043 132.262Z" fill="#EDE2D3"/>
<path d="M131.832 134.969C131.832 134.969 131.922 135.155 131.996 135.903L131.387 134.985C131.387 134.985 130.301 133.427 129.928 133.022C129.555 132.617 129.044 132.262 129.044 132.262C129.044 132.262 131.182 133.289 131.832 134.969Z" fill="#FFEF55"/>
<g opacity="0.38">
<path d="M121.231 35.5195C121.231 35.5195 119.594 35.8011 119.594 36.8885C119.594 37.976 120.139 39.8855 120.139 39.8855L120.685 41.9326L122.28 43.2973L122.868 42.4871C122.868 42.4871 123.507 41.912 124.096 41.8416C126.128 41.5968 126.143 41.0011 126.143 41.0011L127.917 40.023C127.917 40.023 128.6 38.6583 127.917 38.2489C127.235 37.8395 125.265 36.6112 125.09 36.6112C124.916 36.6112 123.961 34.0194 123.961 34.0194L121.96 31.291C121.96 31.291 120.55 32.4218 120.823 33.1529C121.096 33.884 121.505 34.1558 121.369 34.8382C121.231 35.5195 121.231 35.5195 121.231 35.5195Z" fill="url(#paint18_linear_303_8603)"/>
<path d="M160.833 73.0683C160.833 88.9098 154.429 103.25 144.06 113.651C143.299 110.52 143.183 108.656 142.076 106.885C140.936 105.059 134.881 96.3713 134.881 96.3713C134.881 96.3713 126.422 95.7973 125.278 95.3402C124.134 94.8864 118.191 94.4293 118.191 94.4293C118.191 94.4293 114.307 91.2266 113.392 87.7953C112.476 84.3683 113.146 86.0363 115.675 82.3093C116.839 80.6002 115.675 82.3093 119.106 78.1957C122.537 74.0788 121.602 74.7352 122.346 74.0409C123.198 73.247 128.438 74.0788 128.438 74.0788L130.385 73.6965C130.385 73.6965 131.108 73.6217 135.109 71.11C139.11 68.5939 144.138 70.6529 148.713 69.8503C153.284 69.0521 154.427 68.5939 158.541 67.3386C159.335 67.0971 159.947 66.8815 160.476 66.6562C160.713 68.764 160.833 70.902 160.833 73.0683Z" fill="url(#paint19_linear_303_8603)"/>
<path d="M86.9208 115.391C88.8671 118.838 89.7076 119.338 89.4076 120.414C89.1368 121.384 89.2538 124.295 89.2787 124.868C89.2874 124.938 89.2787 125.006 89.27 125.072C89.204 125.583 88.8953 127.904 88.8162 128.702C71.2612 124.131 56.975 111.472 50.1677 94.9439C50.2879 93.33 50.4298 91.4508 50.4753 90.8432C50.4839 90.7186 50.4709 90.5941 50.4417 90.4684C50.3247 90.019 50.0464 88.7095 50.1254 86.6548C50.2294 84.0684 48.5701 83.8972 48.6242 83.2398C48.6741 82.5823 47.6224 80.9653 47.8086 79.4392C47.9419 78.3658 46.8479 78.1795 46.1862 78.1622C46.1482 78.1622 46.1157 78.1578 46.0822 78.1535C45.9327 76.4779 45.858 74.7807 45.858 73.0672C45.858 55.666 53.5892 40.0703 65.8045 29.5273C65.0019 31.0708 64.378 32.9131 64.4116 34.8671C64.4203 35.2245 64.7734 35.6112 64.9694 35.9274C65.1232 36.1895 65.3691 36.3845 65.6637 36.4603C66.3125 36.6271 67.3068 36.9466 67.6512 37.0593C67.7346 37.0842 67.818 37.1004 67.9046 37.1091L72.7537 37.5294C73.1241 37.5586 73.4902 37.4091 73.7264 37.1178L74.7997 35.8245C75.7767 34.6472 76.4634 35.1216 76.8121 35.5668C77.0244 35.8375 77.3407 35.9989 77.6851 36.0076L84.6766 36.1657L86.5103 36.3033C87.4049 36.3661 88.1902 36.9185 88.5563 37.7384L89.2007 39.1605C89.6578 40.1754 89.5289 41.3603 88.8639 42.255L85.2875 47.0997C85.2041 47.208 85.1456 47.3282 85.1087 47.4571L83.3747 53.3503C83.1505 54.115 82.2223 54.4193 81.5865 53.933C80.5467 53.1304 79.2112 51.7744 78.6957 49.8486C78.5538 49.2995 77.7014 49.5031 77.2854 49.6363C77.123 49.6948 76.9486 49.7111 76.7786 49.6905C75.9922 49.5822 73.7134 49.1998 72.432 48.2933C71.5341 47.6564 70.8388 46.6426 70.4066 45.8931C70.099 45.357 69.4253 45.1696 68.8849 45.461L63.7065 48.2229C63.2159 48.4807 62.9873 49.046 63.153 49.5746C63.2939 50.0241 63.452 50.4898 63.6188 50.9556C63.739 51.2881 64.0098 51.5459 64.3466 51.6585C64.925 51.8502 65.8651 52.2575 66.3309 52.4654C66.5096 52.5445 66.6677 52.669 66.7847 52.8315C67.2548 53.4716 68.5318 55.2143 69.0766 55.9628C69.3549 56.3494 69.6549 56.8488 69.9171 57.3058C70.2496 57.8842 71.0023 58.0499 71.5558 57.6763C72.3086 57.1607 73.461 56.5823 74.895 56.5119C77.5443 56.383 74.895 56.5119 76.7168 58.6283C78.3718 60.5541 76.7796 62.2047 76.471 62.4874C76.4417 62.5167 76.4125 62.5372 76.3832 62.5622L69.8954 67.4069C69.708 67.8391 67.7118 67.9809 65.6279 70.0107C63.5484 72.0361 61.1406 71.8574 59.9135 73.5254C58.6863 75.1934 57.4093 74.6735 56.4454 75.8042C55.476 76.9318 53.5795 75.1056 53.3845 77.73C53.1852 80.3544 53.925 79.7013 53.5296 80.8786C52.6816 83.399 54.0831 84.4973 54.2867 84.7301C54.4903 84.963 54.2911 85.2836 54.8651 87.2505C55.4435 89.2175 54.6485 88.8644 55.4056 91.0891C56.1627 93.3138 58.0386 93.4806 58.6159 94.0124C59.19 94.5453 59.3557 94.9482 60.6251 95.663C61.8934 96.3822 64.0401 94.0947 65.5738 94.5323C67.1042 94.9774 67.9155 94.607 68.8838 94.7814C69.6203 94.9189 69.7113 94.3027 71.9197 94.6113C76.328 95.2265 74.3773 94.8605 76.328 95.2265C78.283 95.597 79.3553 93.995 80.6572 96.2122C81.9634 98.4325 87.3443 103.757 87.706 104.888C88.0635 106.015 88.6007 104.734 88.0635 106.015C87.5273 107.292 87.6887 107.966 87.3107 110.141C86.9338 112.314 84.9744 111.943 86.9208 115.391Z" fill="url(#paint20_linear_303_8603)"/>
<path d="M157.598 54.0125C157.273 53.4049 156.883 52.7853 156.429 52.4116C154.657 50.9397 154.657 52.116 154.749 53.2565C154.937 55.6307 156.671 56.3921 155.461 57.0788C154.251 57.7568 154.113 57.3495 153.02 55.2364C151.93 53.12 153.431 52.0293 152.201 50.7989C150.978 49.5761 151.518 46.9398 148.794 48.116C146.062 49.301 143.333 52.3001 144.427 53.6637C145.517 55.0317 146.744 59.1746 148.519 60.1721C150.291 61.1707 151.792 62.2604 150.154 62.3968C148.519 62.5344 148.108 66.7639 147.563 65.5368C147.018 64.3053 148.519 63.6283 146.744 61.1697C144.972 58.7121 139.379 53.2554 138.422 53.2554C137.466 53.2554 134.605 53.3929 133.511 54.619C132.421 55.8462 131.194 57.1806 130.92 57.8792C130.646 58.5735 130.782 59.1226 130.92 61.7134C131.057 64.3042 132.828 67.1701 132.283 68.2597C131.739 69.3536 132.146 70.7173 129.422 70.31C126.689 69.8984 122.281 73.9904 122.597 64.0345C122.785 58.0666 123.549 57.2098 124.094 55.2342C124.643 53.2543 125.055 52.0271 124.236 49.9768C123.413 47.9308 124.369 43.1727 126.553 42.4828C128.736 41.7929 128.329 42.7698 129.963 42.4828C131.602 42.2044 133.648 42.2499 134.605 40.9979C135.557 39.7458 136.651 38.9183 137.329 38.8555C138.015 38.7926 137.329 38.51 138.56 38.8555C139.787 39.201 141.562 39.4003 141.696 38.6854C141.833 37.9738 141.151 37.2925 141.151 36.7434C141.151 36.2982 141.517 35.1177 142.324 34.7061C141.996 32.6937 141.101 30.1267 138.693 29.4985C134.58 28.4338 131.532 25.5722 130.77 25.1736C130.005 24.774 130.005 22.9489 129.244 22.337C128.483 21.7261 121.317 20.8109 121.317 20.8109L116.443 18.831L110.982 16.082C132.673 18.9609 150.548 33.9414 157.598 54.0125Z" fill="url(#paint21_linear_303_8603)"/>
</g>
<path d="M151.183 33.554C151.183 31.8751 149.822 30.5137 148.143 30.5137C146.464 30.5137 145.103 31.8751 145.103 33.554C145.103 33.6124 145.105 33.6699 145.108 33.7262H145.103C145.103 36.0408 148.143 39.6681 148.143 39.6681C148.143 39.6681 151.183 36.0408 151.183 33.7262H151.178C151.182 33.6699 151.183 33.6114 151.183 33.554ZM148.143 35.523C147.056 35.523 146.174 34.6414 146.174 33.554C146.174 32.4665 147.056 31.5849 148.143 31.5849C149.231 31.5849 150.112 32.4665 150.112 33.554C150.113 34.6414 149.232 35.523 148.143 35.523Z" fill="#F5992C"/>
<path d="M127.21 83.0637C127.21 81.3849 125.849 80.0234 124.17 80.0234C122.491 80.0234 121.129 81.3849 121.129 83.0637C121.129 83.1222 121.132 83.1796 121.135 83.2359H121.129C121.129 85.5505 124.17 89.1779 124.17 89.1779C124.17 89.1779 127.21 85.5505 127.21 83.2359H127.205C127.208 83.1796 127.21 83.1222 127.21 83.0637ZM124.17 85.0339C123.082 85.0339 122.201 84.1522 122.201 83.0648C122.201 81.9774 123.082 81.0957 124.17 81.0957C125.257 81.0957 126.139 81.9774 126.139 83.0648C126.14 84.1512 125.257 85.0339 124.17 85.0339Z" fill="#6851FA"/>
<path d="M73.7608 53.7141C73.7608 52.0353 72.3993 50.6738 70.7205 50.6738C69.0417 50.6738 67.6802 52.0353 67.6802 53.7141C67.6802 53.7726 67.6824 53.83 67.6856 53.8863H67.6802C67.6802 56.2009 70.7205 59.8283 70.7205 59.8283C70.7205 59.8283 73.7608 56.2009 73.7608 53.8863H73.7554C73.7586 53.8289 73.7608 53.7715 73.7608 53.7141ZM70.7205 55.6832C69.6331 55.6832 68.7514 54.8016 68.7514 53.7141C68.7514 52.6267 69.6331 51.745 70.7205 51.745C71.8079 51.745 72.6896 52.6267 72.6896 53.7141C72.6907 54.8016 71.8079 55.6832 70.7205 55.6832Z" fill="#F5992C"/>
<path d="M60.6627 35.0559C60.6627 33.3771 59.3012 32.0156 57.6224 32.0156C55.9436 32.0156 54.5821 33.3771 54.5821 35.0559C54.5821 35.1144 54.5843 35.1718 54.5876 35.2281H54.5821C54.5821 37.5427 57.6224 41.1701 57.6224 41.1701C57.6224 41.1701 60.6627 37.5427 60.6627 35.2281H60.6573C60.6605 35.1718 60.6627 35.1144 60.6627 35.0559ZM57.6224 37.0261C56.535 37.0261 55.6533 36.1444 55.6533 35.057C55.6533 33.9696 56.535 33.0879 57.6224 33.0879C58.7099 33.0879 59.5915 33.9696 59.5915 35.057C59.5926 36.1444 58.7109 37.0261 57.6224 37.0261Z" fill="#9E3BFA"/>
<path d="M135.538 38.5637C135.538 36.8849 134.176 35.5234 132.497 35.5234C130.819 35.5234 129.457 36.8849 129.457 38.5637C129.457 38.6222 129.459 38.6796 129.462 38.7359H129.457C129.457 41.0505 132.497 44.6779 132.497 44.6779C132.497 44.6779 135.538 41.0505 135.538 38.7359H135.532C135.535 38.6796 135.538 38.6222 135.538 38.5637ZM132.497 40.5339C131.41 40.5339 130.528 39.6522 130.528 38.5648C130.528 37.4774 131.41 36.5957 132.497 36.5957C133.585 36.5957 134.466 37.4774 134.466 38.5648C134.466 39.6522 133.585 40.5339 132.497 40.5339Z" fill="white"/>
<path d="M84.9485 19.0966C84.0712 19.0966 83.2653 19.3988 82.6285 19.9068C81.554 17.7438 79.3217 16.2578 76.7429 16.2578C74.3622 16.2578 72.2772 17.524 71.1237 19.4205C70.8215 19.336 70.502 19.2905 70.1727 19.2905C69.4817 19.2905 68.8373 19.4887 68.2924 19.831C67.3057 18.2897 65.5771 17.2684 63.6112 17.2684C60.5406 17.2684 58.0517 19.7573 58.0517 22.8279H66.6353H69.1708H70.1727H73.7102H81.2172H83.313H88.6787C88.6798 20.7668 87.0096 19.0966 84.9485 19.0966Z" fill="#E6E6E6"/>
<path d="M125.07 50.6603C124.627 50.6603 124.203 50.7253 123.813 50.8445C123.299 49.5967 122.021 48.7129 120.525 48.7129C118.863 48.7129 117.469 49.8047 117.094 51.2755C116.807 51.1672 116.494 51.1066 116.166 51.1066C114.781 51.1066 113.659 52.1723 113.659 53.4883H117.326H118.671H121.539H123.724H128.6C128.6 51.9265 127.019 50.6603 125.07 50.6603Z" fill="#EBEBEB"/>
<path opacity="0.72" d="M171.472 86.1708H177.181C178.218 86.1708 179.061 85.3292 179.061 84.2905V78.5815C179.061 77.5428 178.219 76.7012 177.181 76.7012H171.472C170.434 76.7012 169.591 77.5428 169.591 78.5815V84.2905C169.592 85.3292 170.434 86.1708 171.472 86.1708Z" fill="#D9D9D9"/>
<path opacity="0.72" d="M214.39 67.0999H183.581C183.04 67.0999 182.603 66.6624 182.603 66.1219V65.1363C182.603 64.5958 183.04 64.1582 183.581 64.1582H214.39C214.93 64.1582 215.368 64.5958 215.368 65.1363V66.1219C215.368 66.6624 214.929 67.0999 214.39 67.0999Z" fill="#D9D9D9"/>
<path opacity="0.72" d="M218.957 71.8558H183.581C183.04 71.8558 182.603 71.4182 182.603 70.8777V69.8921C182.603 69.3516 183.04 68.9141 183.581 68.9141H218.957C219.498 68.9141 219.935 69.3516 219.935 69.8921V70.8777C219.935 71.4182 219.498 71.8558 218.957 71.8558Z" fill="#D9D9D9"/>
<path opacity="0.72" d="M171.472 72.7431H177.181C178.218 72.7431 179.061 71.9015 179.061 70.8628V65.1537C179.061 64.115 178.219 63.2734 177.181 63.2734H171.472C170.434 63.2734 169.591 64.115 169.591 65.1537V70.8628C169.592 71.9015 170.434 72.7431 171.472 72.7431Z" fill="#D9D9D9"/>
<path d="M174.002 83.7245L171.374 81.4413C171.159 81.2539 171.136 80.9279 171.323 80.7123C171.511 80.4968 171.837 80.474 172.052 80.6614L173.911 82.2763L176.551 79.3205C176.742 79.1082 177.068 79.0898 177.281 79.2794C177.495 79.47 177.512 79.796 177.323 80.0094L174.002 83.7245Z" fill="#5E51E3"/>
<path opacity="0.72" d="M206.381 80.5296H183.45C182.982 80.5296 182.601 80.1505 182.601 79.6815V78.436C182.601 77.9681 182.981 77.5879 183.45 77.5879H206.381C206.849 77.5879 207.229 77.967 207.229 78.436V79.6815C207.229 80.1505 206.849 80.5296 206.381 80.5296Z" fill="#D9D9D9"/>
<path opacity="0.72" d="M212.012 85.2844H183.483C182.997 85.2844 182.603 84.8901 182.603 84.4038V83.2243C182.603 82.738 182.997 82.3438 183.483 82.3438H212.012C212.499 82.3438 212.893 82.738 212.893 83.2243V84.4038C212.893 84.8901 212.499 85.2844 212.012 85.2844Z" fill="#D9D9D9"/>
<path opacity="0.72" d="M217.312 93.9593H183.624C183.06 93.9593 182.603 93.5022 182.603 92.9379V92.0389C182.603 91.4746 183.06 91.0176 183.624 91.0176H217.312C217.876 91.0176 218.333 91.4746 218.333 92.0389V92.9379C218.332 93.5022 217.875 93.9593 217.312 93.9593Z" fill="#D9D9D9"/>
<path opacity="0.72" d="M214.451 98.7132H183.519C183.013 98.7132 182.603 98.3027 182.603 97.7969V96.6878C182.603 96.182 183.013 95.7715 183.519 95.7715H214.451C214.957 95.7715 215.368 96.182 215.368 96.6878V97.7969C215.368 98.3038 214.957 98.7132 214.451 98.7132Z" fill="#D9D9D9"/>
<path opacity="0.72" d="M171.472 99.5985H177.181C178.218 99.5985 179.061 98.7569 179.061 97.7182V92.0092C179.061 90.9705 178.219 90.1289 177.181 90.1289H171.472C170.434 90.1289 169.591 90.9705 169.591 92.0092V97.7182C169.592 98.7569 170.434 99.5985 171.472 99.5985Z" fill="#D9D9D9"/>
<path d="M174.002 97.1522L171.374 94.869C171.159 94.6816 171.136 94.3556 171.323 94.1401C171.511 93.9245 171.837 93.9018 172.052 94.0892L173.911 95.7041L176.551 92.7483C176.742 92.536 177.068 92.5176 177.281 92.7071C177.495 92.8977 177.512 93.2237 177.323 93.4371L174.002 97.1522Z" fill="#5E51E3"/>
<path d="M174.002 70.2967L171.374 68.0135C171.159 67.8261 171.136 67.5001 171.323 67.2846C171.511 67.0691 171.837 67.0463 172.052 67.2337L173.911 68.8486L176.551 65.8928C176.742 65.6805 177.068 65.6621 177.281 65.8516C177.495 66.0423 177.512 66.3683 177.323 66.5817L174.002 70.2967Z" fill="#5E51E3"/>
<path d="M106.351 189.459H147.878C149.57 189.459 150.941 188.088 150.941 186.396V81.9087C150.941 80.2169 149.57 78.8457 147.878 78.8457H106.351C104.659 78.8457 103.288 80.2169 103.288 81.9087V186.396C103.286 188.088 104.658 189.459 106.351 189.459Z" fill="#5D58A3"/>
<path d="M104.439 190.309H154.617C156.309 190.309 157.68 188.938 157.68 187.246V80.9185C157.68 79.2267 156.309 77.8555 154.617 77.8555H104.439C102.747 77.8555 101.376 79.2267 101.376 80.9185V187.246C101.375 188.938 102.747 190.309 104.439 190.309Z" fill="url(#paint22_linear_303_8603)"/>
<path opacity="0.73" d="M152.985 81.9087V186.395C152.985 188.087 151.614 189.458 149.922 189.458H108.394C106.702 189.458 105.331 188.087 105.331 186.395V81.9087C105.331 80.2169 106.702 78.8457 108.394 78.8457H149.922C151.614 78.8457 152.985 80.2169 152.985 81.9087Z" fill="#756BFF"/>
<path d="M113.772 137.23H122.127V176.53H113.772V137.23ZM121.546 137.81H114.351V175.949H121.546V137.81Z" fill="#3E3257"/>
<path d="M108.435 189.458H127.463C129.205 189.458 130.617 188.045 130.617 186.304V155.039C130.617 153.297 129.205 151.885 127.463 151.885H108.435C106.693 151.885 105.281 153.297 105.281 155.039V186.304C105.28 188.045 106.692 189.458 108.435 189.458Z" fill="url(#paint23_linear_303_8603)"/>
<path d="M113.522 138.408H122.375V136.63H113.522V138.408Z" fill="#3E3257"/>
<path opacity="0.97" d="M156.807 82.2985V186.788C156.807 188.48 155.435 189.85 153.743 189.85H108.342C108.254 189.85 108.166 189.846 108.08 189.838C106.512 189.705 105.28 188.39 105.28 186.787V82.2985C105.28 80.6056 106.651 79.2344 108.342 79.2344H153.743C155.435 79.2344 156.807 80.6045 156.807 82.2985Z" fill="url(#paint24_linear_303_8603)"/>
<path opacity="0.95" d="M173.857 159.183H130.723C128.328 159.183 126.386 157.242 126.386 154.847V111.712C126.386 109.317 128.327 107.375 130.723 107.375H173.857C176.252 107.375 178.194 109.316 178.194 111.712V154.847C178.194 157.242 176.252 159.183 173.857 159.183Z" fill="url(#paint25_linear_303_8603)"/>
<path d="M143.567 135.932H140.049V132.416H140.697V135.283H143.567V135.932Z" fill="#4A45D1"/>
<path d="M164.531 135.932H161.012V135.283H163.882V132.416H164.531V135.932Z" fill="#4A45D1"/>
<path d="M140.697 114.97H140.049V111.453H143.567V112.102H140.697V114.97Z" fill="#4A45D1"/>
<path d="M164.531 114.97H163.882V112.102H161.012V111.453H164.531V114.97Z" fill="#4A45D1"/>
<path d="M164.842 152.994C161.694 152.994 159.133 150.433 159.133 147.285C159.133 144.138 161.695 141.576 164.842 141.576C167.99 141.576 170.552 144.138 170.552 147.285C170.552 150.433 167.99 152.994 164.842 152.994ZM164.842 142.681C162.304 142.681 160.238 144.746 160.238 147.285C160.238 149.824 162.304 151.89 164.842 151.89C167.381 151.89 169.447 149.824 169.447 147.285C169.447 144.746 167.381 142.681 164.842 142.681Z" fill="#4A45D1"/>
<path d="M164.477 149.534L161.884 146.94L162.665 146.159L164.477 147.971L167.018 145.43L167.8 146.212L164.477 149.534Z" fill="#4A45D1"/>
<path d="M154.034 137.938H150.533V138.586H154.034V137.938Z" fill="#4A45D1"/>
<path d="M154.381 145.152H134.011V146.408H154.381V145.152Z" fill="#4A45D1"/>
<path d="M143.668 148.164H134.011V149.419H143.668V148.164Z" fill="#4A45D1"/>
<path d="M158.44 129.124H146.846V114.141H158.44V129.124ZM147.063 128.908H158.223V114.357H147.063V128.908Z" fill="#4A45D1"/>
<path d="M158.589 129.957V132.807H157.962C157.846 132.032 157.15 131.435 156.307 131.435C155.466 131.435 154.768 132.032 154.652 132.807H154.29C154.174 132.032 153.477 131.435 152.635 131.435C151.792 131.435 151.092 132.032 150.976 132.807H150.635C150.519 132.032 149.823 131.435 148.98 131.435C148.139 131.435 147.438 132.032 147.322 132.807H146.698V129.957H158.589Z" fill="#4A45D1"/>
<path opacity="0.95" d="M119.07 127.578H93.9945C92.0135 127.578 90.4073 125.971 90.4073 123.99V98.9154C90.4073 96.9344 92.0135 95.3281 93.9945 95.3281H119.07C121.051 95.3281 122.657 96.9344 122.657 98.9154V123.99C122.657 125.971 121.051 127.578 119.07 127.578Z" fill="url(#paint26_linear_303_8603)"/>
<path d="M99.6727 116.689H96.7623V113.781H97.2985V116.153H99.6727V116.689Z" fill="#4A45D1"/>
<path d="M117.014 116.689H114.103V116.153H116.478V113.781H117.014V116.689Z" fill="#4A45D1"/>
<path d="M97.2985 101.687H96.7623V98.7793H99.6727V99.3154H97.2985V101.687Z" fill="#4A45D1"/>
<path d="M117.014 101.687H116.478V99.3154H114.103V98.7793H117.014V101.687Z" fill="#4A45D1"/>
<path d="M113.038 120.084H98.107V121.123H113.038V120.084Z" fill="#4A45D1"/>
<path d="M108.323 122.578H98.107V123.617H108.323V122.578Z" fill="#4A45D1"/>
<path d="M105.088 105.692C105.088 105.81 105.063 105.913 105.014 106C104.965 106.088 104.898 106.16 104.814 106.218C104.729 106.275 104.631 106.319 104.517 106.349C104.404 106.378 104.284 106.393 104.158 106.393H102.826V103.658H104.348C104.443 103.658 104.529 103.679 104.606 103.72C104.683 103.761 104.749 103.814 104.802 103.88C104.856 103.945 104.897 104.02 104.927 104.103C104.957 104.187 104.972 104.272 104.972 104.36C104.972 104.491 104.939 104.615 104.873 104.729C104.807 104.845 104.71 104.932 104.579 104.992C104.736 105.038 104.859 105.12 104.95 105.238C105.042 105.355 105.088 105.507 105.088 105.692ZM103.459 104.198V104.764H104.079C104.149 104.764 104.21 104.741 104.264 104.695C104.319 104.648 104.346 104.577 104.346 104.479C104.346 104.389 104.322 104.32 104.274 104.271C104.227 104.223 104.17 104.198 104.103 104.198H103.459ZM104.444 105.566C104.444 105.481 104.42 105.409 104.371 105.35C104.322 105.29 104.26 105.261 104.185 105.261H103.458V105.858H104.158C104.241 105.858 104.309 105.831 104.362 105.777C104.417 105.723 104.444 105.652 104.444 105.566Z" fill="#4A45D1"/>
<path d="M106.635 105.854C106.744 105.854 106.835 105.831 106.908 105.787C106.983 105.741 107.042 105.681 107.089 105.608C107.136 105.533 107.168 105.447 107.188 105.351C107.207 105.255 107.217 105.156 107.217 105.057V103.658H107.848V105.057C107.848 105.246 107.824 105.424 107.777 105.588C107.729 105.753 107.657 105.896 107.557 106.019C107.458 106.143 107.332 106.239 107.179 106.31C107.026 106.38 106.844 106.416 106.634 106.416C106.416 106.416 106.23 106.379 106.075 106.304C105.921 106.23 105.796 106.13 105.699 106.005C105.603 105.881 105.533 105.737 105.487 105.572C105.442 105.407 105.42 105.235 105.42 105.055V103.658H106.051V105.057C106.051 105.162 106.061 105.262 106.083 105.357C106.103 105.452 106.137 105.536 106.182 105.611C106.229 105.686 106.289 105.744 106.361 105.789C106.437 105.832 106.528 105.854 106.635 105.854Z" fill="#4A45D1"/>
<path d="M108.762 103.658L109.351 104.914L109.948 103.658H110.638L109.663 105.46V106.393H109.035V105.453L108.076 103.658H108.762Z" fill="#4A45D1"/>
<path d="M100.937 108.838H100.105V111.018H99.474V108.838H98.6378V108.283H100.937V108.838Z" fill="#4A45D1"/>
<path d="M101.246 111.016V108.281H101.877V111.016H101.246Z" fill="#4A45D1"/>
<path d="M102.243 109.627C102.243 109.462 102.274 109.299 102.336 109.136C102.397 108.974 102.487 108.828 102.605 108.699C102.723 108.57 102.867 108.466 103.036 108.387C103.205 108.308 103.398 108.268 103.614 108.268C103.87 108.268 104.093 108.323 104.282 108.433C104.47 108.544 104.611 108.688 104.703 108.864L104.218 109.203C104.188 109.132 104.148 109.072 104.101 109.025C104.053 108.977 104.001 108.939 103.945 108.909C103.889 108.88 103.831 108.859 103.772 108.847C103.712 108.835 103.655 108.83 103.598 108.83C103.478 108.83 103.372 108.855 103.282 108.903C103.192 108.952 103.118 109.015 103.059 109.092C102.999 109.169 102.956 109.256 102.928 109.354C102.9 109.451 102.886 109.55 102.886 109.651C102.886 109.759 102.902 109.863 102.936 109.963C102.969 110.062 103.017 110.151 103.081 110.228C103.144 110.305 103.219 110.366 103.308 110.411C103.397 110.457 103.497 110.478 103.607 110.478C103.663 110.478 103.722 110.472 103.783 110.457C103.843 110.442 103.901 110.421 103.956 110.392C104.011 110.362 104.062 110.323 104.109 110.276C104.155 110.228 104.192 110.17 104.22 110.1L104.737 110.405C104.696 110.504 104.635 110.594 104.554 110.674C104.472 110.754 104.379 110.82 104.274 110.875C104.169 110.929 104.058 110.97 103.94 110.998C103.822 111.026 103.706 111.04 103.593 111.04C103.395 111.04 103.214 111 103.048 110.919C102.882 110.838 102.741 110.731 102.62 110.597C102.501 110.464 102.408 110.312 102.343 110.142C102.276 109.973 102.243 109.801 102.243 109.627Z" fill="#4A45D1"/>
<path d="M105.051 111.016V108.281H105.682V109.46L106.684 108.281H107.392L106.368 109.502L107.462 111.016H106.741L105.967 109.915L105.682 110.211V111.016H105.051Z" fill="#4A45D1"/>
<path d="M109.588 110.462V111.016H107.666V108.281H109.553V108.836H108.298V109.368H109.377V109.88H108.298V110.462H109.588Z" fill="#4A45D1"/>
<path d="M112.058 108.838H111.226V111.018H110.594V108.838H109.758V108.283H112.058V108.838Z" fill="#4A45D1"/>
<path d="M114.006 109.083C113.998 109.073 113.971 109.053 113.925 109.025C113.878 108.997 113.821 108.968 113.751 108.936C113.682 108.906 113.606 108.879 113.524 108.855C113.442 108.833 113.359 108.821 113.277 108.821C113.051 108.821 112.938 108.896 112.938 109.048C112.938 109.095 112.95 109.133 112.975 109.164C113 109.194 113.035 109.222 113.083 109.246C113.131 109.271 113.19 109.293 113.262 109.313C113.333 109.334 113.417 109.357 113.512 109.383C113.643 109.418 113.761 109.457 113.866 109.5C113.971 109.542 114.061 109.595 114.134 109.658C114.207 109.721 114.264 109.798 114.303 109.887C114.343 109.977 114.362 110.086 114.362 110.211C114.362 110.365 114.333 110.495 114.276 110.602C114.218 110.708 114.141 110.795 114.046 110.86C113.951 110.925 113.842 110.973 113.719 111.003C113.595 111.032 113.469 111.047 113.338 111.047C113.237 111.047 113.135 111.04 113.029 111.025C112.924 111.01 112.821 110.987 112.721 110.958C112.622 110.928 112.524 110.893 112.431 110.851C112.337 110.81 112.25 110.763 112.171 110.708L112.448 110.157C112.458 110.17 112.492 110.194 112.548 110.231C112.604 110.267 112.675 110.302 112.758 110.339C112.842 110.375 112.935 110.407 113.038 110.436C113.14 110.464 113.244 110.478 113.35 110.478C113.573 110.478 113.684 110.41 113.684 110.274C113.684 110.223 113.667 110.18 113.634 110.147C113.601 110.114 113.555 110.084 113.496 110.058C113.436 110.03 113.367 110.006 113.286 109.983C113.204 109.96 113.117 109.934 113.021 109.906C112.896 109.867 112.786 109.826 112.694 109.78C112.602 109.736 112.525 109.684 112.465 109.624C112.404 109.566 112.36 109.498 112.329 109.421C112.3 109.344 112.285 109.254 112.285 109.151C112.285 109.007 112.312 108.88 112.366 108.77C112.42 108.659 112.493 108.566 112.586 108.49C112.678 108.414 112.785 108.357 112.908 108.319C113.03 108.28 113.159 108.262 113.294 108.262C113.39 108.262 113.483 108.27 113.576 108.289C113.668 108.307 113.757 108.33 113.841 108.358C113.926 108.386 114.005 108.419 114.078 108.455C114.152 108.49 114.219 108.527 114.281 108.563L114.006 109.083Z" fill="#4A45D1"/>
<path opacity="0.95" d="M126.254 83.3848H142.694C143.993 83.3848 145.046 84.4375 145.046 85.7362V102.177C145.046 103.475 143.993 104.528 142.694 104.528H126.254C124.955 104.528 123.902 103.475 123.902 102.177V85.7362C123.902 84.4375 124.955 83.3848 126.254 83.3848Z" fill="url(#paint27_linear_303_8603)"/>
<path d="M133.567 99.3887H128.627V100.07H133.567V99.3887Z" fill="#4A45D1"/>
<path d="M135.94 101.023H128.627V101.705H135.94V101.023Z" fill="#4A45D1"/>
<path d="M129.744 96.7003H127.835V94.793H128.186V96.3483H129.744V96.7003Z" fill="#4A45D1"/>
<path d="M141.113 96.7003H139.204V96.3483H140.761V94.793H141.113V96.7003Z" fill="#4A45D1"/>
<path d="M128.186 87.6992H127.835V85.793H129.744V86.145H128.186V87.6992Z" fill="#4A45D1"/>
<path d="M141.113 87.6992H140.761V86.145H139.204V85.793H141.113V87.6992Z" fill="#4A45D1"/>
<path d="M131.471 90.1027C131.446 90.0778 131.399 90.0432 131.333 89.9998C131.266 89.9565 131.185 89.9143 131.09 89.8731C130.994 89.832 130.89 89.7962 130.778 89.767C130.666 89.7377 130.552 89.7236 130.437 89.7236C130.231 89.7236 130.077 89.7615 129.976 89.8374C129.875 89.9132 129.825 90.0193 129.825 90.1569C129.825 90.2359 129.843 90.302 129.881 90.3551C129.919 90.4071 129.974 90.4537 130.047 90.4937C130.119 90.5338 130.21 90.5695 130.32 90.602C130.43 90.6345 130.557 90.6692 130.702 90.7049C130.889 90.7558 131.06 90.81 131.214 90.8674C131.368 90.9248 131.498 90.9974 131.604 91.084C131.71 91.1707 131.793 91.2747 131.85 91.396C131.907 91.5173 131.937 91.6657 131.937 91.8422C131.937 92.048 131.898 92.2235 131.82 92.3708C131.742 92.517 131.638 92.635 131.506 92.7249C131.373 92.8148 131.222 92.8809 131.051 92.9231C130.879 92.9643 130.7 92.986 130.512 92.986C130.223 92.986 129.938 92.9426 129.657 92.856C129.375 92.7693 129.123 92.6469 128.898 92.4877L129.229 91.8433C129.261 91.8758 129.32 91.918 129.404 91.97C129.489 92.022 129.59 92.0751 129.705 92.1271C129.821 92.179 129.949 92.2235 130.09 92.2592C130.231 92.2949 130.375 92.3133 130.523 92.3133C130.935 92.3133 131.141 92.1812 131.141 91.918C131.141 91.8346 131.117 91.7642 131.07 91.7068C131.024 91.6494 130.956 91.5985 130.87 91.5552C130.783 91.5118 130.678 91.4718 130.556 91.436C130.433 91.4003 130.296 91.3602 130.144 91.3169C129.96 91.266 129.801 91.2118 129.665 91.1512C129.53 91.0916 129.417 91.0212 129.327 90.94C129.238 90.8587 129.169 90.7645 129.125 90.6584C129.079 90.5522 129.057 90.4244 129.057 90.276C129.057 90.0811 129.092 89.9078 129.165 89.7561C129.238 89.6045 129.337 89.4778 129.466 89.377C129.594 89.2763 129.743 89.1994 129.912 89.1474C130.082 89.0954 130.264 89.0684 130.459 89.0684C130.73 89.0684 130.979 89.1106 131.207 89.1951C131.434 89.2796 131.632 89.3803 131.802 89.4962L131.471 90.1027Z" fill="#4A45D1"/>
<path d="M133.204 92.9951C133.066 92.9951 132.938 92.9724 132.819 92.928C132.7 92.8825 132.597 92.8196 132.51 92.7384C132.424 92.6572 132.357 92.5629 132.307 92.4546C132.258 92.3463 132.234 92.2272 132.234 92.0972C132.234 91.964 132.265 91.8394 132.324 91.7268C132.384 91.6141 132.467 91.5167 132.573 91.4376C132.679 91.3585 132.807 91.2957 132.956 91.2502C133.104 91.2047 133.266 91.1831 133.443 91.1831C133.57 91.1831 133.693 91.1939 133.813 91.2156C133.935 91.2372 134.042 91.2676 134.135 91.3076V91.1452C134.135 90.9578 134.082 90.8126 133.976 90.7119C133.87 90.6112 133.712 90.5603 133.501 90.5603C133.35 90.5603 133.201 90.5874 133.057 90.6415C132.913 90.6957 132.765 90.7747 132.613 90.8798L132.391 90.4195C132.756 90.1779 133.149 90.0566 133.572 90.0566C133.98 90.0566 134.296 90.1563 134.522 90.3567C134.747 90.557 134.86 90.8473 134.86 91.2264V92.1091C134.86 92.1849 134.873 92.2391 134.901 92.2716C134.928 92.3041 134.972 92.3225 135.034 92.3257V92.9431C134.912 92.968 134.804 92.981 134.715 92.981C134.577 92.981 134.472 92.9507 134.398 92.889C134.325 92.8272 134.278 92.746 134.26 92.6453L134.243 92.4882C134.117 92.6539 133.964 92.7807 133.783 92.8673C133.602 92.9518 133.409 92.9951 133.204 92.9951ZM133.409 92.4644C133.532 92.4644 133.649 92.4427 133.758 92.3994C133.869 92.3561 133.954 92.2987 134.016 92.2261C134.095 92.1644 134.135 92.0961 134.135 92.0203V91.6954C134.048 91.6629 133.954 91.6369 133.853 91.6174C133.753 91.5979 133.655 91.5871 133.561 91.5871C133.374 91.5871 133.22 91.6293 133.101 91.7149C132.982 91.7994 132.922 91.9066 132.922 92.0366C132.922 92.159 132.969 92.2618 133.063 92.3431C133.157 92.4232 133.272 92.4644 133.409 92.4644Z" fill="#4A45D1"/>
<path d="M135.533 88.9883H136.258V92.0318C136.258 92.1369 136.283 92.2181 136.334 92.2755C136.385 92.3329 136.457 92.3622 136.551 92.3622C136.594 92.3622 136.642 92.3546 136.695 92.3405C136.747 92.3264 136.797 92.308 136.844 92.2863L136.942 92.8387C136.844 92.8853 136.731 92.9221 136.601 92.947C136.471 92.972 136.354 92.9849 136.249 92.9849C136.021 92.9849 135.845 92.9243 135.72 92.8041C135.596 92.6828 135.533 92.5105 135.533 92.2863V88.9883Z" fill="#4A45D1"/>
<path d="M138.571 92.9953C138.344 92.9953 138.138 92.9563 137.954 92.8794C137.77 92.8015 137.612 92.6964 137.482 92.5621C137.353 92.4289 137.253 92.2729 137.181 92.0963C137.111 91.9198 137.076 91.7335 137.076 91.5385C137.076 91.336 137.111 91.1465 137.179 90.9677C137.247 90.789 137.347 90.632 137.477 90.4966C137.607 90.3612 137.765 90.254 137.951 90.1738C138.138 90.0948 138.346 90.0547 138.576 90.0547C138.807 90.0547 139.014 90.0948 139.196 90.1738C139.378 90.2529 139.534 90.3601 139.662 90.4933C139.789 90.6266 139.887 90.7825 139.954 90.9591C140.021 91.1356 140.054 91.3198 140.054 91.5115C140.054 91.558 140.053 91.6035 140.051 91.6469C140.048 91.6902 140.044 91.7259 140.038 91.7552H137.844C137.855 91.8667 137.882 91.9664 137.925 92.053C137.969 92.1397 138.025 92.2133 138.093 92.2751C138.162 92.3368 138.24 92.3834 138.326 92.4159C138.413 92.4484 138.503 92.4646 138.597 92.4646C138.741 92.4646 138.878 92.4289 139.006 92.3585C139.134 92.2881 139.222 92.1949 139.269 92.079L139.891 92.2523C139.786 92.4689 139.619 92.6466 139.391 92.7852C139.162 92.926 138.888 92.9953 138.571 92.9953ZM139.308 91.284C139.289 91.0706 139.211 90.9006 139.072 90.7728C138.934 90.645 138.765 90.58 138.567 90.58C138.469 90.58 138.378 90.5973 138.293 90.632C138.208 90.6666 138.133 90.7143 138.067 90.775C138.002 90.8367 137.949 90.9103 137.908 90.997C137.867 91.0836 137.842 91.179 137.836 91.284H139.308Z" fill="#4A45D1"/>
<path d="M81.7608 142.148C81.7608 142.148 79.5643 144.947 78.7899 146.799C78.0144 148.651 76.7233 152.71 76.8955 155.853C77.0677 158.996 78.101 164.896 77.7999 166.231C77.4988 167.567 77.1977 170.322 76.8739 171.27C76.5511 172.218 75.259 174.973 75.1301 177.815C75.0012 180.657 76.9388 193.145 76.8522 194.309C76.7666 195.471 79.0487 194.782 79.0487 194.782C79.0487 194.782 79.8243 183.499 80.2542 181.562C80.6853 179.624 81.202 173.035 81.5897 172.561C81.9775 172.088 83.0368 167.178 82.8732 166.402C82.7097 165.627 87.1017 154 87.3605 151.674C87.6194 149.349 92.3677 142.462 92.3677 142.462C92.3677 142.462 88.436 139.984 81.7608 142.148Z" fill="#8E693A"/>
<path d="M89.6837 142.15C89.6837 142.15 89.7952 143.323 89.9252 143.754C90.0541 144.185 93.0261 155.165 93.3272 159.386C93.6283 163.607 94.4038 167.186 94.5327 168.088C94.6616 168.989 94.4039 172.004 94.145 172.779C93.8861 173.554 95.4371 191.856 95.566 192.287C95.6949 192.718 94.5327 192.847 93.7139 192.718C92.8962 192.589 88.7619 179.282 89.0197 177.043C89.2786 174.804 89.5364 170.029 88.8042 168.089C88.072 166.148 81.4834 152.11 81.4401 151.249C81.399 150.386 78.5905 135.55 89.6837 142.15Z" fill="#8E693A"/>
<path d="M79.0078 193.409C79.0078 193.409 79.2201 194.896 79.4519 195.301C79.6837 195.706 80.3206 197.773 80.6108 198.159C80.9 198.545 81.538 201.44 80.6108 201.788C79.6837 202.136 77.5023 202.715 76.7691 201.556C76.0358 200.397 75.9383 199.24 76.0542 198.351C76.1701 197.463 77.0507 193.388 77.0387 192.984C77.0257 192.581 79.0078 193.409 79.0078 193.409Z" fill="#8E693A"/>
<path d="M80.2402 197.357C80.2402 197.357 80.3399 199.608 78.6405 199.608C76.9411 199.608 76.1883 197.56 76.1883 197.56C76.1883 197.56 75.6088 198.565 76.1883 200.709C76.7678 202.852 79.1809 202.408 79.7214 202.33C80.2619 202.253 82.8245 201.575 80.2402 197.357Z" fill="#18162E"/>
<path d="M95.3834 191.389C95.3834 191.389 96.5846 193.536 97.2973 193.972C98.1865 194.515 99.9108 196.254 100.514 196.335C101.116 196.415 103.283 196.8 102.864 198.023C102.522 199.025 97.3557 198.882 96.773 198.379C96.1903 197.876 94.4476 196.074 93.7447 196.114C93.0417 196.154 93.3027 198.714 93.3027 198.714H92.5392C92.5392 198.714 92.2727 196.224 92.2402 195.795C92.1449 194.528 93.0493 193.595 93.0894 192.873C93.1295 192.149 93.1706 191.61 93.1706 191.61L95.3834 191.389Z" fill="#18162E"/>
<path d="M100.341 196.277C100.341 196.277 98.6382 196.865 97.3276 196.112C96.017 195.358 93.501 194.215 92.6128 194.207C92.6128 194.207 93.0981 192.723 93.1078 192.558C93.1176 192.392 93.1706 191.61 93.1706 191.61L95.3693 191.258C95.3693 191.258 96.7958 193.353 97.424 193.845C98.0533 194.338 99.6639 195.569 100.341 196.277Z" fill="#8E693A"/>
<path d="M92.7828 141.954C92.7828 141.954 93.3969 144.506 93.6222 145.249C93.8486 145.992 94.0771 157.925 94.4346 165.133C94.4346 165.133 88.784 168.869 76.834 168.321C76.834 168.321 75.2668 153.78 76.3651 150.033C77.4633 146.287 78.9114 143.23 80.4115 142.149C81.7481 141.186 92.7828 141.954 92.7828 141.954Z" fill="#FACC46"/>
<path d="M70.0095 153.822C70.0095 153.822 70.1492 151.422 70.7839 151.05C71.4197 150.677 71.0515 151.42 71.0515 151.42C71.0515 151.42 70.694 153.161 70.6161 153.867C70.6128 153.901 70.0095 153.822 70.0095 153.822Z" fill="#1E1D54"/>
<path d="M72.9484 148.42C72.9484 148.42 73.126 149.496 73.452 150.532C73.778 151.569 74.078 151.899 73.947 152.494C73.8484 152.942 73.3415 153.279 73.2126 153.135C73.0848 152.991 73.0231 151.248 72.3007 151.256C71.5782 151.264 72.5173 153.416 72.0873 153.257C71.6573 153.099 70.0023 152.193 70.1063 151.314C70.2103 150.435 70.8731 149.8 70.8298 148.487C70.7908 147.296 71.1623 146.799 71.1623 146.799L72.9484 148.42Z" fill="#8E693A"/>
<path d="M72.3731 151.182C72.3731 151.182 73.3349 151.428 73.2775 154.681L72.1879 154.499C72.1879 154.499 72.2073 152.701 71.8824 151.721C71.8835 151.722 71.9387 151.085 72.3731 151.182Z" fill="#1E1D54"/>
<path d="M76.366 155.418L67.8831 153.012L67.908 163.459L76.3509 168.519L76.366 155.418Z" fill="#1E1D54"/>
<path d="M76.351 168.519L75.2885 168.715L67.0763 163.609L67.1782 153.059L67.8833 153.012L76.351 168.519Z" fill="#1E1D54"/>
<path d="M90.7483 105.298C92.3719 105.525 95.3678 106.676 93.8114 112.877C92.2549 119.078 88.294 119.078 86.6574 116.796C85.0209 114.514 85.5375 108.528 86.1841 107.494C86.8296 106.46 88.5951 104.997 90.7483 105.298Z" fill="#8E693A"/>
<path d="M94.4299 126.582C94.3335 128.1 93.558 129.359 93.4291 129.908C93.3002 130.457 93.4291 131.717 93.2678 132.976C93.1064 134.236 92.6222 140.243 92.7836 141.955C92.945 143.667 81.034 142.894 80.1297 142.377C80.1297 142.377 82.1356 138.789 82.1897 137.304C82.2081 136.794 82.5125 135.205 81.6731 134.042C81.2301 133.428 80.2564 131.772 79.4354 130.344C79.4354 130.344 79.4354 130.344 79.4343 130.343C79.1159 129.789 78.8202 129.269 78.5873 128.858V128.857C78.284 128.32 78.0869 127.97 78.0869 127.97C78.0869 127.97 77.6992 120.768 79.1527 120.025C80.6062 119.282 81.3806 119.153 82.8028 119.088C84.2238 119.023 85.1607 118.732 85.1607 118.732L88.4869 119.088C88.4869 119.088 90.6185 119.831 91.4579 119.896C92.2973 119.961 93.3631 121.768 93.2667 122.932C93.1703 124.095 94.5274 125.063 94.4299 126.582Z" fill="#FACC46"/>
<path d="M80.5687 119.42C80.5687 119.42 77.927 119.41 76.7323 121.736C75.5376 124.061 75.4077 126.515 75.1174 127.387C74.8271 128.259 73.8902 132.975 73.6 133.718C73.3097 134.461 71.7587 139.919 71.3395 142.761C70.9193 145.603 70.5857 148.445 70.5857 148.445L73.2815 148.502C73.2815 148.502 74.6657 141.946 75.4737 140.46C76.2817 138.974 76.637 134.525 76.9912 133.556C77.3464 132.586 79.543 125.771 79.9946 125.287C80.4463 124.803 82.8215 119.849 80.5687 119.42Z" fill="#FACC46"/>
<path d="M88.544 118.997C88.44 119.901 88.3025 121.226 88.3577 121.489C88.4444 121.898 85.2145 123.039 85.1604 118.732C85.1604 118.732 86.1373 115.422 85.7193 114.031C85.3012 112.639 88.648 118.13 88.648 118.13C88.648 118.13 88.6003 118.501 88.544 118.997Z" fill="#8E693A"/>
<path d="M93.8117 113.092C93.8117 113.092 91.0011 110.336 89.906 109.755C89.906 109.755 88.1157 111.417 86.8474 111.952C85.5801 112.487 85.6895 113.911 85.6895 113.911C85.6895 113.911 83.65 108.873 86.1661 106.525C88.6821 104.178 92.1697 105.104 93.4836 106.224C94.7963 107.344 94.9587 109.862 93.8117 113.092Z" fill="#18162E"/>
<path d="M89.6746 106.736C90.0005 105.355 89.1458 103.972 87.7655 103.646C86.3852 103.32 85.002 104.175 84.6761 105.555C84.3502 106.936 85.2049 108.319 86.5852 108.645C87.9655 108.971 89.3486 108.116 89.6746 106.736Z" fill="#18162E"/>
<path d="M96.2701 133.753C96.2701 133.753 95.1675 133.785 94.3985 133.76C93.8028 133.741 92.3904 134.123 92.0741 134.487C91.7568 134.852 90.9325 137.173 90.7332 137.339C90.534 137.505 90.9141 137.753 91.277 137.54C91.277 137.54 91.7806 138.419 92.6005 137.929C93.4204 137.44 93.8938 136.582 94.3313 136.374C94.7689 136.166 97.3315 135.063 97.3315 135.063C97.3315 135.063 96.9221 133.415 96.2701 133.753Z" fill="#8E693A"/>
<path d="M84.2051 118.943C84.2051 118.943 84.999 123.804 87.9386 123.256C90.8782 122.707 88.648 119.145 88.648 119.145C88.648 119.145 87.6418 118.022 84.2051 118.943Z" fill="#8E693A"/>
<path d="M103.452 132.858C101.643 134.15 97.3305 136.013 97.3305 136.013C97.3305 136.013 96.9081 133.902 96.4879 133.708C96.4879 133.708 99.8401 131.41 100.696 130.824C100.696 130.824 97.4692 128.627 95.5477 127.287C95.0744 126.956 94.6802 126.678 94.4332 126.497C94.3552 126.441 94.2913 126.392 94.2448 126.356C93.4595 125.742 90.2622 121.35 91.4579 119.896C91.4579 119.896 93.3837 120.052 94.7527 121.479C96.3438 123.137 98.1115 124.321 98.5956 124.66C99.0798 124.999 104.506 129.166 104.733 129.811C104.959 130.457 105.261 131.566 103.452 132.858Z" fill="#FACC46"/>
<path d="M94.434 126.497C94.434 126.497 94.6604 126.036 93.3834 123.678C93.4235 123.716 94.694 124.93 95.5485 127.288C95.0741 126.957 94.681 126.678 94.434 126.497Z" fill="#D1AB3B"/>
<path d="M95.9161 133.76C95.9161 133.76 96.4923 134.435 96.554 135.398C96.554 135.398 96.9353 135.284 97.023 135.196C97.023 135.196 96.867 134.293 96.488 133.707C96.488 133.707 96.4544 133.668 95.9161 133.76Z" fill="#EDE2D3"/>
<path d="M96.7941 133.912C96.7941 134.077 96.5927 134.211 96.3436 134.211C96.0944 134.211 95.893 134.077 95.893 133.912C95.893 133.748 96.0944 133.613 96.3436 133.613C96.5927 133.613 96.7941 133.747 96.7941 133.912Z" fill="#383632"/>
<path d="M87.341 110.772C87.2338 110.43 86.5558 110.143 86.2384 110.853C85.92 111.564 86.728 113.679 87.1796 113.162C87.6313 112.646 87.5999 111.596 87.341 110.772Z" fill="#8E693A"/>
<path d="M79.7029 125.85C79.7029 125.85 79.5773 128.755 79.4354 130.342C79.4354 130.342 79.4354 130.342 79.4343 130.341C79.1159 129.787 78.8202 129.267 78.5873 128.856V128.855L79.7029 125.85Z" fill="#D1AB3B"/>
<path d="M88.6484 118.131C88.6484 118.131 88.6008 118.501 88.5445 118.997C86.4866 118.018 86.2385 116.029 86.2385 116.029C87.2545 117.954 88.6484 118.131 88.6484 118.131Z" fill="#634229"/>
<path d="M197.981 155.293C197.981 155.293 197.612 155.897 197.566 156.39C197.529 156.78 197.201 157.362 197.059 157.685C196.917 158.008 196.46 159.465 196.444 159.844C196.437 159.999 196.783 160.977 196.734 161.289C196.685 161.601 196.505 162.22 196.787 162.262C197.068 162.304 197.386 161.796 197.386 161.796C197.386 161.796 197.359 162.084 197.597 162.193C198.059 162.406 198.303 162.219 198.303 162.219C198.303 162.219 198.473 162.535 198.688 162.579C199.159 162.673 199.391 162.483 199.391 162.483C199.391 162.483 199.599 162.661 199.925 162.655C200.342 162.647 200.516 162.286 200.516 162.286C200.516 162.286 201.044 162.393 201.198 162.147C201.35 161.901 201.324 161.637 201.387 161.414C201.451 161.191 201.402 159.176 200.718 157.725C200.033 156.274 200.892 154.859 200.892 154.859L197.981 155.293Z" fill="#EEC686"/>
<path d="M197.312 161.604C197.312 161.604 197.265 159.796 197.741 159.411C198.216 159.027 198.27 159.679 198.27 159.679C198.27 159.679 198.205 159.034 198.726 158.946C199.247 158.859 199.268 159.626 199.268 159.626C199.268 159.626 199.354 159.128 199.899 159.23C200.445 159.332 200.315 159.967 200.315 159.967C200.315 159.967 200.837 159.344 201.175 159.942C201.747 160.951 201.254 162.154 201.254 162.154C201.254 162.154 201.056 162.469 200.536 162.334C200.536 162.334 200.166 163.042 199.388 162.538C199.388 162.538 198.574 162.972 198.283 162.27C198.285 162.272 197.342 162.618 197.312 161.604Z" fill="#DBB77C"/>
<path d="M191.847 129.243C191.847 129.243 194.942 139.56 195.988 143.366C196.316 144.56 197.11 155.957 197.249 156.416C197.389 156.876 201.315 157.504 201.315 157.504C201.315 157.504 200.84 143.245 200.795 142.467C200.751 141.689 196.463 125.767 195.216 125.198C194.283 124.772 193.789 125.124 192.611 125.998C190.961 127.226 191.847 129.243 191.847 129.243Z" fill="#AE6BED"/>
<path d="M153.473 112.821C153.473 112.821 153.54 113.221 153.656 113.382C153.656 113.382 153.888 113.658 154.04 113.865C154.089 113.931 154.129 113.989 154.152 114.029C154.245 114.198 154.4 114.597 154.737 114.939C155.074 115.281 156.389 116.37 156.389 116.37L157.515 115.415L158.684 114.89C158.684 114.89 158.03 112.045 157.751 111.69C157.724 111.655 157.696 111.622 157.667 111.593C157.402 111.315 157.089 111.22 156.933 111.09C156.876 111.042 156.275 110.609 156.06 110.665C155.763 110.742 155.588 110.916 155.52 111.116C155.52 111.116 154.944 111.292 154.72 111.63C154.72 111.63 154.182 111.776 154.023 112.277C154.024 112.276 153.497 112.486 153.473 112.821Z" fill="#EFC888"/>
<path d="M194.358 199.686C194.358 199.686 194.641 201.645 194.675 201.939C194.711 202.234 197.814 201.766 197.814 201.766L198.066 199.434C198.066 199.434 194.746 199.41 194.358 199.686Z" fill="#524273"/>
<path d="M194.643 201.691C194.643 201.691 193.66 202.871 192.709 203.386C191.758 203.9 190.263 204.104 189.701 204.637C189.295 205.021 188.223 206.676 192.173 206.643C196.123 206.609 198.027 206.877 198.45 206.242C198.874 205.607 197.838 201.559 197.838 201.559C197.838 201.559 196.902 201.894 194.643 201.691Z" fill="#332947"/>
<path d="M172.12 199.686C172.12 199.686 172.402 201.645 172.437 201.939C172.473 202.234 175.576 201.766 175.576 201.766L175.828 199.434C175.828 199.434 172.508 199.41 172.12 199.686Z" fill="#524273"/>
<path d="M172.405 201.691C172.405 201.691 171.422 202.871 170.471 203.386C169.52 203.9 166.019 204.323 165.457 204.856C165.051 205.24 164.376 206.787 169.934 206.643C173.883 206.54 175.788 206.877 176.211 206.242C176.635 205.607 175.599 201.559 175.599 201.559C175.599 201.559 174.718 201.917 172.405 201.691Z" fill="#332947"/>
<path d="M191.788 149.359C191.788 149.359 194.704 153.993 194.488 158.181C194.27 162.37 195.545 166.943 195.983 171.317C196.472 176.194 198.47 187.741 198.543 190.351C198.615 192.96 198.233 201.291 198.233 201.291L194.232 201.383C194.232 201.383 190.872 181.196 190.001 179.136C189.132 177.076 184.815 162.391 184.67 160.744C184.525 159.095 191.788 149.359 191.788 149.359Z" fill="#332947"/>
<path d="M176.436 149.989C176.436 149.989 174.239 161.468 173.948 164.031C173.658 166.595 173.465 176.436 173.32 178.039C173.175 179.641 171.965 198.956 171.579 201.385H176.694C176.694 201.385 180.62 187.308 180.62 180.648C180.62 173.988 183.654 166.169 185.611 161.775C187.569 157.381 192.051 157.277 193.255 149.125C193.256 149.123 178.066 147.402 176.436 149.989Z" fill="#332947"/>
<path d="M186.922 110.406C186.922 110.406 183.008 108.943 181.203 111.923C179.399 114.903 179.572 120.867 181.546 121.602C183.519 122.335 186.482 121.952 187.493 120.088C188.503 118.223 189.415 115.528 189.371 113.726C189.327 111.925 187.95 110.926 186.922 110.406Z" fill="#EEC686"/>
<path d="M181.97 121.739C181.97 121.739 182.132 122.796 181.864 123.316C181.595 123.836 186.935 123.85 186.935 123.85C186.935 123.85 187.368 121.019 188.19 118.626C189.012 116.233 181.97 121.739 181.97 121.739Z" fill="#EEC686"/>
<path d="M188.19 118.626C188.19 118.626 187.821 119.234 186.317 118.999C184.812 118.763 182.977 116.761 182.348 116.541C181.72 116.321 181.714 115.952 181.714 115.952L181.32 116.526L180.653 116.568C180.653 116.568 181.262 114.778 180.344 114.047C179.425 113.317 181.297 108.251 186.122 109.937C186.122 109.937 189.828 110.959 189.693 113.067C189.559 115.175 189.019 117.575 188.19 118.626Z" fill="#D8AE51"/>
<path d="M181.547 123.252C181.547 123.252 181.564 122.258 182.015 122.162C182.465 122.067 186.992 121.632 187.545 121.849V123.008C187.545 123.007 186.478 123.663 181.547 123.252Z" fill="#E2D9CA"/>
<path d="M181.814 115.184C181.898 114.831 182.797 113.82 183.141 114.902C183.486 115.984 182.622 117.439 182.14 117.314C181.658 117.19 181.6 116.08 181.814 115.184Z" fill="#EEC686"/>
<path d="M174.061 124.76C177.164 124.35 181.547 123.253 181.547 123.253L187.545 123.008C187.545 123.008 193.049 124.22 195.218 125.2C195.423 125.293 195.425 130.11 195.989 131.374L194.192 135.166C194.192 135.166 193.153 142.678 192.938 146.018C192.839 147.552 195.079 160.398 195.079 160.398C195.079 160.398 192.679 161.106 188.585 161.556C184.492 162.008 174.263 161.393 174.199 160.91C174.134 160.426 176.18 142.906 176.27 141.999C176.408 140.606 175.79 133.206 175.79 133.206C174.844 132.473 166.547 128.621 164.282 126.613C163.676 126.076 161.119 123.586 160.391 122.726C157.817 119.682 155.707 117.071 155.45 116.508C155.159 116.187 158.378 114.469 158.658 114.376C158.903 114.294 162.252 118.842 163.592 120.292C164.189 120.939 166.671 122.744 166.671 122.744C166.671 122.744 172.12 124.87 174.061 124.76Z" fill="#AE6BED"/>
<path d="M188.037 110.758C188.037 110.758 193.028 111.149 188.191 118.626L188.037 110.758Z" fill="#D8AE51"/>
<defs>
<linearGradient id="paint0_linear_303_8603" x1="155.273" y1="49.0543" x2="206.795" y2="8.96996" gradientUnits="userSpaceOnUse">
<stop stop-color="white"/>
<stop offset="1" stop-color="#9D9CFF"/>
</linearGradient>
<linearGradient id="paint1_linear_303_8603" x1="148.679" y1="40.5786" x2="200.201" y2="0.494087" gradientUnits="userSpaceOnUse">
<stop stop-color="white"/>
<stop offset="1" stop-color="#9D9CFF"/>
</linearGradient>
<linearGradient id="paint2_linear_303_8603" x1="153.858" y1="47.2343" x2="205.381" y2="7.14898" gradientUnits="userSpaceOnUse">
<stop stop-color="white"/>
<stop offset="1" stop-color="#9D9CFF"/>
</linearGradient>
<linearGradient id="paint3_linear_303_8603" x1="160.597" y1="46.7065" x2="205.383" y2="5.07738" gradientUnits="userSpaceOnUse">
<stop stop-color="white"/>
<stop offset="1" stop-color="#9D9CFF"/>
</linearGradient>
<linearGradient id="paint4_linear_303_8603" x1="158.82" y1="44.7965" x2="203.607" y2="3.16628" gradientUnits="userSpaceOnUse">
<stop stop-color="white"/>
<stop offset="1" stop-color="#9D9CFF"/>
</linearGradient>
<linearGradient id="paint5_linear_303_8603" x1="160.25" y1="46.3376" x2="205.04" y2="4.70478" gradientUnits="userSpaceOnUse">
<stop stop-color="white"/>
<stop offset="1" stop-color="#9D9CFF"/>
</linearGradient>
<linearGradient id="paint6_linear_303_8603" x1="168.697" y1="32.6696" x2="197.41" y2="9.87209" gradientUnits="userSpaceOnUse">
<stop stop-color="white"/>
<stop offset="1" stop-color="#9D9CFF"/>
</linearGradient>
<linearGradient id="paint7_linear_303_8603" x1="156.674" y1="50.8524" x2="208.195" y2="10.768" gradientUnits="userSpaceOnUse">
<stop stop-color="white"/>
<stop offset="1" stop-color="#9D9CFF"/>
</linearGradient>
<linearGradient id="paint8_linear_303_8603" x1="163.303" y1="59.3746" x2="214.825" y2="19.2901" gradientUnits="userSpaceOnUse">
<stop stop-color="white"/>
<stop offset="1" stop-color="#9D9CFF"/>
</linearGradient>
<linearGradient id="paint9_linear_303_8603" x1="158.119" y1="52.711" x2="209.64" y2="12.6276" gradientUnits="userSpaceOnUse">
<stop stop-color="white"/>
<stop offset="1" stop-color="#9D9CFF"/>
</linearGradient>
<linearGradient id="paint10_linear_303_8603" x1="164.569" y1="50.9864" x2="209.362" y2="9.35095" gradientUnits="userSpaceOnUse">
<stop stop-color="white"/>
<stop offset="1" stop-color="#9D9CFF"/>
</linearGradient>
<linearGradient id="paint11_linear_303_8603" x1="163.133" y1="49.4388" x2="207.925" y2="7.80472" gradientUnits="userSpaceOnUse">
<stop stop-color="white"/>
<stop offset="1" stop-color="#9D9CFF"/>
</linearGradient>
<linearGradient id="paint12_linear_303_8603" x1="161.664" y1="47.8565" x2="206.453" y2="6.22444" gradientUnits="userSpaceOnUse">
<stop stop-color="white"/>
<stop offset="1" stop-color="#9D9CFF"/>
</linearGradient>
<linearGradient id="paint13_linear_303_8603" x1="176.196" y1="42.1167" x2="204.91" y2="19.319" gradientUnits="userSpaceOnUse">
<stop stop-color="white"/>
<stop offset="1" stop-color="#9D9CFF"/>
</linearGradient>
<linearGradient id="paint14_linear_303_8603" x1="160.683" y1="48.2897" x2="194.366" y2="23.3157" gradientUnits="userSpaceOnUse">
<stop stop-color="white"/>
<stop offset="1" stop-color="#9D9CFF"/>
</linearGradient>
<linearGradient id="paint15_linear_303_8603" x1="151.81" y1="36.3212" x2="185.493" y2="11.3472" gradientUnits="userSpaceOnUse">
<stop stop-color="white"/>
<stop offset="1" stop-color="#9D9CFF"/>
</linearGradient>
<linearGradient id="paint16_linear_303_8603" x1="223.664" y1="84.0053" x2="223.664" y2="126.202" gradientUnits="userSpaceOnUse">
<stop stop-color="#EDEDED"/>
<stop offset="1" stop-color="white"/>
</linearGradient>
<linearGradient id="paint17_linear_303_8603" x1="218.845" y1="102.096" x2="218.845" y2="137.387" gradientUnits="userSpaceOnUse">
<stop stop-color="#D4D4D4"/>
<stop offset="1" stop-color="white"/>
</linearGradient>
<linearGradient id="paint18_linear_303_8603" x1="103.282" y1="-5.55549" x2="167.816" y2="134.216" gradientUnits="userSpaceOnUse">
<stop stop-color="#405DE6"/>
<stop offset="1" stop-color="#7D55FF"/>
</linearGradient>
<linearGradient id="paint19_linear_303_8603" x1="99.4674" y1="-3.79463" x2="164.001" y2="135.976" gradientUnits="userSpaceOnUse">
<stop stop-color="#405DE6"/>
<stop offset="1" stop-color="#7D55FF"/>
</linearGradient>
<linearGradient id="paint20_linear_303_8603" x1="47.9388" y1="19.9981" x2="112.472" y2="159.768" gradientUnits="userSpaceOnUse">
<stop stop-color="#405DE6"/>
<stop offset="1" stop-color="#7D55FF"/>
</linearGradient>
<linearGradient id="paint21_linear_303_8603" x1="108.415" y1="-7.92536" x2="172.949" y2="131.845" gradientUnits="userSpaceOnUse">
<stop stop-color="#405DE6"/>
<stop offset="1" stop-color="#7D55FF"/>
</linearGradient>
<linearGradient id="paint22_linear_303_8603" x1="101.375" y1="134.082" x2="157.68" y2="134.082" gradientUnits="userSpaceOnUse">
<stop stop-color="#405DE6"/>
<stop offset="1" stop-color="#7D55FF"/>
</linearGradient>
<linearGradient id="paint23_linear_303_8603" x1="105.28" y1="170.671" x2="130.617" y2="170.671" gradientUnits="userSpaceOnUse">
<stop stop-color="#405DE6"/>
<stop offset="1" stop-color="#7D55FF"/>
</linearGradient>
<linearGradient id="paint24_linear_303_8603" x1="131.044" y1="86.6674" x2="131.044" y2="227.082" gradientUnits="userSpaceOnUse">
<stop stop-color="white"/>
<stop offset="1" stop-color="white"/>
</linearGradient>
<linearGradient id="paint25_linear_303_8603" x1="152.29" y1="185.476" x2="152.29" y2="109.924" gradientUnits="userSpaceOnUse">
<stop stop-color="#D3D1E0"/>
<stop offset="1" stop-color="#F4EBFF"/>
</linearGradient>
<linearGradient id="paint26_linear_303_8603" x1="108.835" y1="153.201" x2="106.317" y2="107.556" gradientUnits="userSpaceOnUse">
<stop stop-color="#D3D1E0"/>
<stop offset="1" stop-color="#F4EBFF"/>
</linearGradient>
<linearGradient id="paint27_linear_303_8603" x1="134.829" y1="119.178" x2="134.514" y2="96.8276" gradientUnits="userSpaceOnUse">
<stop stop-color="#D3D1E0"/>
<stop offset="1" stop-color="#F4EBFF"/>
</linearGradient>
</defs>
</svg>
