<svg width="640" height="331" viewBox="0 0 640 331" fill="none" xmlns="http://www.w3.org/2000/svg">
<rect x="639.999" y="330.047" width="640" height="330" transform="rotate(180 639.999 330.047)" fill="url(#paint0_linear_550_21381)"/>
<path d="M83.1361 261.185C77.7221 261.185 72.6343 260.157 67.8726 258.101C63.1109 256.045 58.9688 253.257 55.4465 249.737C51.9241 246.217 49.1362 242.075 47.0828 237.311C45.0294 232.547 44.0014 227.459 43.9988 222.048C43.9962 216.636 45.0242 211.548 47.0828 206.784C49.1414 202.02 51.9293 197.878 55.4465 194.358C58.9636 190.838 63.1056 188.05 67.8726 185.994C72.6395 183.938 77.7273 182.91 83.1361 182.91C93.0509 182.91 101.645 186.106 108.92 192.499C116.194 198.891 120.515 206.849 121.882 216.373C120.578 215.72 119.225 215.215 117.824 214.858C116.422 214.501 114.97 214.288 113.468 214.22C112.228 209.458 109.993 205.218 106.763 201.5C103.533 197.782 99.5712 194.978 94.8773 193.086V202.479H79.2224V214.22H67.4812V222.048H94.3881V224.102C93.2792 225.863 92.4312 227.722 91.8442 229.679C91.2571 231.636 90.9636 233.658 90.9636 235.746C90.9636 239.855 92.0242 243.671 94.1455 247.193C96.2667 250.716 98.4349 254.01 100.65 257.075C97.9757 258.38 95.1709 259.391 92.2356 260.109C89.3003 260.826 86.2671 261.185 83.1361 261.185ZM79.2224 253.162V245.53H71.3949V233.789L52.609 215.003C52.4133 216.177 52.2346 217.351 52.0728 218.525C51.9111 219.699 51.8289 220.873 51.8263 222.048C51.8263 229.94 54.4198 236.854 59.6068 242.79C64.7938 248.726 71.3323 252.183 79.2224 253.162ZM112.489 261.185C112.033 261.185 111.641 261.054 111.315 260.793C110.989 260.533 110.761 260.206 110.63 259.815C109.913 257.532 108.902 255.412 107.597 253.455C106.292 251.498 104.89 249.574 103.39 247.682C102.02 245.987 100.911 244.127 100.063 242.105C99.2151 240.083 98.7911 237.963 98.7911 235.746C98.7911 231.962 100.128 228.733 102.803 226.059C105.477 223.385 108.706 222.048 112.489 222.048C116.272 222.048 119.501 223.385 122.176 226.059C124.85 228.733 126.187 231.962 126.187 235.746C126.187 237.963 125.748 240.068 124.868 242.058C123.989 244.049 122.896 245.924 121.589 247.682C120.088 249.574 118.686 251.498 117.381 253.455C116.077 255.412 115.066 257.532 114.348 259.815C114.218 260.206 113.989 260.533 113.663 260.793C113.337 261.054 112.946 261.185 112.489 261.185ZM112.489 250.129C113.141 249.02 113.859 247.993 114.642 247.048C115.424 246.104 116.175 245.141 116.892 244.16C117.805 242.921 118.605 241.601 119.291 240.199C119.977 238.798 120.319 237.314 120.317 235.746C120.317 233.593 119.551 231.751 118.019 230.219C116.488 228.688 114.644 227.921 112.489 227.918C110.334 227.915 108.492 228.683 106.963 230.219C105.434 231.756 104.667 233.598 104.662 235.746C104.662 237.311 105.005 238.796 105.691 240.199C106.377 241.603 107.176 242.923 108.086 244.16L110.387 247.048C111.136 247.996 111.837 249.022 112.489 250.129ZM112.489 240.638C111.119 240.638 109.961 240.164 109.014 239.217C108.067 238.27 107.594 237.113 107.597 235.746C107.6 234.378 108.073 233.22 109.018 232.27C109.962 231.32 111.119 230.848 112.489 230.853C113.859 230.859 115.017 231.332 115.965 232.274C116.912 233.216 117.384 234.373 117.381 235.746C117.379 237.118 116.905 238.276 115.961 239.221C115.016 240.165 113.859 240.638 112.489 240.638Z" fill="white"/>
<path d="M179.347 227.667H166.923V219.83H179.347C181.267 219.83 182.83 219.518 184.036 218.893C185.241 218.245 186.123 217.352 186.681 216.214C187.239 215.075 187.518 213.791 187.518 212.363C187.518 210.911 187.239 209.561 186.681 208.31C186.123 207.06 185.241 206.056 184.036 205.297C182.83 204.537 181.267 204.158 179.347 204.158H170.406V245.047H160.36V196.288H179.347C183.165 196.288 186.436 196.98 189.159 198.365C191.905 199.726 194.004 201.613 195.455 204.024C196.906 206.435 197.632 209.192 197.632 212.296C197.632 215.443 196.906 218.167 195.455 220.467C194.004 222.766 191.905 224.541 189.159 225.791C186.436 227.041 183.165 227.667 179.347 227.667ZM223.116 236.876V220.735C223.116 219.574 222.926 218.58 222.547 217.754C222.167 216.906 221.576 216.247 220.772 215.778C219.991 215.309 218.975 215.075 217.725 215.075C216.653 215.075 215.726 215.265 214.945 215.644C214.164 216.002 213.561 216.526 213.137 217.218C212.713 217.888 212.5 218.681 212.5 219.596H202.856C202.856 218.056 203.213 216.593 203.928 215.209C204.642 213.825 205.68 212.608 207.042 211.559C208.404 210.487 210.022 209.65 211.898 209.047C213.795 208.444 215.916 208.143 218.26 208.143C221.073 208.143 223.574 208.612 225.762 209.55C227.95 210.487 229.669 211.894 230.919 213.769C232.191 215.644 232.828 217.989 232.828 220.802V236.306C232.828 238.293 232.95 239.923 233.196 241.196C233.442 242.446 233.799 243.54 234.268 244.478V245.047H224.523C224.054 244.065 223.697 242.837 223.451 241.363C223.228 239.867 223.116 238.372 223.116 236.876ZM224.389 222.978L224.456 228.437H219.064C217.792 228.437 216.686 228.582 215.749 228.872C214.811 229.162 214.041 229.575 213.438 230.111C212.835 230.625 212.389 231.227 212.099 231.92C211.831 232.612 211.697 233.371 211.697 234.197C211.697 235.023 211.887 235.771 212.266 236.44C212.646 237.088 213.193 237.601 213.907 237.981C214.621 238.338 215.459 238.517 216.419 238.517C217.87 238.517 219.131 238.226 220.203 237.646C221.274 237.066 222.1 236.351 222.681 235.503C223.284 234.654 223.596 233.851 223.618 233.092L226.164 237.177C225.806 238.093 225.315 239.041 224.69 240.024C224.087 241.006 223.317 241.932 222.379 242.803C221.442 243.652 220.314 244.355 218.997 244.913C217.68 245.449 216.117 245.717 214.309 245.717C212.009 245.717 209.922 245.259 208.047 244.344C206.194 243.406 204.72 242.122 203.626 240.492C202.555 238.84 202.019 236.965 202.019 234.867C202.019 232.969 202.376 231.283 203.09 229.81C203.805 228.336 204.854 227.097 206.238 226.093C207.645 225.066 209.397 224.295 211.496 223.782C213.594 223.246 216.028 222.978 218.796 222.978H224.389ZM249.907 216.716V245.047H240.262V208.813H249.337L249.907 216.716ZM260.824 208.578L260.656 217.52C260.187 217.453 259.618 217.397 258.948 217.352C258.301 217.285 257.709 217.252 257.174 217.252C255.812 217.252 254.628 217.43 253.624 217.788C252.641 218.122 251.815 218.625 251.146 219.295C250.498 219.964 250.007 220.779 249.672 221.739C249.36 222.699 249.181 223.793 249.136 225.021L247.194 224.418C247.194 222.074 247.429 219.92 247.897 217.955C248.366 215.968 249.047 214.238 249.94 212.764C250.855 211.291 251.972 210.152 253.289 209.349C254.606 208.545 256.113 208.143 257.81 208.143C258.346 208.143 258.893 208.188 259.451 208.277C260.009 208.344 260.467 208.444 260.824 208.578ZM275.558 208.813V245.047H265.88V208.813H275.558ZM265.278 199.369C265.278 197.963 265.769 196.802 266.751 195.886C267.733 194.971 269.051 194.513 270.703 194.513C272.332 194.513 273.638 194.971 274.621 195.886C275.625 196.802 276.128 197.963 276.128 199.369C276.128 200.776 275.625 201.937 274.621 202.852C273.638 203.767 272.332 204.225 270.703 204.225C269.051 204.225 267.733 203.767 266.751 202.852C265.769 201.937 265.278 200.776 265.278 199.369ZM303.119 235.034C303.119 234.342 302.918 233.717 302.516 233.159C302.115 232.6 301.367 232.087 300.273 231.618C299.201 231.127 297.649 230.68 295.618 230.279C293.787 229.877 292.079 229.374 290.494 228.772C288.931 228.147 287.57 227.399 286.409 226.528C285.27 225.657 284.377 224.63 283.73 223.447C283.082 222.242 282.758 220.868 282.758 219.328C282.758 217.81 283.082 216.381 283.73 215.042C284.399 213.702 285.348 212.519 286.576 211.492C287.826 210.443 289.344 209.628 291.13 209.047C292.939 208.444 294.97 208.143 297.225 208.143C300.373 208.143 303.074 208.645 305.329 209.65C307.607 210.655 309.348 212.039 310.553 213.803C311.781 215.544 312.395 217.531 312.395 219.763H302.751C302.751 218.826 302.55 217.989 302.148 217.252C301.768 216.493 301.166 215.901 300.34 215.477C299.536 215.03 298.487 214.807 297.192 214.807C296.12 214.807 295.194 214.997 294.412 215.376C293.631 215.734 293.028 216.225 292.604 216.85C292.202 217.453 292.001 218.122 292.001 218.859C292.001 219.417 292.113 219.92 292.336 220.366C292.582 220.79 292.972 221.181 293.508 221.538C294.044 221.895 294.736 222.23 295.584 222.543C296.455 222.833 297.527 223.101 298.799 223.347C301.411 223.882 303.744 224.586 305.798 225.456C307.852 226.305 309.482 227.466 310.687 228.939C311.893 230.39 312.496 232.299 312.496 234.666C312.496 236.273 312.139 237.746 311.424 239.086C310.71 240.426 309.683 241.598 308.343 242.602C307.004 243.585 305.396 244.355 303.521 244.913C301.668 245.449 299.581 245.717 297.259 245.717C293.888 245.717 291.03 245.114 288.686 243.908C286.364 242.703 284.6 241.173 283.395 239.32C282.211 237.445 281.62 235.525 281.62 233.56H290.762C290.807 234.878 291.142 235.938 291.767 236.742C292.414 237.546 293.229 238.126 294.211 238.483C295.216 238.84 296.299 239.019 297.46 239.019C298.71 239.019 299.748 238.852 300.574 238.517C301.4 238.159 302.025 237.691 302.449 237.11C302.896 236.507 303.119 235.815 303.119 235.034Z" fill="white"/>
<path d="M580.323 209.116L567.977 186.653L545.514 198.999" stroke="white" stroke-width="7.25" stroke-linecap="round" stroke-linejoin="round"/>
<path d="M567.977 186.652L559.884 214.5C554.296 233.726 534.183 244.781 514.958 239.194L511.477 238.182" stroke="white" stroke-width="7.25" stroke-linecap="round" stroke-linejoin="round"/>
<defs>
<linearGradient id="paint0_linear_550_21381" x1="959.999" y1="330.047" x2="959.999" y2="660.047" gradientUnits="userSpaceOnUse">
<stop stop-color="#2563EB"/>
<stop offset="1" stop-color="white" stop-opacity="0"/>
</linearGradient>
</defs>
</svg>
