<svg width="158" height="25" viewBox="0 0 158 25" fill="none" xmlns="http://www.w3.org/2000/svg">
<path d="M7.52433 11.9766C8.10931 11.9766 8.10092 11.9766 8.10616 12.5725C8.10616 12.7297 8.07628 12.79 7.9054 12.7821C7.62339 12.7664 7.33929 12.7732 7.05623 12.7821C6.94144 12.7853 6.90371 12.7575 6.89899 12.6333C6.87278 11.9766 6.86806 11.9766 7.52433 11.9766Z" fill="#989898"/>
<path d="M17.4808 12.7789C16.8958 12.7789 16.9016 12.7789 16.8984 12.183C16.8984 12.0257 16.9278 11.9655 17.0987 11.9733C17.3807 11.9891 17.6648 11.9822 17.9478 11.9733C18.0626 11.9702 18.1009 11.9974 18.1051 12.1222C18.1339 12.7789 18.1371 12.7789 17.4808 12.7789Z" fill="#989898"/>
<path d="M7.49966 14.7771C6.89528 14.7771 6.90316 14.7771 6.89844 14.1738C6.89844 14.0034 6.95084 13.9641 7.10809 13.9741C7.38223 13.9861 7.65796 13.9861 7.93211 13.9741C8.07993 13.9673 8.10508 14.0213 8.10718 14.1565C8.11347 14.7771 8.11766 14.7771 7.49966 14.7771Z" fill="#989898"/>
<path d="M17.4837 14.7607C16.8956 14.778 16.9034 14.778 16.8945 14.1868C16.8945 14.0055 16.947 13.9641 17.1163 13.974C17.3823 13.9893 17.649 13.9893 17.9151 13.974C18.0776 13.9646 18.1169 14.0217 18.1012 14.1695C18.0802 14.3656 18.1856 14.6365 18.0598 14.7403C17.934 14.8441 17.6818 14.7607 17.4837 14.7607Z" fill="#989898"/>
<path d="M17.4758 10.7775C16.8924 10.7775 16.8992 10.7775 16.8945 10.18C16.8945 10.0228 16.9291 9.96462 17.0969 9.97353C17.3794 9.98821 17.663 9.98297 17.946 9.97353C18.0629 9.97039 18.0975 10.0018 18.1033 10.124C18.1279 10.7775 18.1321 10.7775 17.4758 10.7775Z" fill="#989898"/>
<path d="M7.48878 16.7779C6.89908 16.7779 6.90692 16.7779 6.89853 16.1888C6.89591 16.0101 6.94571 15.964 7.11817 15.9739C7.39231 15.9891 7.66804 15.9855 7.94219 15.9739C8.07743 15.9687 8.10363 16.0153 8.10625 16.1417C8.11935 16.7779 8.12356 16.7779 7.48878 16.7779Z" fill="#989898"/>
<path d="M17.4869 16.7784C16.8951 16.7784 16.9024 16.7784 16.8945 16.1913C16.8945 16.0163 16.9349 15.9639 17.1121 15.9738C17.3941 15.9901 17.6782 15.9827 17.9612 15.9738C18.0703 15.9712 18.1185 16.0032 18.0996 16.1138C18.0988 16.1221 18.0988 16.1306 18.0996 16.1389C18.1206 16.7784 18.1206 16.7784 17.4869 16.7784Z" fill="#989898"/>
<path d="M7.48081 10.7789C6.89583 10.7789 6.90158 10.7789 6.89844 10.183C6.89844 10.0257 6.9278 9.96547 7.09868 9.97333C7.38069 9.98905 7.66479 9.98277 7.94785 9.97333C8.06264 9.97019 8.1009 9.99744 8.1051 10.1222C8.13393 10.7789 8.13708 10.7789 7.48081 10.7789Z" fill="#989898"/>
<path d="M24.4952 16.7302C24.4885 16.3729 24.3602 16.0285 24.1315 15.7538C23.9028 15.4791 23.5874 15.2906 23.2372 15.2191C22.8578 15.164 22.4735 15.1513 22.0913 15.1814C21.6699 15.181 21.2656 15.3478 20.967 15.6451C20.6685 15.9424 20.5001 16.3461 20.4989 16.7674C20.4947 17.0006 20.4989 17.2344 20.4989 17.4671C20.4989 17.5305 20.5162 17.6086 20.4181 17.6212C20.166 17.6802 19.9239 17.776 19.6995 17.9053V16.5829C19.6995 15.9639 19.6995 15.9718 19.0794 15.9723C18.9111 15.9723 18.8949 16.0331 18.8965 16.1731C18.9038 16.7061 18.8938 17.2391 18.9027 17.7722C18.9027 17.9294 18.875 17.9818 18.7036 17.9818C17.9037 17.9713 17.1038 17.9734 16.3039 17.9818C16.1466 17.9818 16.0942 17.9535 16.0942 17.7821C16.1002 14.8498 16.1002 11.9175 16.0942 8.98518C16.0942 8.79859 16.156 8.77554 16.3191 8.77554C17.0938 8.78392 17.8685 8.78654 18.6433 8.77554C18.843 8.77239 18.9054 8.81013 18.9054 9.02607C18.8954 10.892 18.8996 12.7584 18.8996 14.6243C18.8996 15.1819 18.8996 15.1741 19.4704 15.184C19.6481 15.1872 19.7063 15.1552 19.7058 14.9592C19.6974 12.8103 19.7006 10.6613 19.7006 8.51243C19.7006 8.1099 19.5695 7.98253 19.158 7.98253C18.2245 7.98253 17.2914 7.97258 16.3589 7.98935C16.1267 7.99354 16.0911 7.92017 16.0968 7.71418C16.1115 7.17276 16.1026 6.63134 16.101 6.08939C16.101 5.71831 15.9626 5.58414 15.5852 5.58256C15.2854 5.58256 14.985 5.57155 14.6863 5.58675C14.5232 5.59514 14.4897 5.53801 14.4991 5.39021C14.5117 5.19995 14.5065 5.00707 14.4991 4.81366C14.5048 4.75717 14.4981 4.70013 14.4795 4.64647C14.461 4.59281 14.431 4.54381 14.3917 4.50286C14.3523 4.46191 14.3046 4.42998 14.2518 4.40926C14.1989 4.38854 14.1422 4.37953 14.0856 4.38284C13.0274 4.3776 11.9693 4.3776 10.9111 4.38284C10.8566 4.37972 10.802 4.3882 10.7509 4.40771C10.6999 4.42722 10.6536 4.45732 10.615 4.49604C10.5764 4.53478 10.5465 4.58124 10.5271 4.63237C10.5078 4.6835 10.4995 4.73814 10.5028 4.7927C10.4955 5.00235 10.4929 5.212 10.5028 5.41746C10.5096 5.54954 10.4682 5.58675 10.3366 5.58308C10.0221 5.57365 9.70343 5.57837 9.38683 5.58308C9.04401 5.58308 8.9025 5.72617 8.9004 6.06842C8.9004 6.635 8.89252 7.20158 8.90405 7.76764C8.90772 7.9406 8.86686 7.98882 8.68864 7.98672C7.72205 7.97677 6.75599 7.98096 5.78941 7.98253C5.44555 7.98253 5.30192 8.1251 5.30087 8.46526C5.30087 9.0418 5.30087 9.61466 5.30087 10.1896C5.30087 10.785 5.30086 10.7777 5.88427 10.7856C6.0541 10.7856 6.10966 10.7531 6.10547 10.5717C6.09184 10.0392 6.10547 9.50564 6.09709 8.9726C6.09447 8.82375 6.12487 8.77554 6.28527 8.77711C7.09355 8.78655 7.90166 8.78655 8.70959 8.77711C8.85846 8.77711 8.90457 8.80541 8.90405 8.96527C8.89846 11.906 8.89846 14.8467 8.90405 17.7874C8.90405 17.9671 8.8375 17.9829 8.6902 17.9818C7.90708 17.976 7.12396 17.9729 6.34084 17.9818C6.15319 17.9818 6.09341 17.9456 6.09446 17.7428C6.10337 15.8926 6.09971 14.0441 6.09971 12.1949C6.09971 11.5586 6.09972 11.5623 5.46599 11.5754C5.34228 11.5754 5.29091 11.6 5.29668 11.7379C5.30769 12.0209 5.30033 12.3045 5.30033 12.5875V17.9289C5.10713 17.7872 4.88617 17.6879 4.65192 17.6375C4.51773 17.6139 4.49468 17.5557 4.49835 17.4393C4.50464 17.1972 4.50569 16.9551 4.49835 16.7145C4.48266 16.3109 4.31461 15.9283 4.02808 15.6436C3.74155 15.359 3.35783 15.1934 2.95413 15.1804C2.69624 15.173 2.4378 15.1772 2.17938 15.1804C1.95615 15.1692 1.73306 15.2049 1.52448 15.2852C1.3159 15.3655 1.12649 15.4887 0.968437 15.6467C0.810389 15.8048 0.687216 15.9942 0.606881 16.2027C0.526547 16.4113 0.490811 16.6343 0.502007 16.8576C0.502007 17.8324 0.502007 18.8068 0.502007 19.7817C0.502007 20.2717 0.606843 20.3765 1.10534 20.3765H23.8976C23.95 20.3765 23.9978 20.3765 24.0476 20.3765C24.1081 20.3836 24.1695 20.3769 24.2272 20.357C24.2848 20.337 24.3372 20.3043 24.3804 20.2612C24.4237 20.2182 24.4566 20.166 24.4769 20.1085C24.4971 20.0509 24.5041 19.9896 24.4973 19.9289C24.501 18.8629 24.5073 17.7963 24.4952 16.7302ZM2.10861 19.3896C2.09918 19.5395 2.06878 19.5809 1.91467 19.5809C1.30138 19.5809 1.30139 19.5867 1.30139 18.9666V18.0667C1.30139 17.6516 1.29877 17.2355 1.30139 16.8193C1.29566 16.7068 1.31363 16.5943 1.35418 16.4892C1.39473 16.3841 1.45692 16.2887 1.53673 16.2092C1.61649 16.1297 1.71208 16.0679 1.81728 16.0277C1.92248 15.9875 2.03497 15.9699 2.14742 15.976C2.39693 15.976 2.64643 15.9713 2.89594 15.976C3.00212 15.9756 3.10732 15.9964 3.20541 16.0371C3.30349 16.0777 3.39253 16.1375 3.4673 16.2129C3.54217 16.2883 3.6013 16.3778 3.64125 16.4762C3.68121 16.5747 3.70118 16.68 3.70002 16.7863C3.69751 16.8278 3.69751 16.8695 3.70002 16.911C3.73049 17.0025 3.74102 17.0995 3.73093 17.1954C3.72083 17.2913 3.69033 17.3839 3.64147 17.4671C3.59262 17.5502 3.52656 17.622 3.44769 17.6775C3.36883 17.733 3.27899 17.771 3.18423 17.7889C2.86263 17.9136 2.58705 18.1339 2.3947 18.4202C2.20234 18.7064 2.10247 19.0448 2.10861 19.3896ZM5.07129 19.5825C4.74892 19.5589 4.42338 19.5767 4.09891 19.5767C3.76659 19.5767 3.43323 19.5636 3.103 19.582C2.908 19.5925 2.87341 19.5128 2.90905 19.3545C2.92718 19.2568 2.9531 19.1608 2.9866 19.0673C3.09438 18.8164 3.28605 18.6109 3.52876 18.4858C3.77147 18.3607 4.05012 18.3239 4.31698 18.3817C4.55823 18.4096 4.78385 18.5152 4.95982 18.6825C5.13579 18.8499 5.25257 19.0699 5.29249 19.3094C5.32341 19.4887 5.31502 19.6014 5.07285 19.5835L5.07129 19.5825ZM8.29969 19.5767H7.4998C7.09146 19.5767 6.68365 19.5704 6.27532 19.5804C6.13274 19.5835 6.09867 19.5406 6.09657 19.4011C6.08976 18.7769 6.08503 18.7769 6.70198 18.7769C7.36821 18.7769 8.03498 18.7827 8.70121 18.7727C8.8658 18.7727 8.90615 18.8162 8.9051 18.9777C8.90091 19.5773 8.90512 19.5767 8.29969 19.5767ZM11.4516 5.17636C12.1505 5.1816 12.8494 5.1816 13.5483 5.17636C13.6694 5.17636 13.7029 5.20991 13.7008 5.32941C13.6938 5.76234 13.6938 6.19543 13.7008 6.62871C13.7008 6.74978 13.6662 6.78595 13.5472 6.78123C13.1976 6.7739 12.8475 6.78123 12.4989 6.78123C12.1503 6.78123 11.7991 6.77599 11.4505 6.78386C11.3294 6.78386 11.2959 6.75031 11.298 6.63029C11.3046 6.19736 11.3046 5.76425 11.298 5.33098C11.298 5.21095 11.3315 5.17845 11.451 5.1795L11.4516 5.17636ZM13.3035 17.3712C13.294 17.7124 13.3003 18.0526 13.3003 18.3954C13.3003 18.7287 13.2946 19.062 13.303 19.3949C13.3066 19.5275 13.282 19.5841 13.13 19.5799C12.7138 19.5689 12.2971 19.5668 11.8809 19.5799C11.7136 19.5856 11.6953 19.5227 11.6964 19.3807C11.7033 18.706 11.7033 18.0313 11.6964 17.3565C11.6964 17.2239 11.7173 17.1673 11.8693 17.1715C12.2855 17.1825 12.7023 17.1846 13.1185 17.1715C13.2857 17.1668 13.3072 17.2292 13.303 17.3717L13.3035 17.3712ZM15.038 19.5814C14.7886 19.5634 14.5383 19.5634 14.2889 19.5814C14.1353 19.5898 14.0945 19.5469 14.096 19.3912C14.1044 18.5667 14.1008 17.7423 14.0997 16.9189C14.0997 16.5085 13.9723 16.3801 13.5661 16.3796C12.8581 16.3796 12.1501 16.3796 11.4421 16.3796C11.0228 16.3796 10.9001 16.5038 10.8996 16.9346C10.8996 17.7423 10.8917 18.55 10.9048 19.3576C10.908 19.5526 10.8498 19.5946 10.67 19.5825C10.4207 19.5644 10.1703 19.5644 9.92095 19.5825C9.72439 19.5987 9.69453 19.5269 9.69505 19.3482C9.70134 17.2166 9.69924 15.0844 9.69924 12.9539C9.69924 10.8385 9.69924 8.72365 9.69505 6.60828C9.69505 6.42641 9.72962 6.37085 9.92252 6.37504C10.4991 6.38709 10.4991 6.37504 10.4991 6.95158C10.4991 7.48147 10.5956 7.58053 11.1198 7.58053H13.8932C14.399 7.58053 14.4986 7.47832 14.4986 6.96258C14.4986 6.82946 14.5065 6.6958 14.4986 6.5632C14.4908 6.43059 14.5159 6.37818 14.669 6.37609C15.3011 6.3677 15.3011 6.36141 15.3011 6.99875C15.3011 11.1044 15.3029 15.2101 15.3064 19.3157C15.3064 19.5327 15.2623 19.605 15.0396 19.5846L15.038 19.5814ZM18.3335 19.5762H17.4833C17.0833 19.5762 16.6834 19.5715 16.284 19.5762C16.155 19.5762 16.0973 19.5621 16.0952 19.4069C16.0869 18.7732 16.0801 18.7738 16.7164 18.7738C17.3743 18.7738 18.0326 18.7811 18.6905 18.7691C18.8718 18.7654 18.9059 18.8215 18.9038 18.9902C18.8965 19.5746 18.9038 19.5746 18.3335 19.5746V19.5762ZM21.8895 19.582C21.5582 19.56 21.2249 19.5762 20.8936 19.5762C20.5445 19.5762 20.1949 19.5699 19.8452 19.5793C19.7173 19.583 19.6811 19.5379 19.7016 19.4221C19.7141 19.3318 19.7317 19.2422 19.754 19.1538C19.8446 18.8827 20.0312 18.6542 20.2787 18.5114C20.5262 18.3686 20.8175 18.3213 21.0975 18.3786C21.3477 18.4028 21.5824 18.5107 21.7638 18.6847C21.9451 18.8587 22.0625 19.0888 22.0971 19.3377C22.1191 19.5013 22.1076 19.5961 21.8927 19.582H21.8895ZM23.5202 19.582C23.33 19.5647 23.104 19.6391 22.9562 19.5584C22.8084 19.4777 22.8996 19.2277 22.8514 19.0552C22.7758 18.7166 22.6076 18.4057 22.3656 18.1571C22.1235 17.9085 21.8172 17.732 21.4807 17.6474C21.3192 17.6023 21.2893 17.5426 21.2956 17.399C21.3051 17.183 21.292 16.9666 21.3004 16.7506C21.307 16.5492 21.3899 16.3578 21.5322 16.215C21.6746 16.0723 21.8657 15.9889 22.0672 15.9817C22.3497 15.9718 22.6328 15.9728 22.9143 15.9817C23.1205 15.9847 23.3174 16.0682 23.463 16.2143C23.6086 16.3603 23.6914 16.5575 23.6937 16.7637C23.7037 17.2045 23.6937 17.6453 23.6937 18.0861C23.6937 18.5185 23.6895 18.9504 23.6969 19.3828C23.7005 19.5222 23.6864 19.5993 23.516 19.5835L23.5202 19.582Z" fill="#989898"/>
<path d="M11.3038 8.76204C11.3038 9.17872 11.3038 9.17872 10.8955 9.17872C10.5039 9.17872 10.5039 9.17872 10.5039 8.79559C10.5039 8.37891 10.5039 8.37891 10.9122 8.37891C11.3038 8.37891 11.3038 8.37891 11.3038 8.76204Z" fill="#989898"/>
<path d="M12.5248 8.37891C12.9033 8.37891 12.9033 8.3789 12.9033 8.74998C12.9033 9.17872 12.9033 9.17872 12.4839 9.17872C12.1055 9.17872 12.1055 9.17872 12.1055 8.80764C12.1055 8.3789 12.1055 8.37891 12.5248 8.37891Z" fill="#989898"/>
<path d="M14.4991 11.9565C14.4991 12.3758 14.4991 12.3758 14.0703 12.3758C13.6992 12.3758 13.6992 12.3758 13.6992 11.9974C13.6992 11.5781 13.6992 11.5781 14.128 11.5781C14.4991 11.5781 14.4991 11.5781 14.4991 11.9565Z" fill="#989898"/>
<path d="M11.3038 13.5833C11.3038 13.9795 11.3038 13.9795 10.9002 13.9795C10.4966 13.9795 10.5039 13.9795 10.5039 13.5759C10.5039 13.1724 10.5039 13.1797 10.9075 13.1797C11.3111 13.1797 11.3038 13.1797 11.3038 13.5833Z" fill="#989898"/>
<path d="M12.9054 13.5964C12.9054 13.9795 12.9054 13.9795 12.5138 13.9795C12.1055 13.9795 12.1055 13.9795 12.1055 13.5633C12.1055 13.1797 12.1055 13.1797 12.497 13.1797C12.9054 13.1797 12.9054 13.1797 12.9054 13.5964Z" fill="#989898"/>
<path d="M14.4991 13.5948C14.4991 13.98 14.4991 13.98 14.1091 13.98C13.6992 13.98 13.6992 13.98 13.6992 13.5649C13.6992 13.1797 13.6992 13.1797 14.0892 13.1797C14.4991 13.1797 14.4991 13.1797 14.4991 13.5948Z" fill="#989898"/>
<path d="M11.3038 15.1542C11.3038 15.5772 11.3038 15.5772 10.8766 15.5772C10.5039 15.5772 10.5039 15.5772 10.5039 15.2003C10.5039 14.7773 10.5039 14.7773 10.9311 14.7773C11.3038 14.7773 11.3038 14.7773 11.3038 15.1542Z" fill="#989898"/>
<path d="M12.902 15.2003C12.902 15.5772 12.902 15.5772 12.5288 15.5772C12.1016 15.5772 12.1016 15.5772 12.1016 15.1542C12.1016 14.7773 12.1016 14.7773 12.4748 14.7773C12.902 14.7773 12.902 14.7773 12.902 15.2003Z" fill="#989898"/>
<path d="M13.6992 10.3793C13.6992 9.98047 13.6992 9.98047 14.1002 9.98047C14.5012 9.98047 14.4991 9.98047 14.4991 10.3814C14.4991 10.7824 14.4991 10.7803 14.0981 10.7803C13.6971 10.7803 13.6992 10.7803 13.6992 10.3793Z" fill="#989898"/>
<path d="M12.9054 10.3959C12.9054 10.7764 12.9054 10.7764 12.5107 10.7764C12.1055 10.7764 12.1055 10.7764 12.1055 10.3817C12.1055 9.97656 12.1055 9.97656 12.5002 9.97656C12.9054 9.97656 12.9054 9.97656 12.9054 10.3959Z" fill="#989898"/>
<path d="M10.8845 12.3779C10.5039 12.3779 10.5039 12.3779 10.5039 11.9833C10.5039 11.5781 10.5039 11.5781 10.8986 11.5781C11.3038 11.5781 11.3038 11.5781 11.3038 11.9728C11.3038 12.3779 11.3038 12.3779 10.8845 12.3779Z" fill="#989898"/>
<path d="M10.8908 10.7803C10.5039 10.7803 10.5039 10.7803 10.5039 10.3919C10.5039 9.98047 10.5039 9.98047 10.917 9.98047C11.3038 9.98047 11.3038 9.98047 11.3038 10.3688C11.3038 10.7803 11.3038 10.7803 10.8908 10.7803Z" fill="#989898"/>
<path d="M14.5007 8.78563C14.5007 9.17872 14.5007 9.17872 14.1186 9.17872C13.6992 9.17872 13.6992 9.17872 13.6992 8.772C13.6992 8.37891 13.6992 8.37891 14.0813 8.37891C14.5007 8.37891 14.5007 8.37891 14.5007 8.78563Z" fill="#989898"/>
<path d="M12.5044 12.3779C12.1055 12.3779 12.1055 12.3779 12.1055 11.977C12.1055 11.576 12.1055 11.5781 12.5065 11.5781C12.9075 11.5781 12.9054 11.5781 12.9054 11.9791C12.9054 12.38 12.9054 12.3779 12.5044 12.3779Z" fill="#989898"/>
<path d="M14.1092 14.7773C14.4991 14.7773 14.4991 14.7773 14.4991 15.1626C14.4991 15.5777 14.4991 15.5777 14.0887 15.5777C13.6992 15.5777 13.6993 15.5777 13.6993 15.1925C13.6987 14.7773 13.6987 14.7773 14.1092 14.7773Z" fill="#989898"/>
<path d="M67.0723 14.6161C67.0097 14.4413 66.9362 14.2707 66.852 14.1052L62.953 5.23455C62.9161 5.14909 62.8633 5.07145 62.7973 5.0058C62.5188 4.72715 62.188 4.50611 61.824 4.3553C61.46 4.2045 61.0698 4.12688 60.6758 4.12688C60.2818 4.12688 59.8916 4.2045 59.5276 4.3553C59.1635 4.50611 58.8328 4.72715 58.5542 5.0058C58.4141 5.14611 58.3352 5.33622 58.3348 5.53455V7.8783H55.3348V5.53455C55.3349 5.43603 55.3156 5.33846 55.2779 5.24741C55.2403 5.15636 55.1851 5.07363 55.1155 5.00392C54.8369 4.72527 54.5061 4.50423 54.1421 4.35343C53.7781 4.20262 53.3879 4.125 52.9939 4.125C52.5999 4.125 52.2097 4.20262 51.8457 4.35343C51.4817 4.50423 51.1509 4.72527 50.8723 5.00392C50.8064 5.06957 50.7536 5.14721 50.7167 5.23267L46.8177 14.1033C46.7335 14.2688 46.6599 14.4395 46.5973 14.6142C46.3766 15.232 46.2935 15.8905 46.354 16.5438C46.4145 17.197 46.6171 17.8291 46.9476 18.3958C47.2781 18.9625 47.7285 19.45 48.2673 19.8243C48.806 20.1986 49.4201 20.4506 50.0665 20.5626C50.7129 20.6746 51.376 20.644 52.0092 20.4727C52.6425 20.3015 53.2307 19.9939 53.7326 19.5715C54.2345 19.149 54.638 18.622 54.9148 18.0272C55.1915 17.4324 55.3349 16.7843 55.3348 16.1283V9.3783H58.3348V16.1283C58.3345 16.7844 58.4776 17.4326 58.7542 18.0276C59.0308 18.6225 59.4342 19.1498 59.936 19.5725C60.4378 19.9951 61.026 20.3029 61.6593 20.4743C62.2926 20.6457 62.9558 20.6765 63.6022 20.5647C64.2487 20.4528 64.8629 20.2009 65.4018 19.8266C65.9407 19.4523 66.3912 18.9648 66.7218 18.398C67.0524 17.8313 67.2551 17.1992 67.3156 16.5459C67.3762 15.8926 67.2931 15.2339 67.0723 14.6161ZM52.0264 5.97986C52.2765 5.76932 52.5884 5.64622 52.9149 5.6293C53.2413 5.61238 53.5644 5.70255 53.8348 5.88611V12.7777C53.2493 12.2519 52.5358 11.8892 51.7659 11.726C50.9961 11.5628 50.1968 11.6047 49.4483 11.8477L52.0264 5.97986ZM50.8348 19.1283C50.2415 19.1283 49.6615 18.9524 49.1681 18.6227C48.6748 18.2931 48.2903 17.8245 48.0632 17.2763C47.8361 16.7282 47.7767 16.125 47.8925 15.543C48.0082 14.9611 48.294 14.4265 48.7135 14.007C49.1331 13.5874 49.6676 13.3017 50.2496 13.1859C50.8315 13.0702 51.4347 13.1296 51.9829 13.3567C52.5311 13.5837 52.9996 13.9682 53.3292 14.4616C53.6589 14.9549 53.8348 15.535 53.8348 16.1283C53.8348 16.9239 53.5188 17.687 52.9562 18.2496C52.3936 18.8122 51.6305 19.1283 50.8348 19.1283ZM59.8348 5.88517C60.1053 5.70162 60.4284 5.61144 60.7548 5.62836C61.0812 5.64528 61.3932 5.76838 61.6433 5.97892L64.2214 11.8458C63.4728 11.603 62.6735 11.5612 61.9036 11.7245C61.1337 11.8879 60.4203 12.2508 59.8348 12.7767V5.88517ZM62.8348 19.1283C62.2415 19.1283 61.6615 18.9524 61.1681 18.6227C60.6748 18.2931 60.2903 17.8245 60.0632 17.2763C59.8361 16.7282 59.7767 16.125 59.8925 15.543C60.0082 14.9611 60.294 14.4265 60.7135 14.007C61.1331 13.5874 61.6676 13.3017 62.2496 13.1859C62.8315 13.0702 63.4347 13.1296 63.9829 13.3567C64.5311 13.5837 64.9996 13.9682 65.3292 14.4616C65.6589 14.9549 65.8348 15.535 65.8348 16.1283C65.8348 16.9239 65.5188 17.687 64.9562 18.2496C64.3935 18.8122 63.6305 19.1283 62.8348 19.1283Z" fill="#989898"/>
<g clip-path="url(#clip0_1145_10143)">
<path d="M96.2438 6.90583H93.6659C93.5879 6.90959 93.5098 6.90624 93.4324 6.89583C93.3416 6.88623 93.2578 6.84138 93.198 6.77039C93.1382 6.69941 93.1069 6.60762 93.1104 6.5137C93.1017 6.41952 93.1285 6.3255 93.1851 6.25104C93.2418 6.17658 93.324 6.12737 93.4149 6.11357C93.484 6.10045 93.5544 6.09542 93.6246 6.09856C95.3746 6.09856 97.1244 6.09856 98.8741 6.09856C98.9443 6.09561 99.0146 6.10013 99.0839 6.11206C99.1743 6.12409 99.2568 6.17143 99.3144 6.2443C99.3719 6.31718 99.4001 6.41003 99.3932 6.5037C99.3989 6.59747 99.3696 6.68997 99.3113 6.76222C99.253 6.83447 99.17 6.88103 99.0795 6.89233C99.0022 6.90399 98.9239 6.90767 98.8459 6.90333L96.2438 6.90583Z" fill="#989898"/>
<path d="M98.426 5.69167C97.857 5.69167 97.2874 5.69167 96.7183 5.69167C96.4323 5.69167 96.2585 5.54162 96.2497 5.30304C96.241 5.06446 96.426 4.88241 96.7159 4.88141C97.8466 4.87807 98.9772 4.87807 100.108 4.88141C100.407 4.88141 100.577 5.04345 100.571 5.30003C100.565 5.54762 100.401 5.69067 100.11 5.69167C99.5487 5.69318 98.9874 5.69167 98.426 5.69167Z" fill="#989898"/>
<path d="M113.128 15.2904C113.034 14.5569 112.73 13.8689 112.254 13.315C111.778 12.761 111.152 12.3664 110.457 12.1819C109.836 12.0534 109.2 12.0197 108.569 12.0819C108.258 12.1031 107.946 12.0442 107.663 11.9105C107.379 11.7769 107.132 11.5726 106.944 11.3161C106.108 10.2801 105.064 9.44168 103.885 8.85778C103.145 8.43713 102.324 8.19001 101.48 8.13404C98.6607 8.10553 95.8415 8.12104 93.0223 8.12454C92.8519 8.11035 92.6804 8.13441 92.5199 8.19505C92.3593 8.25569 92.2134 8.35148 92.0923 8.4758C91.9711 8.60013 91.8776 8.75004 91.8181 8.91519C91.7586 9.08035 91.7346 9.25683 91.7477 9.43247C91.7516 9.53566 91.719 9.63679 91.6559 9.71707C90.6149 11.0635 89.6321 12.4465 89.1674 14.1375V15.9241C89.1721 16.0292 89.1875 16.1334 89.2131 16.2352C89.3524 17.0105 89.5787 17.6007 90.2969 17.9118C90.3419 17.932 90.3821 17.962 90.4146 17.9998C90.4471 18.0377 90.4713 18.0824 90.4853 18.1309C90.6637 18.5833 90.9541 18.9797 91.3274 19.2806C91.7008 19.5815 92.1442 19.7764 92.6135 19.8459C93.0827 19.9155 93.5615 19.8573 94.0021 19.6771C94.4427 19.4968 94.8298 19.2008 95.1248 18.8186C95.1591 18.7675 95.2057 18.7264 95.26 18.6993C95.3143 18.6722 95.3744 18.6601 95.4346 18.664C99.0508 18.6687 102.667 18.6687 106.283 18.664C106.343 18.6597 106.403 18.6716 106.458 18.6984C106.512 18.7252 106.559 18.7661 106.593 18.8171C106.851 19.1543 107.182 19.4254 107.558 19.6092C107.935 19.7931 108.348 19.8847 108.765 19.877C109.182 19.8692 109.591 19.7622 109.961 19.5644C110.331 19.3665 110.652 19.0832 110.898 18.7366C110.936 18.6779 110.988 18.6292 111.048 18.5945C111.108 18.5598 111.175 18.5399 111.244 18.5365C111.709 18.4865 112.174 18.4265 112.64 18.382C112.744 18.3829 112.847 18.3573 112.939 18.3074C113.031 18.2574 113.109 18.1847 113.167 18.0959V15.392C113.148 15.361 113.134 15.3266 113.128 15.2904ZM104.845 10.5584C104.914 10.5542 104.983 10.5648 105.048 10.5894C105.113 10.614 105.172 10.6521 105.222 10.7014C105.442 10.915 105.673 11.116 105.899 11.3221L105.866 11.3721H104.231C102.301 11.3721 100.373 11.3696 98.4441 11.3766C98.264 11.3766 98.1878 11.3366 98.214 11.1415C98.2402 10.9465 98.1339 10.7004 98.2577 10.5914C98.3621 10.4988 98.5976 10.5619 98.7777 10.5614L104.847 10.5574L104.845 10.5584ZM98.2115 12.37C98.2077 12.2089 98.2543 12.1699 98.4058 12.1699C99.592 12.1759 100.779 12.1734 101.965 12.1734C103.136 12.1734 104.307 12.1779 105.478 12.1689C105.657 12.1689 105.704 12.2189 105.696 12.3985C105.724 13.0245 105.7 13.6519 105.623 14.2736C105.511 14.8166 105.223 15.3044 104.807 15.6576C104.391 16.0108 103.872 16.2086 103.333 16.2187C102.412 16.2381 101.491 16.2381 100.57 16.2187C99.9511 16.2018 99.3622 15.9406 98.9249 15.4893C98.4875 15.038 98.2351 14.4309 98.2198 13.7934C98.2072 13.3193 98.2237 12.8446 98.2115 12.37ZM93.0005 19.0642C92.7468 19.0643 92.4955 19.0128 92.2611 18.9128C92.0267 18.8127 91.8138 18.666 91.6346 18.481C91.4553 18.296 91.3132 18.0763 91.2165 17.8346C91.1197 17.5929 91.0702 17.3339 91.0708 17.0725C91.0704 16.8111 91.1201 16.5522 91.2171 16.3107C91.3141 16.0691 91.4564 15.8497 91.636 15.665C91.8157 15.4804 92.0289 15.3342 92.2636 15.2347C92.4982 15.1352 92.7496 15.0844 93.0034 15.0854C93.2572 15.0849 93.5086 15.136 93.7431 15.2358C93.9777 15.3356 94.1908 15.4822 94.3703 15.6671C94.5496 15.8519 94.6918 16.0715 94.7886 16.3131C94.8855 16.5547 94.935 16.8136 94.9345 17.075C94.9344 17.3365 94.8842 17.5954 94.7869 17.8369C94.6897 18.0784 94.5472 18.2978 94.3676 18.4825C94.188 18.6673 93.9748 18.8138 93.7402 18.9137C93.5057 19.0136 93.2543 19.0649 93.0005 19.0647V19.0642ZM108.71 19.0642C108.456 19.0634 108.205 19.0111 107.971 18.9101C107.737 18.8092 107.525 18.6617 107.346 18.476C107.167 18.2903 107.026 18.0701 106.93 17.8281C106.834 17.5861 106.786 17.3269 106.788 17.0655C106.788 16.8042 106.838 16.5455 106.936 16.3042C107.034 16.063 107.177 15.8441 107.357 15.66C107.537 15.476 107.75 15.3305 107.985 15.2319C108.22 15.1333 108.472 15.0835 108.725 15.0854C108.979 15.0856 109.23 15.1375 109.464 15.2381C109.698 15.3387 109.911 15.486 110.089 15.6716C110.268 15.8571 110.409 16.0772 110.505 16.3192C110.601 16.5612 110.649 16.8202 110.647 17.0815C110.647 17.343 110.596 17.6019 110.499 17.8432C110.401 18.0846 110.258 18.3037 110.078 18.488C109.898 18.6723 109.685 18.8181 109.45 18.9171C109.215 19.016 108.963 19.0662 108.709 19.0647L108.71 19.0642ZM112.206 17.6177C111.98 17.6315 111.755 17.6588 111.532 17.6992C111.398 17.7217 111.372 17.6787 111.395 17.5492C111.456 17.1823 111.446 16.8066 111.364 16.4439C111.283 16.0813 111.133 15.7388 110.922 15.4365C110.712 15.1341 110.445 14.8779 110.137 14.6826C109.83 14.4874 109.487 14.357 109.13 14.2991C108.428 14.1978 107.715 14.3792 107.14 14.8055C106.564 15.2317 106.17 15.8701 106.04 16.5879C105.979 17.0058 105.999 17.432 106.1 17.8418H95.6249C95.7467 17.4024 95.7614 16.9389 95.6677 16.4923C95.5741 16.0457 95.3749 15.6298 95.0879 15.2814C94.8676 14.9977 94.5934 14.7631 94.2822 14.592C93.971 14.4209 93.6292 14.3168 93.2777 14.2861C92.9102 14.2484 92.5391 14.2879 92.1869 14.4022C91.8346 14.5165 91.5085 14.7032 91.2283 14.951C90.9481 15.1988 90.7195 15.5025 90.5565 15.8439C90.3935 16.1852 90.2994 16.5571 90.2799 16.937C90.1961 16.8636 90.1288 16.7724 90.0826 16.6697C90.0364 16.5669 90.0124 16.455 90.0123 16.3418C89.9895 15.6981 89.9822 15.0549 89.9579 14.4111C89.9502 14.2111 90.0118 14.1485 90.2099 14.1611C90.4984 14.1816 90.7878 14.1716 91.0767 14.1645C91.3656 14.1575 91.5253 13.9995 91.5214 13.7499C91.5176 13.5003 91.3544 13.3598 91.0626 13.3563C90.9378 13.3563 90.8125 13.3563 90.6877 13.3563H90.2765C90.5442 12.7567 90.8648 12.1836 91.234 11.6442C91.5683 11.1297 91.9307 10.6351 92.3192 10.1627C92.3948 10.0773 92.4532 9.97722 92.491 9.86835C92.5287 9.75947 92.5451 9.64396 92.5392 9.5285C92.5266 9.04584 92.6455 8.93181 93.1131 8.93181H101.197C102.104 8.97668 102.986 9.2562 103.76 9.74458H103.517H94.4028C94.3178 9.73021 94.2306 9.74035 94.1509 9.7739C94.0712 9.80745 94.0021 9.86309 93.9512 9.93464C93.9099 9.99419 93.8868 10.0651 93.8849 10.1383C93.883 10.2114 93.9024 10.2835 93.9405 10.3453C94.1636 10.766 94.4657 11.1369 94.8292 11.4362C95.1928 11.7355 95.6105 11.9574 96.0581 12.0889C96.4412 12.1697 96.8332 12.1969 97.2234 12.1699C97.3919 12.1644 97.4274 12.2224 97.4288 12.3865C97.4095 12.9653 97.4188 13.5447 97.4565 14.1225C97.5487 14.9075 97.9107 15.6326 98.4768 16.1666C99.043 16.7007 99.776 17.0083 100.543 17.034C101.48 17.048 102.418 17.048 103.355 17.034C104.163 17.01 104.932 16.6729 105.509 16.09C106.086 15.5071 106.428 14.7214 106.467 13.89C106.485 13.3838 106.471 12.8766 106.476 12.3695C106.476 12.3034 106.438 12.2139 106.529 12.1799C106.564 12.1708 106.6 12.1722 106.633 12.184C106.666 12.1957 106.696 12.2172 106.718 12.2459C106.954 12.4681 107.232 12.6396 107.534 12.7504C107.835 12.8612 108.156 12.909 108.475 12.8911C109.083 12.8371 109.695 12.866 110.295 12.9772C110.906 13.1454 111.443 13.5238 111.817 14.0495C111.703 14.061 111.615 14.066 111.528 14.0805C111.435 14.0941 111.349 14.143 111.288 14.2178C111.228 14.2925 111.196 14.3878 111.2 14.4852C111.201 14.5828 111.238 14.6763 111.304 14.747C111.369 14.8177 111.458 14.8605 111.552 14.8668C111.692 14.8845 111.833 14.8855 111.973 14.8698C112.196 14.8368 112.28 14.9428 112.307 15.1489C112.342 15.3305 112.364 15.5143 112.374 15.6991C112.374 16.2703 112.374 16.8414 112.38 17.4126C112.38 17.5517 112.351 17.6127 112.203 17.6187L112.206 17.6177ZM96.7767 11.3656C96.455 11.3669 96.1368 11.2956 95.8447 11.1567C95.5526 11.0177 95.2936 10.8145 95.086 10.5614C95.8629 10.5614 96.5878 10.5614 97.3123 10.5614C97.4065 10.5614 97.4395 10.5964 97.4283 10.6874C97.4278 10.6954 97.4278 10.7034 97.4283 10.7114C97.3968 11.5482 97.609 11.3691 96.7767 11.3686V11.3656Z" fill="#989898"/>
<path d="M108.71 15.672C108.53 15.6723 108.353 15.7092 108.187 15.7806C108.022 15.8521 107.872 15.9566 107.746 16.0881C107.62 16.2199 107.52 16.3762 107.453 16.5479C107.386 16.7196 107.353 16.9034 107.355 17.0885C107.358 17.4615 107.504 17.8182 107.762 18.0802C108.02 18.3421 108.368 18.4881 108.731 18.4859C108.91 18.4849 109.088 18.4473 109.253 18.3753C109.418 18.3032 109.568 18.1982 109.694 18.0663C109.819 17.9342 109.918 17.7778 109.985 17.6061C110.052 17.4345 110.085 17.2509 110.082 17.066C110.082 16.8813 110.046 16.6984 109.977 16.5281C109.908 16.3577 109.806 16.2032 109.678 16.0736C109.551 15.9439 109.4 15.8416 109.233 15.7727C109.067 15.7037 108.889 15.6695 108.71 15.672ZM108.71 17.6687C108.634 17.6685 108.559 17.6527 108.489 17.6221C108.419 17.5916 108.356 17.5468 108.303 17.4906C108.251 17.4344 108.209 17.3678 108.182 17.2949C108.155 17.2219 108.142 17.1441 108.145 17.066C108.145 16.9878 108.161 16.9106 108.191 16.8387C108.221 16.7668 108.264 16.7018 108.318 16.6473C108.373 16.5928 108.437 16.55 108.508 16.5213C108.578 16.4927 108.654 16.4787 108.73 16.4803C108.806 16.4817 108.88 16.4986 108.95 16.5299C109.02 16.5612 109.083 16.6064 109.135 16.6628C109.188 16.7192 109.229 16.7858 109.257 16.8586C109.284 16.9315 109.298 17.0093 109.296 17.0875C109.296 17.1656 109.28 17.243 109.25 17.3149C109.221 17.3868 109.177 17.4518 109.122 17.5061C109.068 17.5604 109.003 17.6028 108.932 17.6308C108.861 17.6588 108.786 17.6714 108.71 17.6687Z" fill="#989898"/>
<path d="M93.0041 15.6719C92.8246 15.6704 92.6467 15.7057 92.4807 15.7757C92.3146 15.8457 92.1637 15.949 92.0368 16.0796C91.9099 16.2102 91.8095 16.3655 91.7414 16.5365C91.6733 16.7074 91.6389 16.8906 91.6401 17.0754C91.6393 17.2602 91.6739 17.4433 91.7421 17.6142C91.8103 17.7851 91.9106 17.9404 92.0373 18.0712C92.1638 18.2022 92.3142 18.3061 92.4799 18.3769C92.6456 18.4477 92.8232 18.4841 93.0026 18.4839C93.3649 18.4829 93.7121 18.3344 93.9685 18.0707C94.2248 17.807 94.3695 17.4496 94.3709 17.0764C94.3713 16.8916 94.3361 16.7085 94.2674 16.5378C94.1987 16.367 94.0979 16.212 93.9708 16.0816C93.8439 15.9509 93.6931 15.8475 93.5272 15.7772C93.3613 15.7069 93.1835 15.6711 93.0041 15.6719ZM93.0041 17.6686C92.9281 17.6694 92.8527 17.6546 92.7823 17.6253C92.7119 17.5959 92.6478 17.5525 92.5938 17.4975C92.5398 17.4426 92.4969 17.3772 92.4675 17.305C92.4382 17.2329 92.423 17.1556 92.4228 17.0774C92.4235 16.9192 92.4847 16.7677 92.5931 16.6558C92.7016 16.5439 92.8486 16.4806 93.0021 16.4797C93.078 16.4792 93.1532 16.4943 93.2234 16.524C93.2935 16.5537 93.3573 16.5975 93.4109 16.6527C93.4646 16.7081 93.507 16.7739 93.5358 16.8463C93.5645 16.9186 93.579 16.9962 93.5785 17.0744C93.5797 17.1526 93.5656 17.2302 93.5372 17.3027C93.5087 17.3752 93.4665 17.4411 93.4129 17.4965C93.3593 17.5518 93.2955 17.5954 93.2253 17.6249C93.1551 17.6544 93.0799 17.6695 93.0041 17.6686Z" fill="#989898"/>
</g>
<g clip-path="url(#clip1_1145_10143)">
<path d="M139.746 18.5005C139.91 18.3526 140.054 18.127 140.244 18.0771C140.452 18.0221 140.549 18.3147 140.693 18.4525C141.51 19.2781 142.488 19.9207 143.564 20.3389C144.641 20.757 145.791 20.9415 146.942 20.8804C148.021 20.8442 149.082 20.59 150.063 20.1327C151.045 19.6754 151.926 19.0241 152.657 18.2168C152.822 18.043 152.906 18.036 153.072 18.1991C153.399 18.515 153.412 18.5081 153.085 18.843C151.648 20.3354 149.758 21.2926 147.72 21.5604C146.246 21.7454 144.751 21.5635 143.362 21.0305C141.973 20.4974 140.732 19.6292 139.746 18.5005Z" fill="#989898"/>
<path d="M146.907 3.12436C148.971 3.18607 150.949 3.97464 152.503 5.35514C152.61 5.44678 152.65 5.50618 152.528 5.61804C152.394 5.74443 152.292 5.96624 152.148 5.99215C152.036 6.013 151.885 5.79498 151.748 5.68565C150.228 4.47045 148.34 3.82815 146.406 3.86801C144.472 3.90787 142.612 4.62745 141.141 5.90431C141.012 6.01743 140.954 6.01364 140.847 5.88345C140.491 5.46194 140.485 5.46637 140.917 5.12511C142.626 3.77383 144.743 3.06674 146.907 3.12436Z" fill="#989898"/>
<path d="M153.439 11.4767C153.416 11.2719 153.372 11.1898 153.137 11.2473C152.682 11.3592 152.685 11.3402 152.733 11.8198C152.813 12.6363 152.728 13.4607 152.484 14.2427C151.883 13.7644 151.18 13.4333 150.432 13.2752C150.505 13.2241 150.574 13.1683 150.639 13.1084C151.255 12.4776 151.62 11.6379 151.663 10.7506C151.701 10.1152 151.577 9.48049 151.303 8.908C151.029 8.33552 150.614 7.8446 150.099 7.48277C149.584 7.12101 148.985 6.90056 148.362 6.84277C147.738 6.78498 147.11 6.8918 146.539 7.15289C146.489 7.18167 146.431 7.19408 146.373 7.18843C146.316 7.18278 146.261 7.15934 146.217 7.12129C146.026 6.98534 145.808 6.89319 145.578 6.85119C145.348 6.80919 145.112 6.81833 144.886 6.87799C144.659 6.93749 144.448 7.04615 144.267 7.19649C144.086 7.34683 143.94 7.53527 143.837 7.74882C143.815 7.81449 143.771 7.87006 143.713 7.90552C143.654 7.94098 143.585 7.95399 143.518 7.9422C143.265 7.93387 143.014 7.98556 142.784 8.09318C142.554 8.20079 142.352 8.36136 142.195 8.56214C142.037 8.76291 141.927 8.99837 141.874 9.24981C141.821 9.50125 141.827 9.76174 141.89 10.0106C141.935 10.1888 141.932 10.2747 141.752 10.3594C141.571 10.4409 141.413 10.5693 141.295 10.732C141.178 10.8947 141.104 11.0858 141.082 11.2865C141.036 11.5987 140.939 11.9008 140.794 12.1801C140.697 12.3646 140.648 12.5716 140.653 12.781C140.657 12.9903 140.715 13.195 140.82 13.3751C140.949 13.6195 141.033 13.8856 141.068 14.1606C141.091 14.3766 141.169 14.5829 141.294 14.7588C141.419 14.9348 141.587 15.0743 141.782 15.1635C141.999 15.2573 142.195 15.3952 142.358 15.5686C142.527 15.7746 142.751 15.9264 143.002 16.0057C143.254 16.085 143.523 16.0884 143.777 16.0154C143.972 15.9685 144.176 15.9795 144.366 16.047C144.345 16.0931 144.325 16.1335 144.309 16.1734C144.242 16.3129 144.208 16.4665 144.21 16.6217C144.211 16.777 144.249 16.9297 144.319 17.0676C144.389 17.2054 144.49 17.3247 144.614 17.4159C144.737 17.5071 144.88 17.5676 145.031 17.5927C145.377 17.6572 145.733 17.6009 146.043 17.4328C146.687 17.1187 147.393 16.9609 148.107 16.9719C148.821 16.9828 149.523 17.1623 150.156 17.496C150.082 17.5529 150.036 17.5915 149.987 17.6224C148.736 18.4837 147.212 18.836 145.717 18.6095C144.889 18.493 144.092 18.207 143.376 17.7688C142.659 17.3307 142.037 16.7494 141.547 16.0602C141.058 15.3711 140.71 14.5883 140.527 13.759C140.343 12.9298 140.326 12.0713 140.478 11.2353C140.728 9.86401 141.418 8.61572 142.441 7.68607C143.464 6.75642 144.761 6.19794 146.13 6.09817C147.456 6.001 148.778 6.34091 149.9 7.0675C151.021 7.79409 151.882 8.86868 152.356 10.1319C152.418 10.2931 152.418 10.5414 152.556 10.592C152.694 10.6425 152.882 10.5142 153.053 10.4776C153.197 10.4466 153.215 10.3853 153.173 10.2444C152.647 8.58021 151.532 7.1735 150.044 6.29655C148.557 5.41959 146.802 5.13476 145.119 5.49718C143.392 5.87547 141.872 6.91081 140.871 8.39116C139.869 9.8715 139.463 11.6848 139.735 13.4598C139.981 15.0607 140.764 16.5261 141.951 17.6084C143.137 18.6907 144.655 19.3236 146.248 19.4001C147.331 19.4661 148.415 19.2647 149.405 18.8129C150.395 18.3612 151.264 17.6726 151.935 16.806C152.535 16.0717 152.978 15.2189 153.237 14.3016C153.496 13.3843 153.565 12.4224 153.439 11.4767ZM146.857 8.02056C146.81 7.86257 146.848 7.81201 146.982 7.75766C147.663 7.49762 148.414 7.50433 149.091 7.77649C149.767 8.04865 150.32 8.56679 150.641 9.23011C150.958 9.89081 151.022 10.6476 150.821 11.3537C150.62 12.0598 150.167 12.6646 149.552 13.0509C149.486 13.1031 149.405 13.1323 149.322 13.1343C148.655 13.0971 147.986 13.1569 147.336 13.3119C147.304 13.3145 147.273 13.3145 147.241 13.3119C147.582 12.6957 147.235 12.1813 146.988 11.6119C147.822 12.1352 148.463 12.1244 149.011 11.6119C149.24 11.3955 149.395 11.1099 149.453 10.7971C149.51 10.4844 149.467 10.1612 149.329 9.87533C149.191 9.59028 148.965 9.35798 148.687 9.21251C148.409 9.06705 148.092 9.01607 147.783 9.06707C147.444 9.12623 147.136 9.30385 146.912 9.56923C146.689 9.83462 146.563 10.1711 146.558 10.5206L145.841 10.1003C145.88 10.0169 145.958 10.0144 146.016 9.98466C146.363 9.81273 146.639 9.52034 146.793 9.1602C146.947 8.80007 146.969 8.39589 146.855 8.02056H146.857ZM147.297 10.5319C147.297 10.3371 147.373 10.15 147.508 10.0113C147.642 9.87259 147.825 9.79331 148.017 9.79065C148.114 9.78984 148.21 9.80865 148.299 9.84597C148.389 9.88329 148.471 9.93839 148.539 10.008C148.608 10.0777 148.662 10.1605 148.699 10.2516C148.735 10.3428 148.754 10.4404 148.753 10.5389C148.75 10.7337 148.671 10.9194 148.535 11.056C148.398 11.1927 148.214 11.2693 148.022 11.2694C147.831 11.2666 147.649 11.1879 147.514 11.0501C147.379 10.9123 147.302 10.7264 147.3 10.5319H147.297ZM145.305 7.56808C145.546 7.57224 145.775 7.67309 145.944 7.84865C146.112 8.02421 146.205 8.26024 146.202 8.50526C146.199 8.75026 146.099 8.98371 145.927 9.15459C145.754 9.32547 145.521 9.41988 145.28 9.41717C145.039 9.41318 144.81 9.31238 144.641 9.13678C144.473 8.96118 144.38 8.72506 144.383 8.47999C144.386 8.23472 144.485 8.00087 144.658 7.82987C144.831 7.65887 145.063 7.5647 145.305 7.56808ZM143.479 8.67716C143.6 8.67716 143.674 8.6999 143.699 8.84272C143.76 9.2035 143.951 9.5283 144.235 9.75463C144.257 9.76776 144.277 9.78592 144.292 9.80779C144.307 9.82967 144.317 9.85469 144.322 9.88102C144.326 9.90689 144.325 9.93349 144.319 9.95894C144.312 9.98438 144.3 10.008 144.284 10.0283C144.215 10.1697 144.111 10.2905 143.982 10.3791C143.854 10.4677 143.705 10.521 143.55 10.5338C143.424 10.5411 143.299 10.5225 143.18 10.4791C143.062 10.4356 142.953 10.3683 142.861 10.281C142.769 10.1942 142.695 10.0893 142.644 9.97267C142.592 9.85603 142.565 9.73007 142.563 9.60233C142.565 9.35666 142.663 9.12196 142.835 8.94929C143.007 8.77663 143.239 8.67997 143.481 8.68032L143.479 8.67716ZM143.363 15.3126C143.294 15.3201 143.225 15.3101 143.162 15.2836C143.098 15.2572 143.042 15.215 142.998 15.161C142.738 14.8801 142.428 14.651 142.085 14.4854C142.005 14.4496 141.935 14.3925 141.884 14.3201C141.833 14.2478 141.802 14.1628 141.793 14.074C141.75 13.7064 141.637 13.3509 141.461 13.0269C141.41 12.9407 141.384 12.842 141.385 12.7417C141.386 12.6413 141.414 12.5432 141.466 12.4581C141.636 12.1395 141.747 11.7921 141.793 11.4331C141.831 11.2968 141.902 11.1727 142.001 11.073C142.1 10.9733 142.222 10.9014 142.357 10.8643C142.419 10.8568 142.45 10.906 142.492 10.9364C142.676 11.0792 142.889 11.18 143.115 11.232C143.342 11.284 143.576 11.286 143.804 11.2378C144.031 11.1897 144.245 11.0925 144.432 10.9528C144.619 10.8131 144.774 10.6343 144.887 10.4283C144.967 10.2931 145.012 10.2912 145.108 10.4005C145.341 10.6551 145.621 10.8599 145.933 11.0027C146.018 11.0388 146.091 11.0972 146.146 11.1719C146.201 11.2466 146.234 11.3348 146.244 11.4274C146.288 11.7948 146.401 12.1503 146.577 12.4746C146.621 12.5589 146.644 12.6528 146.646 12.7483C146.647 12.8438 146.626 12.9382 146.584 13.0237C146.526 13.2222 146.426 13.4055 146.291 13.5604C146.156 13.7154 145.99 13.8383 145.803 13.9205C145.598 14.01 145.424 14.1583 145.301 14.3471C145.179 14.536 145.113 14.7571 145.113 14.9834C145.101 15.1787 144.91 15.3221 144.621 15.3158C144.205 15.2392 143.78 15.2392 143.364 15.3158L143.363 15.3126ZM151.092 16.6524C151.066 16.7286 151.015 16.7929 150.946 16.8336C150.878 16.8743 150.797 16.8887 150.719 16.8742C150.579 16.8735 150.442 16.8344 150.322 16.7611C149.607 16.4099 148.823 16.2274 148.029 16.2274C147.235 16.2274 146.451 16.4099 145.736 16.7611C145.577 16.8526 145.394 16.8906 145.212 16.8698C144.963 16.8255 144.882 16.6543 144.997 16.4344C145.11 16.2833 145.257 16.1621 145.426 16.0809C145.595 15.9996 145.781 15.9607 145.967 15.9673C146.22 16.0355 146.488 16.0097 146.724 15.8947C147.925 15.2077 149.109 15.5067 150.293 15.9408C150.533 16.0102 150.757 16.1301 150.95 16.2928C151.047 16.3914 151.152 16.5184 151.092 16.6543V16.6524ZM151.987 15.0788C151.917 15.2273 151.767 15.2532 151.597 15.252C151.475 15.2453 151.356 15.2087 151.25 15.1452C150.53 14.786 149.739 14.5987 148.937 14.5975C148.135 14.5963 147.343 14.7812 146.622 15.1382C146.476 15.2219 146.309 15.2601 146.142 15.2482C145.861 15.2103 145.769 15.0163 145.916 14.7742C145.992 14.6569 146.1 14.5648 146.227 14.5094C147.067 14.081 147.993 13.8579 148.932 13.8579C149.871 13.8579 150.798 14.081 151.637 14.5094C151.727 14.5502 151.808 14.6101 151.874 14.6851C151.969 14.7989 152.06 14.9253 151.991 15.0795L151.987 15.0788Z" fill="#989898"/>
<path d="M156.966 2.37891C156.808 2.37891 156.765 2.41367 156.766 2.57861C156.774 3.68895 156.766 4.79992 156.774 5.91026C156.774 6.04992 156.746 6.09984 156.601 6.08973C156.358 6.07556 156.115 6.07556 155.873 6.08973C155.714 6.09921 155.672 6.05497 155.673 5.89066C155.682 4.90356 155.677 3.91645 155.677 2.92934C155.677 2.38017 155.677 2.38713 155.144 2.37954C154.986 2.37954 154.944 2.41556 154.945 2.57987C154.953 3.69021 154.945 4.80118 154.952 5.91152C154.952 6.05182 154.923 6.1011 154.779 6.09036C154.536 6.07618 154.293 6.07618 154.051 6.09036C153.892 6.10047 153.85 6.05434 153.852 5.89066C153.861 4.90356 153.856 3.91645 153.856 2.92934C153.856 2.37512 153.856 2.38081 153.297 2.38018C153.157 2.38018 153.121 2.41304 153.121 2.55712C153.127 4.53956 153.121 6.52135 153.127 8.50315C153.125 8.77534 153.21 9.04082 153.368 9.26012C153.527 9.47942 153.751 9.64081 154.007 9.72029C154.141 9.762 154.184 9.80876 154.18 9.95222C154.121 11.787 154.067 13.6215 154.017 15.4559C153.963 17.2363 153.91 19.0169 153.857 20.7978C153.851 20.9056 153.856 21.0138 153.872 21.1207C153.929 21.4939 154.124 21.831 154.417 22.0636C154.709 22.2963 155.078 22.4069 155.449 22.3732C155.815 22.338 156.155 22.1628 156.399 21.8829C156.644 21.6031 156.775 21.2395 156.765 20.8654C156.757 20.1873 156.731 19.5086 156.71 18.8305C156.693 18.2933 156.691 18.3028 156.162 18.3035C155.978 18.3035 155.957 18.3667 155.963 18.5329C155.996 19.319 156.026 20.1051 156.036 20.8913C156.038 20.99 156.021 21.088 155.984 21.1796C155.948 21.2712 155.894 21.3543 155.825 21.424C155.757 21.4938 155.675 21.5486 155.585 21.5853C155.495 21.622 155.398 21.6398 155.301 21.6376C155.109 21.6345 154.927 21.5546 154.792 21.4154C154.658 21.2761 154.583 21.0887 154.584 20.8938C154.584 20.6935 154.592 20.4932 154.598 20.2928C154.698 16.9785 154.798 13.6637 154.898 10.3485C154.915 9.78917 154.91 9.80308 155.458 9.7797C155.69 9.77085 155.72 9.85237 155.726 10.0615C155.786 12.3825 155.853 14.7028 155.927 17.0225C155.944 17.5837 155.953 17.5773 156.502 17.5628C156.646 17.559 156.678 17.5148 156.673 17.3732C156.633 16.2635 156.601 15.1532 156.568 14.0435C156.526 12.6793 156.487 11.3149 156.449 9.95032C156.449 9.8669 156.414 9.78349 156.548 9.73419C156.843 9.65991 157.101 9.48035 157.276 9.22839C157.45 8.97643 157.53 8.66894 157.5 8.36222V2.92745C157.499 2.37955 157.499 2.38649 156.966 2.37891ZM156.769 8.46397C156.773 8.54134 156.762 8.61882 156.735 8.69135C156.708 8.76388 156.666 8.82982 156.612 8.88485C156.559 8.93987 156.494 8.98268 156.423 9.01045C156.351 9.03823 156.275 9.05034 156.199 9.046C155.608 9.05189 155.017 9.05189 154.426 9.046C154.35 9.05034 154.274 9.03823 154.203 9.01045C154.131 8.98268 154.067 8.93987 154.013 8.88485C153.959 8.82985 153.917 8.76391 153.891 8.69137C153.864 8.61884 153.852 8.54135 153.857 8.46397C153.851 7.97105 153.861 7.47876 153.852 6.98584C153.852 6.85123 153.893 6.82153 154.017 6.82342C154.447 6.83101 154.88 6.82342 155.312 6.82342C155.743 6.82342 156.175 6.82785 156.607 6.82342C156.731 6.82342 156.775 6.8506 156.772 6.98584C156.766 7.47813 156.774 7.96978 156.766 8.46334L156.769 8.46397Z" fill="#989898"/>
<path d="M139.649 8.36957C140.057 7.44265 140.204 6.41905 140.076 5.41203C140.02 4.54508 139.702 3.71674 139.166 3.04032C139.018 2.83768 138.825 2.67283 138.603 2.55874C138.381 2.44465 138.136 2.38444 137.888 2.38284C137.639 2.38125 137.394 2.43832 137.171 2.54956C136.947 2.6608 136.753 2.82317 136.602 3.02389C136.397 3.26138 136.227 3.52843 136.099 3.81636C135.666 4.81771 135.531 5.92605 135.71 7.00455C135.795 7.81459 136.124 8.57828 136.652 9.19173C136.678 9.22398 136.697 9.26171 136.708 9.30231C136.719 9.34291 136.721 9.3854 136.714 9.42683C136.691 10.1055 136.668 10.7836 136.652 11.4617C136.637 12.0083 136.639 12.0014 137.187 12.0147C137.339 12.0184 137.373 11.9742 137.377 11.8251C137.386 11.1849 137.413 10.5454 137.423 9.9052C137.423 9.76238 137.454 9.70614 137.603 9.75291C137.806 9.79792 138.016 9.79792 138.219 9.75291C138.225 9.81105 138.232 9.86413 138.234 9.91658C138.325 12.9542 138.416 15.9917 138.506 19.0293C138.524 19.6461 138.547 20.2629 138.555 20.8797C138.558 20.9782 138.541 21.0763 138.505 21.1681C138.47 21.2598 138.416 21.3433 138.348 21.4137C138.28 21.484 138.199 21.5397 138.109 21.5774C138.019 21.615 137.923 21.634 137.826 21.633C137.729 21.6321 137.633 21.6117 137.544 21.5729C137.455 21.534 137.375 21.4776 137.308 21.4067C137.24 21.3359 137.187 21.2522 137.152 21.1604C137.117 21.0686 137.1 20.9706 137.102 20.8721C137.102 20.6718 137.111 20.4714 137.117 20.2705C137.187 17.9344 137.257 15.5985 137.327 13.2628C137.342 12.7521 137.336 12.7572 136.83 12.7401C136.653 12.7332 136.603 12.7787 136.599 12.9626C136.563 14.4199 136.515 15.8765 136.474 17.3338C136.44 18.5288 136.395 19.7232 136.377 20.9195C136.38 21.2826 136.514 21.6319 136.756 21.8998C136.997 22.1676 137.327 22.3349 137.683 22.3692C138.037 22.4042 138.392 22.3067 138.681 22.095C138.969 21.8833 139.172 21.5718 139.251 21.219C139.293 20.9603 139.302 20.6971 139.278 20.436C139.171 16.7973 139.061 13.1585 138.95 9.51971C138.945 9.47098 138.951 9.42172 138.968 9.37593C138.985 9.33014 139.013 9.28912 139.049 9.2562C139.304 9.00278 139.51 8.70259 139.655 8.37146L139.649 8.36957ZM138.52 8.74242C138.441 8.83737 138.342 8.91365 138.231 8.96597C138.12 9.01828 137.999 9.04538 137.876 9.04538C137.754 9.04538 137.633 9.01828 137.521 8.96597C137.41 8.91365 137.312 8.83737 137.232 8.74242C137.012 8.52891 136.84 8.26871 136.73 7.98029C136.237 6.76998 136.236 5.41047 136.727 4.19932C136.832 3.92559 136.99 3.67641 137.193 3.46689C137.273 3.35998 137.377 3.27334 137.496 3.21371C137.614 3.15407 137.745 3.12305 137.877 3.12305C138.009 3.12305 138.14 3.15407 138.259 3.21371C138.377 3.27334 138.481 3.35998 138.561 3.46689C138.936 3.89465 139.185 4.4219 139.277 4.98736C139.352 5.3257 139.387 5.67193 139.381 6.01871C139.406 6.74527 139.261 7.46747 138.957 8.12563C138.849 8.35557 138.702 8.56403 138.522 8.74115L138.52 8.74242Z" fill="#989898"/>
<path d="M145.657 12.4819C145.536 12.6589 145.416 12.8447 145.284 13.0216C145.251 13.0659 145.204 13.0065 145.169 12.9831C144.873 12.7846 144.58 12.5805 144.281 12.3865C144.191 12.3284 144.204 12.2854 144.252 12.2058C144.563 11.6825 144.56 11.6813 145.052 12.0162C145.222 12.1312 145.392 12.2456 145.56 12.3619C145.6 12.3884 145.661 12.4017 145.657 12.4819Z" fill="#989898"/>
<path d="M143.242 12.2194C143.145 12.5152 143.035 12.8425 142.931 13.1705C142.915 13.2204 142.882 13.2217 142.843 13.2122C142.814 13.2053 142.786 13.1914 142.757 13.1831C142.213 13.0144 142.213 13.0144 142.391 12.4716C142.398 12.4507 142.409 12.4299 142.416 12.4084C142.603 11.8428 142.645 11.8263 143.178 12.0924C143.222 12.1151 143.26 12.1253 143.242 12.2194Z" fill="#989898"/>
<path d="M144.601 13.5234C144.699 13.6775 144.767 13.8491 144.801 14.029C144.824 14.0922 144.908 14.187 144.801 14.2268C144.483 14.3481 144.158 14.4499 143.835 14.5579C143.826 14.5622 143.817 14.5644 143.807 14.5644C143.798 14.5644 143.788 14.5622 143.78 14.5579C143.772 14.5535 143.764 14.5471 143.759 14.5393C143.753 14.5315 143.749 14.5226 143.748 14.5131C143.742 14.4916 143.735 14.4705 143.727 14.4499C143.513 13.8976 143.512 13.8976 144.064 13.7099L144.601 13.5234Z" fill="#989898"/>
</g>
<defs>
<clipPath id="clip0_1145_10143">
<rect width="24" height="15" fill="white" transform="translate(89.1674 4.87891)"/>
</clipPath>
<clipPath id="clip1_1145_10143">
<rect width="24" height="20" fill="white" transform="translate(133.5 2.37891)"/>
</clipPath>
</defs>
</svg>
