<svg width="328" height="223" viewBox="0 0 328 223" fill="none" xmlns="http://www.w3.org/2000/svg">
<path d="M328 199.323H0V199.487H328V199.323Z" fill="#EBEBEB"/>
<path d="M295.134 209.878H273.408V210.042H295.134V209.878Z" fill="#EBEBEB"/>
<path d="M217.28 211.662H211.58V211.826H217.28V211.662Z" fill="#EBEBEB"/>
<path d="M272.752 203.79H260.163V203.954H272.752V203.79Z" fill="#EBEBEB"/>
<path d="M62.7464 204.894H34.4138V205.058H62.7464V204.894Z" fill="#EBEBEB"/>
<path d="M72.7438 204.894H68.5914V205.058H72.7438V204.894Z" fill="#EBEBEB"/>
<path d="M147.698 207.661H86.2443V207.825H147.698V207.661Z" fill="#EBEBEB"/>
<path d="M53.1098 54.793C44.3062 78.0088 86.7232 115.617 147.849 138.787C208.975 161.957 265.66 161.924 274.457 138.708" stroke="#E0E0E0" stroke-width="1.25709" stroke-miterlimit="10" stroke-linecap="round" stroke-linejoin="round"/>
<path d="M93.3685 195.026C113.324 209.799 161.028 179.177 199.923 126.638C238.817 74.099 254.161 19.5263 234.205 4.75977" stroke="#E0E0E0" stroke-width="1.25709" stroke-miterlimit="10" stroke-linecap="round" stroke-linejoin="round"/>
<path d="M255.4 107.543C255.42 104.486 255.296 101.462 255.027 98.4835C252.724 72.9651 239.998 50.4118 221.118 35.1664C205.472 22.5253 185.589 14.896 163.908 14.7451C163.344 14.7385 162.786 14.7451 162.229 14.7451C150.644 14.8697 139.577 17.1395 129.396 21.1608H129.389C98.2688 33.4739 75.4072 62.2461 71.6483 96.8173C71.3138 99.9136 71.1301 103.056 71.1104 106.237C71.0579 113.919 71.9435 121.384 73.6688 128.528C78.7594 149.691 91.1578 168.033 108.069 180.7C123.282 192.088 142.136 198.891 162.603 199.035C173.564 199.114 184.1 197.271 193.874 193.827C229.482 181.284 255.118 147.467 255.4 107.543Z" fill="#EBEBEB"/>
<path opacity="0.4" d="M190.863 174.014C192.595 174.185 193.369 176.31 193.723 178.042C194.248 180.646 194.773 183.251 195.298 185.848C192.129 187.337 192.392 191.201 193.868 193.825C229.482 181.283 255.118 147.466 255.4 107.542C255.42 104.485 255.296 101.46 255.027 98.4822C254.954 98.4363 254.869 98.3904 254.79 98.351C252.278 97.1637 250.297 99.3088 248.401 100.522C247.975 100.798 242.451 103.481 242.379 102.733C242.608 105.141 242.484 107.588 241.992 109.962C241.952 110.139 241.907 110.336 241.756 110.441C241.395 110.69 240.988 110.192 240.857 109.779C240.522 108.716 240.378 107.594 239.978 106.558C239.578 105.515 238.85 104.517 237.787 104.183C236.718 103.848 235.556 104.242 234.448 104.084C233.096 103.894 231.968 102.891 231.286 101.71C230.63 100.568 230.322 99.2498 229.987 97.9902C228.682 100.883 225.382 99.0989 223.44 101.434C222.817 102.182 222.069 103.264 221.164 102.904C220.304 102.556 220.206 101.087 219.281 100.975C218.638 100.896 218.166 101.605 218.068 102.248C217.969 102.891 218.074 103.579 217.805 104.163C217.425 104.99 216.27 105.344 215.489 104.872C214.788 104.445 214.519 103.586 214.079 102.891C213.64 102.195 212.701 101.618 212.039 102.103C211.881 102.215 211.77 102.379 211.678 102.549C211.035 103.783 211.763 105.272 212.623 106.367C213.482 107.456 214.538 108.552 214.624 109.936C214.125 110.29 213.338 110.126 213.029 109.601C212.918 109.418 212.859 109.201 212.695 109.064C212.341 108.768 211.816 109.05 211.429 109.3C209.599 110.48 207.289 110.894 205.164 110.408C205.007 107.601 204.849 104.793 204.692 101.985C204.055 101.966 203.675 101.92 203.432 101.27C201.326 103.324 199.398 105.534 197.076 107.378C196.8 107.601 196.498 107.843 196.406 108.184C196.308 108.545 196.459 108.919 196.433 109.293C196.36 110.52 194.714 110.841 193.487 110.808C193.133 111.005 193.336 111.589 193.691 111.792C194.045 111.989 194.491 112.009 194.812 112.258C195.291 112.632 195.304 113.367 195.127 113.951C194.517 115.978 192.037 117.218 190.05 116.483C189.814 116.398 189.577 116.273 189.433 116.07C189.125 115.61 189.413 115 189.472 114.449C189.696 112.271 187.347 112.783 186.265 113.38C184.795 114.193 183.975 116.358 183.7 117.906C183.378 119.717 182.014 131.715 178.006 130.056C177.632 129.898 177.356 129.564 177.166 129.203C176.589 128.114 176.628 126.802 176.202 125.641C175.775 124.48 174.457 123.423 173.381 124.027C172.948 124.27 172.672 124.722 172.259 124.991C171.111 125.752 169.471 124.84 168.218 125.411C167.641 125.673 167.241 126.211 166.716 126.572C166.191 126.933 165.371 127.044 165.004 126.533C164.59 125.956 165.076 125.083 164.735 124.46C164.38 123.804 163.272 123.942 162.898 124.584C162.524 125.227 162.747 126.08 163.213 126.664C163.456 126.972 163.764 127.248 163.849 127.635C163.993 128.317 163.344 128.888 162.773 129.288C161.861 129.918 160.943 130.554 160.031 131.184C160.09 131.814 160.707 132.26 161.317 132.43C161.927 132.601 162.583 132.594 163.193 132.798C166.119 133.775 166.106 138.111 169.943 137.258C169.714 136.104 170.947 134.93 172.082 135.212C173.486 135.559 174.398 137.56 175.788 137.167C176.274 137.029 176.641 136.609 177.133 136.491C178.484 136.169 179.147 138.249 179.528 139.135C180.787 142.073 178.826 142.428 178.904 145.052C178.944 146.252 179.829 147.262 180.052 148.443C180.256 149.532 179.875 150.654 180.02 151.749C180.426 154.76 184.408 152.937 186.173 152.583C185.215 154.288 186.639 156.361 188.193 157.548C190.581 159.366 190.174 159.208 190.47 161.832C190.548 162.528 190.948 163.229 191.604 163.459C192.746 163.866 193.861 162.737 195.068 162.619C195.645 162.56 196.236 162.744 196.807 162.646C198.315 162.39 198.84 160.546 199.818 159.372C200.677 158.349 202.061 157.791 203.386 157.929C203.491 158.703 203.498 159.49 203.399 160.264C202.553 160.783 201.713 161.307 200.867 161.826C200.119 162.285 199.345 162.777 198.886 163.518C198.63 163.938 198.466 164.43 198.092 164.751C197.351 165.381 196.236 165.001 195.258 164.942C192.897 164.791 189.046 166.26 186.77 167.008C184.343 167.802 183.496 169.52 181.259 170.288C180.866 170.426 180.774 170.996 181.01 171.344C181.24 171.692 181.673 171.843 182.086 171.915C183.037 172.085 184.047 171.915 184.9 171.449C183.785 172.059 187.039 174.749 187.629 174.88C188.593 175.096 189.892 174.368 190.876 174.322C193.31 174.198 194.72 174.683 193.12 177.333C192.51 178.344 191.795 179.636 192.464 180.607C193.107 180.338 193.887 180.725 194.248 181.322C194.609 181.919 194.635 182.66 194.556 183.356C194.504 183.821 194.392 184.32 194.045 184.641C193.861 184.812 193.618 184.93 193.481 185.14C193.028 185.822 193.96 186.57 194.72 186.865" fill="#F5F5F5"/>
<path opacity="0.4" d="M110.228 68.4512C110.982 67.8805 112.064 68.3397 112.852 68.8645C113.639 69.3893 114.57 69.9994 115.456 69.6779C115.476 68.5824 115.489 67.4803 115.508 66.3848C115.508 66.1814 115.522 65.9453 115.672 65.8075C115.823 65.6632 116.06 65.6632 116.269 65.6763C116.978 65.7091 117.68 65.7419 118.388 65.7747C118.979 66.4242 117.332 67.2114 117.568 68.0576C117.673 68.4315 118.093 68.5955 118.434 68.7792C121.347 70.3405 119.497 73.5877 118.178 75.3523C116.65 77.399 116.748 80.187 116.912 82.7389C116.971 83.6442 117.083 84.661 117.778 85.2579C118.46 85.8418 119.458 85.8024 120.33 86.0582C121.839 86.4978 122.902 87.8294 124.312 88.5248C129.239 90.952 132.486 85.6778 130.879 81.5187C130.045 79.367 129.691 79.7738 130.17 77.4712C130.367 76.5134 130.052 75.3786 131.049 74.7226C132.105 74.0272 133.634 74.775 133.719 76.0608C133.804 77.3269 134.093 78.5274 133.575 79.7147C135.031 79.1768 136.769 79.5179 138.357 79.5179C138.127 80.9874 140.023 82.2797 141.309 81.5318C141.27 80.8102 141.46 79.8262 142.181 79.8262C142.391 79.8262 142.588 79.9312 142.765 80.0362C143.52 80.4822 144.189 81.0726 144.983 81.4466C146.209 82.0173 149.725 81.7483 150.27 83.3949C150.368 83.6835 150.368 84.005 150.48 84.287C150.723 84.8906 151.49 85.1858 152.113 84.9955C152.736 84.8053 153.183 84.2083 153.301 83.5654C153.379 83.139 153.333 82.693 153.445 82.2731C154.035 80.0427 156.325 81.7877 157.348 81.1907C157.84 80.9021 159.861 77.0973 159.907 76.6381C160.877 77.8517 162.334 78.8685 163.954 78.7963C165.725 78.711 166.48 77.3072 166.88 75.5819C167.3 73.7648 167.319 71.6 167.72 70.2814C167.936 69.573 168.113 68.7136 167.615 68.1691C166.991 67.4869 165.653 67.7493 165.2 66.9424C165.056 66.6866 165.043 66.3782 164.997 66.0896C164.708 64.3971 162.806 63.1638 161.14 63.5968C160.595 63.2426 160.589 62.4685 160.556 61.819C160.523 61.1696 160.248 60.3627 159.598 60.3168C158.85 60.2643 158.516 61.2418 158.522 61.9896C158.535 62.7506 158.654 63.5115 158.877 64.2462C159.041 64.7907 159.264 65.3746 159.073 65.9125C158.929 66.3192 158.568 66.6078 158.221 66.8571C157.381 67.4606 156.417 68.0117 155.38 67.9986C154.344 67.992 153.248 67.2376 153.209 66.2011C153.196 65.9256 153.261 65.637 153.196 65.368C153.025 64.6726 152.14 64.4299 151.431 64.5283C150.723 64.6267 150.014 64.9219 149.312 64.7776C148.61 64.6333 148.026 63.7214 148.525 63.2032C147.58 62.8752 146.236 62.7112 145.862 63.6362C145.744 63.9314 145.776 64.2659 145.77 64.5874C145.73 66.5685 143.27 69.4221 141.591 67.3557C140.489 65.9978 142.391 63.5181 140.41 62.4029C139.466 61.865 138.18 62.3373 137.242 61.7862C136.947 61.4386 137.452 60.9728 137.891 60.8547C139.282 60.4874 140.85 60.9138 141.86 61.9306C142.424 60.776 141.552 59.0835 142.536 58.257C143.5 57.437 145.363 58.4013 146.085 57.3648C146.295 57.0696 146.327 56.6891 146.354 56.3218C146.485 54.5374 145.934 51.2574 148.453 50.9557C148.761 50.9163 149.076 50.9426 149.365 50.831C150.237 50.4899 150.231 49.2763 150.067 48.3514C149.115 47.9446 148.099 48.6466 147.187 49.132C146.275 49.6174 144.825 49.6962 144.517 48.7122C144.294 48.0102 144.845 47.1246 144.379 46.5539C144.163 46.2915 143.782 46.1866 143.598 45.8979C143.152 45.196 144.235 44.4941 144.425 43.6872C144.687 42.5786 143.205 41.8635 142.063 41.9488C140.922 42.0341 139.649 42.4146 138.731 41.7389C138.442 41.5224 138.226 41.2206 137.95 40.9845C137.117 40.2432 135.904 40.1776 134.788 40.1514C133.011 40.1054 137.058 32.791 137.097 32.345C137.406 28.9534 133.922 27.1429 131.935 24.9912C130.892 23.8563 130.131 22.505 129.37 21.1602C99.4037 33.0206 77.244 60.5333 72.219 92.3886C71.996 93.8187 71.727 95.2947 71.7139 96.7182C73.8197 96.1278 77.0866 94.5534 79.2251 95.8326C81.9344 97.4595 79.973 101.481 83.1021 102.668C83.8762 102.655 83.6531 101.382 84.0992 100.753C84.3485 100.405 84.8077 100.287 85.1882 100.09C85.5752 99.8933 85.9426 99.48 85.7851 99.0798C86.4608 98.5485 87.3923 99.2242 88.0221 99.8146C88.7633 100.503 89.603 101.14 90.5936 101.35C92.6534 101.783 94.5624 100.307 96.4189 99.3094C97.9539 98.4894 99.6267 97.9646 101.293 97.4398C100.486 97.4858 100.079 96.3771 100.388 95.6293C100.696 94.888 101.398 94.3894 101.91 93.7728C102.782 92.7101 102.113 91.4768 102.841 90.3485C103.746 88.9446 105.485 87.9672 105.629 86.3075C105.813 84.3002 103.589 83.0144 101.719 82.2731C102.71 80.0034 105.393 78.4486 105.393 75.969C105.393 75.0178 104.967 74.1256 104.553 73.2662C103.707 71.5147 102.861 69.7632 102.015 68.0182C101.66 67.2901 101.3 66.4898 101.516 65.7157C101.759 64.7973 102.697 64.2659 103.536 63.8461C104.455 63.3869 105.373 62.9277 106.285 62.4619C106.666 62.2782 107.079 62.0814 107.492 62.1536C107.938 62.2323 108.266 62.5866 108.542 62.9474C110.037 64.8891 110.752 67.4082 110.503 69.855C113.757 69.3696 116.952 68.484 119.982 67.2179C119.648 69.0941 120.422 71.1736 119.838 72.9317" fill="#F5F5F5"/>
<path opacity="0.4" d="M186.416 83.8353C187.288 84.4651 187.996 85.4228 188.049 86.4987C188.082 87.1612 187.872 87.8107 187.826 88.4732C187.78 89.1358 187.97 89.8968 188.554 90.2116C189.295 90.6184 190.194 90.1132 190.883 89.6212C191.447 89.2211 192.051 88.7619 192.188 88.0862C192.287 87.5942 192.116 87.0825 192.156 86.5774C192.241 85.5868 193.12 84.8849 193.822 84.1764C194.524 83.4679 195.121 82.3528 194.57 81.5196C194.202 80.9752 193.468 80.7849 193.074 80.2535C192.123 78.9678 193.848 77.1638 193.054 75.9961C192.116 74.6054 189.794 75.3204 188.515 76.0223C187.216 76.7308 186.271 78.0494 185.34 79.1646C182.716 82.3199 183.634 81.8345 186.416 83.8353Z" fill="#F5F5F5"/>
<path opacity="0.4" d="M221.039 35.1333C205.623 21.7575 184.106 14.8826 163.908 14.7383C163.344 14.7317 162.786 14.7383 162.229 14.7383C159.565 17.7427 158.148 23.4368 163.429 24.4995C163.429 25.0768 163.101 25.2211 162.806 25.6803C162.347 26.4019 163.114 27.3138 163.902 27.6418C166.493 28.7111 169.642 28.652 169.228 32.1616C168.736 36.3535 166.755 33.6836 164.584 35.1989C164.269 35.4154 164.085 35.7762 163.829 36.0648C162.904 37.1275 161.284 37.121 159.88 37.0226C160.235 36.2026 159.684 35.1202 158.811 34.9234C158.483 34.8447 158.109 34.8709 157.84 34.6741C157.25 34.2477 157.696 33.244 158.365 32.9685C159.034 32.693 159.808 32.8045 160.504 32.6011C161.199 32.3978 161.835 31.5712 161.415 30.9808C161.238 30.7315 160.93 30.62 160.635 30.5544C159.395 30.2723 158.024 30.6528 157.105 31.5319C156.876 30.8627 156.154 30.4035 155.452 30.4757C154.75 30.5413 154.134 31.1383 154.035 31.8336C153.891 32.857 154.593 34.2477 153.681 34.7266C154.495 34.5167 155.413 34.8053 155.957 35.4416C158.096 37.9607 156.823 44.0877 162.458 43.0578C163.364 42.8938 164.23 42.5067 165.148 42.4608C166.066 42.4149 167.116 42.8413 167.365 43.7269C168.546 42.0082 171.583 42.3755 172.594 40.5519C173.066 39.6925 172.849 38.5117 172.102 37.8754C171.977 37.7704 171.833 37.672 171.774 37.5211C171.649 37.2128 171.924 36.8979 171.97 36.5634C172.049 35.9927 171.426 35.5466 171.354 34.9759C171.249 34.1755 172.174 33.6704 172.954 33.4671C173.735 33.2637 174.686 32.9816 174.844 32.1879C174.896 31.9189 174.837 31.6368 174.896 31.3679C175.008 30.8234 175.559 30.4626 176.11 30.3904C176.661 30.3183 177.212 30.4757 177.743 30.6331C178.104 30.9415 177.947 31.5515 177.619 31.8992C177.297 32.2469 176.844 32.4765 176.582 32.8701C176.431 33.0932 177.166 37.8688 176.805 37.7442C178.511 38.3346 182.158 38.4199 181.423 40.9717C181.161 41.8704 180.636 42.8085 180.971 43.6875C179.77 43.3464 178.563 43.025 177.356 42.7167C177.061 43.1037 177.546 43.6351 178.019 43.7531C178.491 43.8712 179.049 43.8581 179.37 44.2189C179.593 44.4748 179.626 44.8421 179.646 45.1832C179.705 46.2919 179.77 47.4005 179.829 48.5157C179.895 49.7227 180.059 51.1003 181.056 51.776C182.191 52.5501 183.792 51.9335 184.749 50.9495C184.979 50.7133 185.228 50.4378 185.556 50.4312C185.851 50.4312 186.094 50.6543 186.317 50.8576C187.485 51.9007 189.125 52.5304 190.653 52.1696C192.182 51.8088 193.441 50.2738 193.185 48.7256C193.087 48.1287 192.831 47.4005 193.29 47.0135C193.559 46.7839 194.025 46.7576 194.143 46.4231C194.294 46.0032 193.763 45.7015 193.402 45.4325C192.752 44.9536 192.523 43.9893 192.884 43.2677C193.067 42.9003 196.4 41.5293 196.912 41.7851C198.099 42.3624 197.889 45.544 198.033 46.7708C198.092 47.2431 198.178 47.7744 198.558 48.0565C199.155 48.5026 200.021 48.0368 200.48 47.453C200.946 46.8691 201.28 46.1279 201.956 45.8064C202.343 45.6162 202.796 45.6031 203.229 45.5899C204.108 45.5637 205.092 45.5768 205.708 46.2C205.997 46.4887 206.168 46.8823 206.456 47.1775C207.119 47.84 208.214 47.8072 209.093 47.4923C209.972 47.1775 210.766 46.633 211.672 46.3903C213.6 45.8786 215.798 46.7904 217.569 45.872C218.422 45.4325 219.038 44.2058 218.363 43.5235C217.779 42.9331 216.506 43.0315 216.355 42.2181C216.204 41.4375 218.127 40.3091 218.461 39.6203C218.73 39.0759 218.146 38.0722 218.763 37.0619C219.275 36.2616 220.495 36.0123 221.039 35.1333Z" fill="#F5F5F5"/>
<path opacity="0.4" d="M107.879 167.087C106.784 166.352 105.557 165.933 105.176 164.424C104.658 162.371 105.76 161.498 107.8 162.259C107.984 162.325 108.181 162.397 108.365 162.338C108.955 162.148 108.535 161.282 108.155 160.796C107.256 159.661 107.197 158.139 107.663 156.821C107.774 156.506 102.028 156.375 101.398 156.722C99.1806 157.936 100.624 162.659 98.0589 161.859C97.8883 160.061 97.9802 158.205 97.9736 156.388C97.1011 156.355 96.2221 156.322 95.3496 156.289C95.999 156.316 95.612 152.964 95.3955 152.596C94.5361 151.173 91.8728 151.776 92.109 149.093C92.4107 145.695 98.997 145 98.2032 148.903C100.211 149.67 102.552 149.841 104.698 149.782C104.75 150.471 104.789 151.173 104.829 151.861C105.327 152.17 105.983 152.222 106.528 151.986C107.571 150.241 107.413 147.847 106.147 146.253C106.902 145.098 105.983 143.616 105.104 142.559C107.512 140.795 106.823 136.314 103.989 135.363C101.155 134.412 97.8949 137.561 98.7477 140.421C97.3635 140.578 96.0384 141.188 95.0216 142.126C94.8707 138.512 92.1483 135.147 88.6387 134.254C86.8741 133.802 84.7814 133.828 83.581 132.457C83.043 131.853 82.7806 131.053 82.2821 130.41C81.1538 128.98 79.1398 128.692 77.3227 128.587C76.1026 128.521 74.889 128.501 73.6688 128.521C78.7594 149.684 91.1578 168.025 108.069 180.693C108.712 180.719 109.375 180.706 109.932 180.417C110.962 179.86 111.284 178.561 111.5 177.4C112.333 172.906 111.868 170.105 108.207 167.31C108.096 167.232 107.991 167.159 107.879 167.087Z" fill="#F5F5F5"/>
<path d="M190.863 174.014C192.595 174.185 193.369 176.31 193.723 178.042C194.248 180.646 194.773 183.251 195.298 185.848C192.129 187.337 192.392 191.201 193.868 193.825C229.482 181.283 255.118 147.466 255.4 107.542C255.42 104.485 255.296 101.46 255.027 98.4822C254.954 98.4363 254.869 98.3904 254.79 98.351C252.278 97.1637 250.297 99.3088 248.401 100.522C247.975 100.798 242.451 103.481 242.379 102.733C242.608 105.141 242.484 107.588 241.992 109.962C241.952 110.139 241.907 110.336 241.756 110.441C241.395 110.69 240.988 110.192 240.857 109.779C240.522 108.716 240.378 107.594 239.978 106.558C239.578 105.515 238.85 104.517 237.787 104.183C236.718 103.848 235.556 104.242 234.448 104.084C233.096 103.894 231.968 102.891 231.286 101.71C230.63 100.568 230.322 99.2498 229.987 97.9902C228.682 100.883 225.382 99.0989 223.44 101.434C222.817 102.182 222.069 103.264 221.164 102.904C220.304 102.556 220.206 101.087 219.281 100.975C218.638 100.896 218.166 101.605 218.068 102.248C217.969 102.891 218.074 103.579 217.805 104.163C217.425 104.99 216.27 105.344 215.489 104.872C214.788 104.445 214.519 103.586 214.079 102.891C213.64 102.195 212.701 101.618 212.039 102.103C211.881 102.215 211.77 102.379 211.678 102.549C211.035 103.783 211.763 105.272 212.623 106.367C213.482 107.456 214.538 108.552 214.624 109.936C214.125 110.29 213.338 110.126 213.029 109.601C212.918 109.418 212.859 109.201 212.695 109.064C212.341 108.768 211.816 109.05 211.429 109.3C209.599 110.48 207.289 110.894 205.164 110.408C205.007 107.601 204.849 104.793 204.692 101.985C204.055 101.966 203.675 101.92 203.432 101.27C201.326 103.324 199.398 105.534 197.076 107.378C196.8 107.601 196.498 107.843 196.406 108.184C196.308 108.545 196.459 108.919 196.433 109.293C196.36 110.52 194.714 110.841 193.487 110.808C193.133 111.005 193.336 111.589 193.691 111.792C194.045 111.989 194.491 112.009 194.812 112.258C195.291 112.632 195.304 113.367 195.127 113.951C194.517 115.978 192.037 117.218 190.05 116.483C189.814 116.398 189.577 116.273 189.433 116.07C189.125 115.61 189.413 115 189.472 114.449C189.696 112.271 187.347 112.783 186.265 113.38C184.795 114.193 183.975 116.358 183.7 117.906C183.378 119.717 182.014 131.715 178.006 130.056C177.632 129.898 177.356 129.564 177.166 129.203C176.589 128.114 176.628 126.802 176.202 125.641C175.775 124.48 174.457 123.423 173.381 124.027C172.948 124.27 172.672 124.722 172.259 124.991C171.111 125.752 169.471 124.84 168.218 125.411C167.641 125.673 167.241 126.211 166.716 126.572C166.191 126.933 165.371 127.044 165.004 126.533C164.59 125.956 165.076 125.083 164.735 124.46C164.38 123.804 163.272 123.942 162.898 124.584C162.524 125.227 162.747 126.08 163.213 126.664C163.456 126.972 163.764 127.248 163.849 127.635C163.993 128.317 163.344 128.888 162.773 129.288C161.861 129.918 160.943 130.554 160.031 131.184C160.09 131.814 160.707 132.26 161.317 132.43C161.927 132.601 162.583 132.594 163.193 132.798C166.119 133.775 166.106 138.111 169.943 137.258C169.714 136.104 170.947 134.93 172.082 135.212C173.486 135.559 174.398 137.56 175.788 137.167C176.274 137.029 176.641 136.609 177.133 136.491C178.484 136.169 179.147 138.249 179.528 139.135C180.787 142.073 178.826 142.428 178.904 145.052C178.944 146.252 179.829 147.262 180.052 148.443C180.256 149.532 179.875 150.654 180.02 151.749C180.426 154.76 184.408 152.937 186.173 152.583C185.215 154.288 186.639 156.361 188.193 157.548C190.581 159.366 190.174 159.208 190.47 161.832C190.548 162.528 190.948 163.229 191.604 163.459C192.746 163.866 193.861 162.737 195.068 162.619C195.645 162.56 196.236 162.744 196.807 162.646C198.315 162.39 198.84 160.546 199.818 159.372C200.677 158.349 202.061 157.791 203.386 157.929C203.491 158.703 203.498 159.49 203.399 160.264C202.553 160.783 201.713 161.307 200.867 161.826C200.119 162.285 199.345 162.777 198.886 163.518C198.63 163.938 198.466 164.43 198.092 164.751C197.351 165.381 196.236 165.001 195.258 164.942C192.897 164.791 189.046 166.26 186.77 167.008C184.343 167.802 183.496 169.52 181.259 170.288C180.866 170.426 180.774 170.996 181.01 171.344C181.24 171.692 181.673 171.843 182.086 171.915C183.037 172.085 184.047 171.915 184.9 171.449C183.785 172.059 187.039 174.749 187.629 174.88C188.593 175.096 189.892 174.368 190.876 174.322C193.31 174.198 194.72 174.683 193.12 177.333C192.51 178.344 191.795 179.636 192.464 180.607C193.107 180.338 193.887 180.725 194.248 181.322C194.609 181.919 194.635 182.66 194.556 183.356C194.504 183.821 194.392 184.32 194.045 184.641C193.861 184.812 193.618 184.93 193.481 185.14C193.028 185.822 193.96 186.57 194.72 186.865" fill="#F5F5F5"/>
<path d="M110.228 68.4512C110.982 67.8805 112.064 68.3397 112.852 68.8645C113.639 69.3893 114.57 69.9994 115.456 69.6779C115.476 68.5824 115.489 67.4803 115.508 66.3848C115.508 66.1814 115.522 65.9453 115.672 65.8075C115.823 65.6632 116.06 65.6632 116.269 65.6763C116.978 65.7091 117.68 65.7419 118.388 65.7747C118.979 66.4242 117.332 67.2114 117.568 68.0576C117.673 68.4315 118.093 68.5955 118.434 68.7792C121.347 70.3405 119.497 73.5877 118.178 75.3523C116.65 77.399 116.748 80.187 116.912 82.7389C116.971 83.6442 117.083 84.661 117.778 85.2579C118.46 85.8418 119.458 85.8024 120.33 86.0582C121.839 86.4978 122.902 87.8294 124.312 88.5248C129.239 90.952 132.486 85.6778 130.879 81.5187C130.045 79.367 129.691 79.7738 130.17 77.4712C130.367 76.5134 130.052 75.3786 131.049 74.7226C132.105 74.0272 133.634 74.775 133.719 76.0608C133.804 77.3269 134.093 78.5274 133.575 79.7147C135.031 79.1768 136.769 79.5179 138.357 79.5179C138.127 80.9874 140.023 82.2797 141.309 81.5318C141.27 80.8102 141.46 79.8262 142.181 79.8262C142.391 79.8262 142.588 79.9312 142.765 80.0362C143.52 80.4822 144.189 81.0726 144.983 81.4466C146.209 82.0173 149.725 81.7483 150.27 83.3949C150.368 83.6835 150.368 84.005 150.48 84.287C150.723 84.8906 151.49 85.1858 152.113 84.9955C152.736 84.8053 153.183 84.2083 153.301 83.5654C153.379 83.139 153.333 82.693 153.445 82.2731C154.035 80.0427 156.325 81.7877 157.348 81.1907C157.84 80.9021 159.861 77.0973 159.907 76.6381C160.877 77.8517 162.334 78.8685 163.954 78.7963C165.725 78.711 166.48 77.3072 166.88 75.5819C167.3 73.7648 167.319 71.6 167.72 70.2814C167.936 69.573 168.113 68.7136 167.615 68.1691C166.991 67.4869 165.653 67.7493 165.2 66.9424C165.056 66.6866 165.043 66.3782 164.997 66.0896C164.708 64.3971 162.806 63.1638 161.14 63.5968C160.595 63.2426 160.589 62.4685 160.556 61.819C160.523 61.1696 160.248 60.3627 159.598 60.3168C158.85 60.2643 158.516 61.2418 158.522 61.9896C158.535 62.7506 158.654 63.5115 158.877 64.2462C159.041 64.7907 159.264 65.3746 159.073 65.9125C158.929 66.3192 158.568 66.6078 158.221 66.8571C157.381 67.4606 156.417 68.0117 155.38 67.9986C154.344 67.992 153.248 67.2376 153.209 66.2011C153.196 65.9256 153.261 65.637 153.196 65.368C153.025 64.6726 152.14 64.4299 151.431 64.5283C150.723 64.6267 150.014 64.9219 149.312 64.7776C148.61 64.6333 148.026 63.7214 148.525 63.2032C147.58 62.8752 146.236 62.7112 145.862 63.6362C145.744 63.9314 145.776 64.2659 145.77 64.5874C145.73 66.5685 143.27 69.4221 141.591 67.3557C140.489 65.9978 142.391 63.5181 140.41 62.4029C139.466 61.865 138.18 62.3373 137.242 61.7862C136.947 61.4386 137.452 60.9728 137.891 60.8547C139.282 60.4874 140.85 60.9138 141.86 61.9306C142.424 60.776 141.552 59.0835 142.536 58.257C143.5 57.437 145.363 58.4013 146.085 57.3648C146.295 57.0696 146.327 56.6891 146.354 56.3218C146.485 54.5374 145.934 51.2574 148.453 50.9557C148.761 50.9163 149.076 50.9426 149.365 50.831C150.237 50.4899 150.231 49.2763 150.067 48.3514C149.115 47.9446 148.099 48.6466 147.187 49.132C146.275 49.6174 144.825 49.6962 144.517 48.7122C144.294 48.0102 144.845 47.1246 144.379 46.5539C144.163 46.2915 143.782 46.1866 143.598 45.8979C143.152 45.196 144.235 44.4941 144.425 43.6872C144.687 42.5786 143.205 41.8635 142.063 41.9488C140.922 42.0341 139.649 42.4146 138.731 41.7389C138.442 41.5224 138.226 41.2206 137.95 40.9845C137.117 40.2432 135.904 40.1776 134.788 40.1514C133.011 40.1054 137.058 32.791 137.097 32.345C137.406 28.9534 133.922 27.1429 131.935 24.9912C130.892 23.8563 130.131 22.505 129.37 21.1602C99.4037 33.0206 77.244 60.5333 72.219 92.3886C71.996 93.8187 71.727 95.2947 71.7139 96.7182C73.8197 96.1278 77.0866 94.5534 79.2251 95.8326C81.9344 97.4595 79.973 101.481 83.1021 102.668C83.8762 102.655 83.6531 101.382 84.0992 100.753C84.3485 100.405 84.8077 100.287 85.1882 100.09C85.5752 99.8933 85.9426 99.48 85.7851 99.0798C86.4608 98.5485 87.3923 99.2242 88.0221 99.8146C88.7633 100.503 89.603 101.14 90.5936 101.35C92.6534 101.783 94.5624 100.307 96.4189 99.3094C97.9539 98.4894 99.6267 97.9646 101.293 97.4398C100.486 97.4858 100.079 96.3771 100.388 95.6293C100.696 94.888 101.398 94.3894 101.91 93.7728C102.782 92.7101 102.113 91.4768 102.841 90.3485C103.746 88.9446 105.485 87.9672 105.629 86.3075C105.813 84.3002 103.589 83.0144 101.719 82.2731C102.71 80.0034 105.393 78.4486 105.393 75.969C105.393 75.0178 104.967 74.1256 104.553 73.2662C103.707 71.5147 102.861 69.7632 102.015 68.0182C101.66 67.2901 101.3 66.4898 101.516 65.7157C101.759 64.7973 102.697 64.2659 103.536 63.8461C104.455 63.3869 105.373 62.9277 106.285 62.4619C106.666 62.2782 107.079 62.0814 107.492 62.1536C107.938 62.2323 108.266 62.5866 108.542 62.9474C110.037 64.8891 110.752 67.4082 110.503 69.855C113.757 69.3696 116.952 68.484 119.982 67.2179C119.648 69.0941 120.422 71.1736 119.838 72.9317" fill="#F5F5F5"/>
<path d="M186.416 83.8353C187.288 84.4651 187.996 85.4228 188.049 86.4987C188.082 87.1612 187.872 87.8107 187.826 88.4732C187.78 89.1358 187.97 89.8968 188.554 90.2116C189.295 90.6184 190.194 90.1132 190.883 89.6212C191.447 89.2211 192.051 88.7619 192.188 88.0862C192.287 87.5942 192.116 87.0825 192.156 86.5774C192.241 85.5868 193.12 84.8849 193.822 84.1764C194.524 83.4679 195.121 82.3528 194.57 81.5196C194.202 80.9752 193.468 80.7849 193.074 80.2535C192.123 78.9678 193.848 77.1638 193.054 75.9961C192.116 74.6054 189.794 75.3204 188.515 76.0223C187.216 76.7308 186.271 78.0494 185.34 79.1646C182.716 82.3199 183.634 81.8345 186.416 83.8353Z" fill="#F5F5F5"/>
<path d="M221.039 35.1333C205.623 21.7575 184.106 14.8826 163.908 14.7383C163.344 14.7317 162.786 14.7383 162.229 14.7383C159.565 17.7427 158.148 23.4368 163.429 24.4995C163.429 25.0768 163.101 25.2211 162.806 25.6803C162.347 26.4019 163.114 27.3138 163.902 27.6418C166.493 28.7111 169.642 28.652 169.228 32.1616C168.736 36.3535 166.755 33.6836 164.584 35.1989C164.269 35.4154 164.085 35.7762 163.829 36.0648C162.904 37.1275 161.284 37.121 159.88 37.0226C160.235 36.2026 159.684 35.1202 158.811 34.9234C158.483 34.8447 158.109 34.8709 157.84 34.6741C157.25 34.2477 157.696 33.244 158.365 32.9685C159.034 32.693 159.808 32.8045 160.504 32.6011C161.199 32.3978 161.835 31.5712 161.415 30.9808C161.238 30.7315 160.93 30.62 160.635 30.5544C159.395 30.2723 158.024 30.6528 157.105 31.5319C156.876 30.8627 156.154 30.4035 155.452 30.4757C154.75 30.5413 154.134 31.1383 154.035 31.8336C153.891 32.857 154.593 34.2477 153.681 34.7266C154.495 34.5167 155.413 34.8053 155.957 35.4416C158.096 37.9607 156.823 44.0877 162.458 43.0578C163.364 42.8938 164.23 42.5067 165.148 42.4608C166.066 42.4149 167.116 42.8413 167.365 43.7269C168.546 42.0082 171.583 42.3755 172.594 40.5519C173.066 39.6925 172.849 38.5117 172.102 37.8754C171.977 37.7704 171.833 37.672 171.774 37.5211C171.649 37.2128 171.924 36.8979 171.97 36.5634C172.049 35.9927 171.426 35.5466 171.354 34.9759C171.249 34.1755 172.174 33.6704 172.954 33.4671C173.735 33.2637 174.686 32.9816 174.844 32.1879C174.896 31.9189 174.837 31.6368 174.896 31.3679C175.008 30.8234 175.559 30.4626 176.11 30.3904C176.661 30.3183 177.212 30.4757 177.743 30.6331C178.104 30.9415 177.947 31.5515 177.619 31.8992C177.297 32.2469 176.844 32.4765 176.582 32.8701C176.431 33.0932 177.166 37.8688 176.805 37.7442C178.511 38.3346 182.158 38.4199 181.423 40.9717C181.161 41.8704 180.636 42.8085 180.971 43.6875C179.77 43.3464 178.563 43.025 177.356 42.7167C177.061 43.1037 177.546 43.6351 178.019 43.7531C178.491 43.8712 179.049 43.8581 179.37 44.2189C179.593 44.4748 179.626 44.8421 179.646 45.1832C179.705 46.2919 179.77 47.4005 179.829 48.5157C179.895 49.7227 180.059 51.1003 181.056 51.776C182.191 52.5501 183.792 51.9335 184.749 50.9495C184.979 50.7133 185.228 50.4378 185.556 50.4312C185.851 50.4312 186.094 50.6543 186.317 50.8576C187.485 51.9007 189.125 52.5304 190.653 52.1696C192.182 51.8088 193.441 50.2738 193.185 48.7256C193.087 48.1287 192.831 47.4005 193.29 47.0135C193.559 46.7839 194.025 46.7576 194.143 46.4231C194.294 46.0032 193.763 45.7015 193.402 45.4325C192.752 44.9536 192.523 43.9893 192.884 43.2677C193.067 42.9003 196.4 41.5293 196.912 41.7851C198.099 42.3624 197.889 45.544 198.033 46.7708C198.092 47.2431 198.178 47.7744 198.558 48.0565C199.155 48.5026 200.021 48.0368 200.48 47.453C200.946 46.8691 201.28 46.1279 201.956 45.8064C202.343 45.6162 202.796 45.6031 203.229 45.5899C204.108 45.5637 205.092 45.5768 205.708 46.2C205.997 46.4887 206.168 46.8823 206.456 47.1775C207.119 47.84 208.214 47.8072 209.093 47.4923C209.972 47.1775 210.766 46.633 211.672 46.3903C213.6 45.8786 215.798 46.7904 217.569 45.872C218.422 45.4325 219.038 44.2058 218.363 43.5235C217.779 42.9331 216.506 43.0315 216.355 42.2181C216.204 41.4375 218.127 40.3091 218.461 39.6203C218.73 39.0759 218.146 38.0722 218.763 37.0619C219.275 36.2616 220.495 36.0123 221.039 35.1333Z" fill="#F5F5F5"/>
<path d="M107.879 167.087C106.784 166.352 105.557 165.933 105.176 164.424C104.658 162.371 105.76 161.498 107.8 162.259C107.984 162.325 108.181 162.397 108.365 162.338C108.955 162.148 108.535 161.282 108.155 160.796C107.256 159.661 107.197 158.139 107.663 156.821C107.774 156.506 102.028 156.375 101.398 156.722C99.1806 157.936 100.624 162.659 98.0589 161.859C97.8883 160.061 97.9802 158.205 97.9736 156.388C97.1011 156.355 96.2221 156.322 95.3496 156.289C95.999 156.316 95.612 152.964 95.3955 152.596C94.5361 151.173 91.8728 151.776 92.109 149.093C92.4107 145.695 98.997 145 98.2032 148.903C100.211 149.67 102.552 149.841 104.698 149.782C104.75 150.471 104.789 151.173 104.829 151.861C105.327 152.17 105.983 152.222 106.528 151.986C107.571 150.241 107.413 147.847 106.147 146.253C106.902 145.098 105.983 143.616 105.104 142.559C107.512 140.795 106.823 136.314 103.989 135.363C101.155 134.412 97.8949 137.561 98.7477 140.421C97.3635 140.578 96.0384 141.188 95.0216 142.126C94.8707 138.512 92.1483 135.147 88.6387 134.254C86.8741 133.802 84.7814 133.828 83.581 132.457C83.043 131.853 82.7806 131.053 82.2821 130.41C81.1538 128.98 79.1398 128.692 77.3227 128.587C76.1026 128.521 74.889 128.501 73.6688 128.521C78.7594 149.684 91.1578 168.025 108.069 180.693C108.712 180.719 109.375 180.706 109.932 180.417C110.962 179.86 111.284 178.561 111.5 177.4C112.333 172.906 111.868 170.105 108.207 167.31C108.096 167.232 107.991 167.159 107.879 167.087Z" fill="#F5F5F5"/>
<path d="M54.612 57.8899C54.612 54.951 56.9998 52.5632 59.9387 52.5632C60.4701 52.5632 60.9818 52.6419 61.4672 52.7862C61.3885 52.2549 61.3491 51.7038 61.3491 51.1528C61.3491 44.9208 66.4003 39.8696 72.6323 39.8696C73.3408 39.8696 74.0362 39.9352 74.7118 40.0664C76.4437 37.2259 79.5597 35.3301 83.1283 35.3301C88.5272 35.3301 92.9093 39.6728 92.988 45.052C93.0405 45.052 93.0995 45.0454 93.152 45.0454C98.1704 45.0454 102.238 49.1126 102.238 54.131C102.238 59.1494 98.1704 63.2166 93.152 63.2166H59.7813L59.7878 63.2101C56.9146 63.1248 54.612 60.7763 54.612 57.8899Z" fill="#FAFAFA"/>
<path d="M234.992 74.9653C234.992 72.4397 237.039 70.3995 239.558 70.3995C240.017 70.3995 240.457 70.4651 240.87 70.5898C240.804 70.1306 240.765 69.6648 240.765 69.1859C240.765 63.8395 245.095 59.5099 250.441 59.5099C251.051 59.5099 251.648 59.569 252.225 59.6739C253.715 57.2402 256.385 55.6133 259.448 55.6133C264.079 55.6133 267.838 59.3328 267.904 63.951C267.95 63.951 267.996 63.9445 268.042 63.9445C272.345 63.9445 275.835 67.4344 275.835 71.7378C275.835 76.0411 272.345 79.531 268.042 79.531H239.42L239.427 79.5245C236.967 79.4589 234.992 77.445 234.992 74.9653Z" fill="#FAFAFA"/>
<path d="M131.272 116.588C131.272 113.649 133.66 111.261 136.599 111.261C137.13 111.261 137.642 111.34 138.127 111.484C138.049 110.953 138.009 110.402 138.009 109.851C138.009 103.619 143.06 98.5678 149.292 98.5678C150.001 98.5678 150.696 98.6334 151.372 98.7646C153.104 95.9242 156.22 94.0283 159.788 94.0283C165.187 94.0283 169.569 98.371 169.648 103.75C169.701 103.75 169.76 103.744 169.812 103.744C174.831 103.744 178.898 107.811 178.898 112.829C178.898 117.848 174.831 121.915 169.812 121.915H136.441L136.448 121.908C133.575 121.83 131.272 119.481 131.272 116.588Z" fill="#FAFAFA"/>
<path d="M49.0294 166.071C49.0294 164.031 50.6826 162.377 52.7227 162.377C53.0901 162.377 53.4443 162.43 53.7854 162.535C53.733 162.167 53.7002 161.787 53.7002 161.4C53.7002 157.083 57.2032 153.58 61.5197 153.58C62.0117 153.58 62.4906 153.626 62.9629 153.718C64.1634 151.75 66.3282 150.432 68.8013 150.432C72.547 150.432 75.5843 153.443 75.6368 157.169C75.6762 157.169 75.709 157.162 75.7483 157.162C79.2251 157.162 82.0459 159.983 82.0459 163.46C82.0459 166.937 79.2251 169.757 75.7483 169.757H52.6112L52.6178 169.751C50.6235 169.705 49.0294 168.078 49.0294 166.071Z" fill="#FAFAFA"/>
<path d="M248.086 168.734C248.086 166.825 249.634 165.277 251.543 165.277C251.891 165.277 252.219 165.329 252.534 165.421C252.481 165.074 252.455 164.719 252.455 164.358C252.455 160.318 255.728 157.044 259.769 157.044C260.229 157.044 260.681 157.09 261.114 157.169C262.236 155.325 264.263 154.099 266.572 154.099C270.075 154.099 272.916 156.913 272.968 160.403C273.001 160.403 273.04 160.396 273.073 160.396C276.327 160.396 278.964 163.033 278.964 166.287C278.964 169.541 276.327 172.178 273.073 172.178H251.432L251.438 172.171C249.582 172.132 248.086 170.61 248.086 168.734Z" fill="#FAFAFA"/>
<path d="M274.464 138.702C283.267 115.486 240.85 77.8778 179.724 54.7079C118.598 31.5379 61.9133 31.5707 53.1163 54.7866" stroke="#E0E0E0" stroke-width="1.25709" stroke-miterlimit="10" stroke-linecap="round" stroke-linejoin="round"/>
<path d="M234.205 4.75978C214.25 -10.0133 166.545 20.6087 127.651 73.1478C88.7634 125.687 73.413 180.259 93.3685 195.026" stroke="#E0E0E0" stroke-width="1.25709" stroke-miterlimit="10" stroke-linecap="round" stroke-linejoin="round"/>
<path d="M191 207.526C261.246 207.526 318.192 204.201 318.192 200.1C318.192 195.999 261.246 192.674 191 192.674C120.754 192.674 63.8082 195.999 63.8082 200.1C63.8082 204.201 120.754 207.526 191 207.526Z" fill="#F5F5F5"/>
<path d="M178.557 56.5644C178.557 56.5644 120.533 47.5182 89.7277 51.9987V174.625C89.7277 174.625 154.226 169.049 175.119 176.081L178.557 173.7V56.5644Z" fill="#263238"/>
<path opacity="0.6" d="M178.557 56.5644C178.557 56.5644 120.533 47.5182 89.7277 51.9987V174.625C89.7277 174.625 154.226 169.049 175.119 176.081L178.557 173.7V56.5644Z" fill="white"/>
<path d="M178.557 56.5644C178.557 56.5644 236.58 47.5182 267.386 51.9987V174.625C267.386 174.625 202.888 169.049 181.994 176.081L178.55 173.7V56.5644H178.557Z" fill="#263238"/>
<path opacity="0.6" d="M178.557 56.5644C178.557 56.5644 236.58 47.5182 267.386 51.9987V174.625C267.386 174.625 202.888 169.049 181.994 176.081L178.55 173.7V56.5644H178.557Z" fill="white"/>
<path d="M178.557 174.087V56.9586C178.557 56.9586 147.088 39.5615 92.391 50.228V171.982C92.391 171.982 139.538 164.097 178.557 174.087Z" fill="#407BFF"/>
<path opacity="0.8" d="M178.557 174.087V56.9586C178.557 56.9586 147.088 39.5615 92.391 50.228V171.982C92.391 171.982 139.538 164.097 178.557 174.087Z" fill="white"/>
<path d="M178.557 174.087V56.9578C178.557 56.9578 147.62 38.0912 93.8474 46.1797V167.933C93.8474 167.933 140.194 162.259 178.557 174.087Z" fill="#407BFF"/>
<path opacity="0.7" d="M178.557 174.087V56.9578C178.557 56.9578 147.62 38.0912 93.8474 46.1797V167.933C93.8474 167.933 140.194 162.259 178.557 174.087Z" fill="white"/>
<path d="M178.557 174.041V56.9056C178.557 56.9056 147.83 37.0354 95.3758 43.3723V165.126C95.3758 165.132 141.138 160.967 178.557 174.041Z" fill="#407BFF"/>
<path opacity="0.8" d="M178.557 174.041V56.9056C178.557 56.9056 147.83 37.0354 95.3758 43.3723V165.126C95.3758 165.132 141.138 160.967 178.557 174.041Z" fill="white"/>
<path d="M178.557 173.693V56.5645C178.557 56.5645 148.663 36.071 97.0815 41.3256V163.079C97.0815 163.079 141.762 159.845 178.557 173.693Z" fill="#407BFF"/>
<path opacity="0.7" d="M178.557 173.693V56.5645C178.557 56.5645 148.663 36.071 97.0815 41.3256V163.079C97.0815 163.079 141.762 159.845 178.557 173.693Z" fill="white"/>
<path d="M178.557 174.087V56.9586C178.557 56.9586 210.025 39.5615 264.722 50.228V171.982C264.716 171.982 217.576 164.097 178.557 174.087Z" fill="#407BFF"/>
<path opacity="0.7" d="M178.557 174.087V56.9586C178.557 56.9586 210.025 39.5615 264.722 50.228V171.982C264.716 171.982 217.576 164.097 178.557 174.087Z" fill="white"/>
<path d="M178.557 174.087V56.9578C178.557 56.9578 209.494 38.0912 263.266 46.1797V167.933C263.266 167.933 216.913 162.259 178.557 174.087Z" fill="#407BFF"/>
<path opacity="0.8" d="M178.557 174.087V56.9578C178.557 56.9578 209.494 38.0912 263.266 46.1797V167.933C263.266 167.933 216.913 162.259 178.557 174.087Z" fill="white"/>
<path d="M178.557 174.041V56.9056C178.557 56.9056 209.284 37.0354 261.737 43.3723V165.126C261.731 165.132 215.975 160.967 178.557 174.041Z" fill="#407BFF"/>
<path opacity="0.7" d="M178.557 174.041V56.9056C178.557 56.9056 209.284 37.0354 261.737 43.3723V165.126C261.731 165.132 215.975 160.967 178.557 174.041Z" fill="white"/>
<path d="M178.557 173.693V56.5645C178.557 56.5645 208.451 36.071 260.032 41.3256V163.079C260.025 163.079 215.352 159.845 178.557 173.693Z" fill="#407BFF"/>
<path opacity="0.8" d="M178.557 173.693V56.5645C178.557 56.5645 208.451 36.071 260.032 41.3256V163.079C260.025 163.079 215.352 159.845 178.557 173.693Z" fill="white"/>
<path d="M203.183 129.669C201.084 127.576 198.335 126.526 195.593 126.526C192.844 126.526 190.102 127.583 188.003 129.669C183.805 133.867 183.805 140.663 188.003 144.862L195.593 152.451L203.183 144.862C207.381 140.663 207.381 133.867 203.183 129.669ZM199.103 140.775C198.132 141.739 196.859 142.231 195.586 142.231C194.314 142.231 193.048 141.739 192.07 140.775C190.135 138.839 190.135 135.691 192.07 133.756C193.041 132.785 194.314 132.293 195.586 132.293C196.859 132.293 198.125 132.785 199.103 133.756C201.044 135.691 201.044 138.839 199.103 140.775Z" fill="#407BFF"/>
<path opacity="0.3" d="M192.077 133.756C190.142 135.691 190.142 138.84 192.077 140.775C193.048 141.739 194.32 142.231 195.593 142.231V152.458L188.003 144.868C183.805 140.67 183.805 133.874 188.003 129.675C190.102 127.583 192.851 126.533 195.593 126.533V132.299C194.32 132.293 193.048 132.785 192.077 133.756Z" fill="white"/>
<path d="M249.201 54.5437C246.984 52.333 244.078 51.2178 241.178 51.2178C238.279 51.2178 235.379 52.333 233.156 54.5437C228.714 58.9848 228.714 66.1614 233.156 70.596L241.178 78.6189L249.201 70.596C253.636 66.1614 253.636 58.9848 249.201 54.5437ZM244.891 66.2795C243.861 67.2963 242.523 67.8146 241.178 67.8146C239.834 67.8146 238.495 67.2963 237.465 66.2795C235.419 64.2328 235.419 60.9134 237.465 58.8667C238.495 57.8368 239.834 57.3186 241.178 57.3186C242.523 57.3186 243.861 57.8368 244.891 58.8667C246.938 60.9069 246.938 64.2328 244.891 66.2795Z" fill="#407BFF"/>
<path opacity="0.3" d="M237.465 58.8609C235.419 60.9076 235.419 64.227 237.465 66.2737C238.495 67.2905 239.834 67.8087 241.178 67.8087V78.613L233.156 70.5902C228.714 66.149 228.714 58.9724 233.156 54.5378C235.373 52.3271 238.279 51.2119 241.178 51.2119V57.3062C239.834 57.3127 238.495 57.8375 237.465 58.8609Z" fill="white"/>
<path opacity="0.4" d="M197.935 153.79C210.36 156.67 224.3 158.165 235.78 151.304C241.382 147.951 245.738 142.69 248.427 136.74C250.756 131.591 251.884 125.811 251.064 120.222C248.926 105.738 235.156 99.755 222.377 105.869C218.336 107.804 214.394 110.133 209.992 110.933C203.419 112.134 196.315 109.667 192.215 104.34C188.856 99.9781 187.498 94.2578 187.924 88.7736C188.587 80.239 192.739 71.3437 201.254 68.3523C206.03 66.673 212.223 67.5848 215.148 72.0259C218.094 76.4933 217.457 82.5088 221.092 86.6285C222.974 88.767 225.618 90.1643 228.393 90.781C235.261 92.3094 244.216 89.0032 242.353 80.5933" stroke="black" stroke-width="0.637894" stroke-miterlimit="10" stroke-linecap="round" stroke-linejoin="round" stroke-dasharray="1.28 1.28"/>
<g opacity="0.2">
<path d="M107.833 56.0655C107.833 56.0655 140.299 54.2943 170.639 67.4077" stroke="black" stroke-width="0.637894" stroke-miterlimit="10" stroke-linecap="round" stroke-linejoin="round"/>
<path d="M107.833 69.4356C107.833 69.4356 140.108 67.4479 170.639 80.0497" stroke="black" stroke-width="0.637894" stroke-miterlimit="10" stroke-linecap="round" stroke-linejoin="round"/>
<path d="M107.833 82.7979C107.833 82.7979 139.918 80.6003 170.639 92.6839" stroke="black" stroke-width="0.637894" stroke-miterlimit="10" stroke-linecap="round" stroke-linejoin="round"/>
<path d="M107.833 96.1674C107.833 96.1674 139.728 93.7533 170.639 105.319" stroke="black" stroke-width="0.637894" stroke-miterlimit="10" stroke-linecap="round" stroke-linejoin="round"/>
<path d="M107.833 109.536C107.833 109.536 139.544 106.912 170.639 117.959" stroke="black" stroke-width="0.637894" stroke-miterlimit="10" stroke-linecap="round" stroke-linejoin="round"/>
<path d="M107.833 122.899C107.833 122.899 139.354 120.065 170.639 130.594" stroke="black" stroke-width="0.637894" stroke-miterlimit="10" stroke-linecap="round" stroke-linejoin="round"/>
<path d="M107.833 136.268C107.833 136.268 139.164 133.218 170.639 143.235" stroke="black" stroke-width="0.637894" stroke-miterlimit="10" stroke-linecap="round" stroke-linejoin="round"/>
<path d="M107.833 149.63C107.833 149.63 138.974 146.37 170.639 155.869" stroke="black" stroke-width="0.637894" stroke-miterlimit="10" stroke-linecap="round" stroke-linejoin="round"/>
</g>
<path d="M124.443 91.8906C124.443 90.1457 123.026 88.7287 121.281 88.7287C120.966 88.7287 120.658 88.7746 120.376 88.8599C120.422 88.545 120.448 88.217 120.448 87.889C120.448 84.1892 117.45 81.1913 113.75 81.1913C113.331 81.1913 112.917 81.2306 112.517 81.3094C111.487 79.6234 109.637 78.4951 107.518 78.4951C104.311 78.4951 101.706 81.0732 101.66 84.2679C101.628 84.2679 101.595 84.2614 101.562 84.2614C98.5837 84.2614 96.163 86.6754 96.163 89.6602C96.163 92.6385 98.5771 95.0591 101.562 95.0591H121.38L121.373 95.0526C123.079 95.0066 124.443 93.6094 124.443 91.8906Z" fill="white"/>
<path d="M183.614 83.6113C183.614 81.8664 182.197 80.4494 180.452 80.4494C180.138 80.4494 179.829 80.4953 179.547 80.5806C179.593 80.2657 179.619 79.9377 179.619 79.6097C179.619 75.9099 176.621 72.912 172.922 72.912C172.502 72.912 172.088 72.9513 171.688 73.0301C170.658 71.3441 168.808 70.2158 166.69 70.2158C163.482 70.2158 160.877 72.7939 160.832 75.9886C160.799 75.9886 160.766 75.9821 160.733 75.9821C157.755 75.9821 155.334 78.3961 155.334 81.3809C155.334 84.3592 157.748 86.7798 160.733 86.7798H180.551L180.544 86.7733C182.243 86.7208 183.614 85.3301 183.614 83.6113Z" fill="white"/>
<path d="M165.732 130.102C165.732 128.357 164.315 126.94 162.57 126.94C162.255 126.94 161.947 126.986 161.665 127.071C161.711 126.756 161.737 126.428 161.737 126.1C161.737 122.4 158.739 119.402 155.039 119.402C154.619 119.402 154.206 119.442 153.806 119.52C152.776 117.834 150.926 116.706 148.807 116.706C145.599 116.706 142.995 119.284 142.949 122.479C142.916 122.479 142.883 122.472 142.851 122.472C139.872 122.472 137.452 124.886 137.452 127.871C137.452 130.849 139.866 133.27 142.851 133.27H162.668L162.662 133.264C164.361 133.218 165.732 131.82 165.732 130.102Z" fill="white"/>
<path d="M175.113 176.081C175.113 176.081 177.546 177.268 181.994 176.081C181.994 176.081 181.253 173.699 178.55 173.699C175.86 173.693 175.113 176.081 175.113 176.081Z" fill="black"/>
<path opacity="0.5" d="M175.113 176.081C175.113 176.081 177.546 177.268 181.994 176.081C181.994 176.081 181.253 173.699 178.55 173.699C175.86 173.693 175.113 176.081 175.113 176.081Z" fill="white"/>
<path d="M240.936 206.953C240.936 206.953 244.052 200.156 240.49 193.452C236.928 186.748 235.898 185.173 238.167 183.796C240.437 182.418 241.48 189.155 241.48 189.155C241.48 189.155 243.396 184.524 241.815 179.676C240.234 174.828 239.243 166.93 241.401 166.084C243.56 165.238 241.815 175.937 243.684 179.584C243.684 179.584 245.259 175.524 245.515 171.627C245.77 167.73 245.37 161.511 247.076 159.917C248.781 158.323 249.87 159.425 248.198 168.019C246.525 176.613 246.538 183.599 246.538 183.599C246.538 183.599 250.238 172.322 252.717 171.994C255.197 171.666 255.197 175.314 253.072 178.482C250.946 181.651 246.853 187.325 246.177 190.244C246.177 190.244 250.238 181.762 253.885 184.36C257.539 186.958 250.71 192.088 247.666 193.938C244.622 195.788 242.51 207.399 242.51 207.399L240.936 206.953Z" fill="#407BFF"/>
<path opacity="0.2" d="M240.936 206.953C240.936 206.953 244.052 200.156 240.49 193.452C236.928 186.748 235.898 185.173 238.167 183.796C240.437 182.418 241.48 189.155 241.48 189.155C241.48 189.155 243.396 184.524 241.815 179.676C240.234 174.828 239.243 166.93 241.401 166.084C243.56 165.238 241.815 175.937 243.684 179.584C243.684 179.584 245.259 175.524 245.515 171.627C245.77 167.73 245.37 161.511 247.076 159.917C248.781 158.323 249.87 159.425 248.198 168.019C246.525 176.613 246.538 183.599 246.538 183.599C246.538 183.599 250.238 172.322 252.717 171.994C255.197 171.666 255.197 175.314 253.072 178.482C250.946 181.651 246.853 187.325 246.177 190.244C246.177 190.244 250.238 181.762 253.885 184.36C257.539 186.958 250.71 192.088 247.666 193.938C244.622 195.788 242.51 207.399 242.51 207.399L240.936 206.953Z" fill="black"/>
<path d="M243.396 209.741C243.396 209.741 240.358 202.899 243.999 196.247C247.64 189.595 248.69 188.034 246.44 186.63C244.189 185.226 243.068 191.944 243.068 191.944C243.068 191.944 241.211 187.279 242.851 182.458C244.491 177.63 245.574 169.751 243.428 168.872C241.283 167.993 242.897 178.719 240.982 182.333C240.982 182.333 239.46 178.253 239.243 174.35C239.033 170.453 239.512 164.241 237.826 162.62C236.14 161 235.038 162.089 236.606 170.709C238.174 179.329 238.082 186.315 238.082 186.315C238.082 186.315 234.52 174.986 232.04 174.619C229.561 174.251 229.521 177.905 231.607 181.1C233.693 184.301 237.721 190.035 238.358 192.96C238.358 192.96 234.402 184.419 230.722 186.965C227.042 189.51 233.805 194.738 236.829 196.634C239.853 198.53 241.821 210.167 241.821 210.167L243.396 209.741Z" fill="#407BFF"/>
<path d="M229.403 204.866H254.469L252.442 222.801H231.43L229.403 204.866Z" fill="#263238"/>
<path d="M140.778 71.8887L140.45 72.0921L139.905 72.4267L127.749 71.3049H127.743L132.033 67.874L140.673 70.9244C141.106 71.0753 141.165 71.6526 140.778 71.8887Z" fill="#407BFF"/>
<path opacity="0.2" d="M140.45 72.092L139.905 72.4266L127.749 71.3048L131.495 68.3135L140.135 71.3639C140.463 71.482 140.574 71.8231 140.45 72.092Z" fill="black"/>
<path d="M130.216 66.2595L123.052 70.9236L122.987 70.7662L119.025 60.9393L120.92 60.0078C120.94 59.9947 120.96 59.9881 120.986 59.9816C121.859 59.588 122.888 59.7388 123.61 60.3817L130.216 66.2595Z" fill="#407BFF"/>
<path opacity="0.2" d="M129.639 66.4363L122.987 70.7659L119.025 60.939L120.92 60.0075C120.94 59.9943 120.96 59.9878 120.986 59.9812C121.708 59.85 122.469 60.0534 123.039 60.5585L129.639 66.4363Z" fill="black"/>
<path d="M212.209 52.1426C212.19 52.1622 212.177 52.1754 212.157 52.1885L209.212 54.5698H167.726L172.961 49.3152L177.225 45.0381L181.286 45.6088L211.527 49.8859C212.629 50.0499 213.023 51.4144 212.209 52.1426Z" fill="#407BFF"/>
<path opacity="0.9" d="M195.481 54.5629H167.726L172.961 49.3084L177.225 45.0312L181.286 45.602C183.103 46.2777 184.618 46.9796 185.372 47.3732C186.58 48.0226 192.3 52.2144 195.481 54.5629Z" fill="white"/>
<path opacity="0.2" d="M212.209 52.142C212.19 52.1617 212.177 52.1748 212.157 52.1879L209.212 54.5692H168.146L176.805 45.8838L211.107 50.7382C211.849 50.8366 212.268 51.4991 212.209 52.142Z" fill="black"/>
<path d="M191.696 50.4305C192.024 50.0304 192.215 49.4728 192.208 48.8299C192.188 47.4129 191.211 46.1009 190.024 45.9041C189.505 45.8188 189.033 45.9632 188.666 46.2649C186.422 47.7212 178.826 53.1136 177.619 55.9278C176.864 57.6924 179.534 56.7478 181.384 56.3739C183.195 56.0065 188.429 52.9168 191.27 50.811C191.336 50.7716 191.395 50.7257 191.454 50.6798C191.552 50.6076 191.631 50.5224 191.696 50.4305Z" fill="#407BFF"/>
<path opacity="0.9" d="M192.208 48.8294C192.215 49.4788 192.024 50.0364 191.696 50.4366C191.631 50.5219 191.552 50.6072 191.454 50.6793C191.395 50.7318 191.329 50.7712 191.27 50.8171C190.883 51.1057 190.45 51.4075 189.991 51.7223C187.065 53.71 182.952 56.0651 181.384 56.38C179.534 56.7539 176.864 57.7051 177.619 55.9339C178.603 53.6444 183.818 49.6363 186.934 47.4452C187.642 46.9467 188.246 46.5334 188.666 46.2644C189.033 45.9627 189.505 45.8249 190.024 45.9036C191.217 46.1004 192.188 47.4124 192.208 48.8294Z" fill="white"/>
<path d="M192.208 48.8294C192.215 49.4788 192.024 50.0364 191.696 50.4366C191.631 50.5219 191.552 50.6072 191.454 50.6793C191.395 50.7318 191.329 50.7712 191.27 50.8171C190.883 51.1057 190.45 51.4075 189.991 51.7223C189.394 51.7158 188.843 51.5977 188.397 51.3353C186.835 50.4169 186.639 48.731 186.934 47.4452C187.642 46.9467 188.246 46.5334 188.666 46.2644C189.033 45.9627 189.505 45.8249 190.024 45.9036C191.217 46.1004 192.188 47.4124 192.208 48.8294Z" fill="#407BFF"/>
<path opacity="0.2" d="M192.051 48.3841C192.064 49.4468 191.355 50.1881 190.463 50.0438C189.577 49.8994 188.843 48.922 188.83 47.8593C188.816 46.7966 189.525 46.0553 190.417 46.1996C191.309 46.3439 192.044 47.3214 192.051 48.3841Z" fill="black"/>
<path d="M189.978 47.5697C190.142 47.3467 191.152 47.3008 191.172 47.5763C191.224 48.3635 190.745 48.9079 190.358 48.8423C190.299 48.8292 189.4 48.3438 189.978 47.5697Z" fill="#407BFF"/>
<path opacity="0.2" d="M178.216 56.9647C177.041 57.1943 188.777 49.2305 188.777 49.2305C188.777 49.2305 189.525 50.8508 191.178 50.3063C191.178 50.3129 185.372 55.5609 178.216 56.9647Z" fill="black"/>
<path d="M202.684 51.4794C202.927 51.1842 203.071 50.7775 203.065 50.2986C203.052 49.249 202.33 48.2847 201.451 48.1404C201.071 48.0748 200.723 48.1797 200.447 48.4093C198.788 49.4852 193.185 53.4605 192.3 55.54C191.742 56.8455 193.717 56.1436 195.081 55.868C196.42 55.5991 200.283 53.3162 202.376 51.7615C202.422 51.7287 202.468 51.6959 202.514 51.6631C202.579 51.604 202.638 51.545 202.684 51.4794Z" fill="#407BFF"/>
<path opacity="0.9" d="M203.065 50.2986C203.071 50.7775 202.927 51.1842 202.691 51.4794C202.638 51.545 202.586 51.6041 202.514 51.6566C202.468 51.6959 202.422 51.7222 202.376 51.755C202.087 51.9649 201.773 52.1879 201.438 52.4241C199.28 53.8935 196.242 55.6254 195.088 55.8615C193.723 56.1371 191.749 56.839 192.313 55.5335C193.035 53.8411 196.885 50.889 199.188 49.2753C199.713 48.9079 200.159 48.6062 200.467 48.4028C200.736 48.1798 201.084 48.0748 201.471 48.1404C202.33 48.2847 203.052 49.249 203.065 50.2986Z" fill="white"/>
<path d="M203.065 50.2993C203.071 50.7782 202.927 51.185 202.691 51.4802C202.638 51.5458 202.586 51.6048 202.514 51.6573C202.468 51.6966 202.422 51.7229 202.376 51.7557C202.087 51.9656 201.772 52.1886 201.438 52.4248C200.998 52.4248 200.592 52.333 200.257 52.1362C199.103 51.4605 198.965 50.2141 199.181 49.2694C199.706 48.9021 200.152 48.6003 200.46 48.397C200.729 48.1739 201.077 48.0689 201.464 48.1345C202.33 48.2854 203.052 49.2497 203.065 50.2993Z" fill="#407BFF"/>
<path opacity="0.2" d="M202.947 49.9713C202.953 50.7519 202.435 51.303 201.779 51.198C201.123 51.0931 200.585 50.3715 200.572 49.5843C200.565 48.8036 201.084 48.2526 201.74 48.3575C202.402 48.4625 202.94 49.1841 202.947 49.9713Z" fill="black"/>
<path d="M201.418 49.3671C201.536 49.2031 202.284 49.1703 202.297 49.3736C202.337 49.9575 201.982 50.3576 201.7 50.3052C201.654 50.2986 200.992 49.9378 201.418 49.3671Z" fill="#407BFF"/>
<path opacity="0.2" d="M193.008 56.1559C192.169 56.3199 200.598 50.5996 200.598 50.5996C200.598 50.5996 201.136 51.7607 202.324 51.3737C202.324 51.3737 198.151 55.1457 193.008 56.1559Z" fill="black"/>
<path d="M199.575 32.3977C199.444 32.87 199.201 33.4342 198.775 34.0508C198.171 34.9364 197.194 35.9466 195.619 36.9831C195.383 37.1405 195.14 37.298 194.904 37.4554H194.898C193.599 38.3082 192.339 39.0954 191.572 39.5677L158.431 60.5991C152.717 64.2268 146.465 66.9361 139.905 68.6154L137.767 69.1665L126.47 72.066C125.637 72.2825 124.752 72.1185 124.05 71.6199L122.396 70.4522L131.331 64.135C133.056 62.9148 134.821 61.7602 136.625 60.6713L181.063 33.7884C187.688 30.0689 189.525 30.2132 193.31 30.8495C195.298 30.4297 197.141 30.4822 198.328 30.5937C198.847 30.6462 199.273 30.961 199.49 31.3874C199.627 31.6892 199.673 32.0434 199.575 32.3977Z" fill="#407BFF"/>
<path opacity="0.9" d="M199.575 32.3977C199.444 32.87 199.201 33.4342 198.775 34.0508C198.171 34.9364 197.194 35.9466 195.619 36.9831C195.383 37.1405 195.14 37.298 194.904 37.4554H194.898C194.871 37.4751 194.852 37.4882 194.825 37.5079C194.819 37.5079 194.819 37.5079 194.819 37.5079C193.54 38.3345 192.32 39.102 191.572 39.5677L181.646 45.8653L158.431 60.5991C158.24 60.7237 158.05 60.8418 157.86 60.9599C152.304 64.4105 146.249 66.9951 139.905 68.622L137.767 69.173L126.47 72.0725C125.637 72.289 124.752 72.125 124.05 71.6265L122.396 70.4588L131.331 64.1415C133.056 62.9214 134.821 61.7668 136.625 60.6778L141.84 57.5225L165.522 43.1889L181.063 33.7884C187.688 30.0689 189.525 30.2132 193.31 30.8495C193.454 30.8233 193.599 30.7905 193.736 30.7642C195.56 30.4428 197.226 30.4887 198.328 30.5937C198.847 30.6462 199.273 30.961 199.49 31.3874C199.627 31.6892 199.673 32.0434 199.575 32.3977Z" fill="white"/>
<path d="M199.575 32.3968C199.444 32.8691 199.201 33.4333 198.775 34.0499C198.171 34.9355 197.194 35.9458 195.619 36.9822C195.383 37.1397 195.14 37.2971 194.904 37.4546H194.898C194.871 37.4743 194.852 37.4874 194.825 37.5071C194.819 37.5071 194.819 37.5071 194.819 37.5071C193.428 37.0282 192.333 35.8802 192.208 34.0631C192.11 32.6002 192.857 31.5112 193.73 30.7634C195.554 30.4419 197.22 30.4879 198.322 30.5928C198.84 30.6453 199.267 30.9602 199.483 31.3866C199.627 31.6883 199.673 32.0426 199.575 32.3968Z" fill="#407BFF"/>
<path d="M134.88 63.4128C134.998 63.3406 135.116 63.2684 135.241 63.1963" stroke="#263238" stroke-width="1.26339" stroke-linecap="round" stroke-linejoin="round"/>
<path d="M137.012 62.1205C150.047 54.2288 171.419 41.2859 180.905 35.5459" stroke="#263238" stroke-width="1.26339" stroke-linecap="round" stroke-linejoin="round" stroke-dasharray="0.83 0.83"/>
<path d="M181.797 35.0016C181.922 34.9295 182.04 34.8573 182.158 34.7852" stroke="#263238" stroke-width="1.26339" stroke-linecap="round" stroke-linejoin="round"/>
<path d="M185.379 33.5718L185.366 32.1024C186.717 31.4267 188.679 30.2525 191.683 30.6133L193.297 30.8494C190.752 30.6395 188.206 31.8597 186.022 33.1848L185.379 33.5718Z" fill="#263238"/>
<path opacity="0.2" d="M199.575 32.3977C199.444 32.87 199.201 33.4341 198.775 34.0508C197.85 34.7396 196.682 35.5268 195.331 36.3796C191.112 39.0429 160.792 58.0735 156.791 60.9402C153.878 63.0197 147.633 66.1685 137.767 69.1665C134.408 70.1833 130.629 71.1869 126.418 72.125C125.611 72.3021 124.771 72.1316 124.096 71.6527L124.043 71.6199C124.043 71.6199 137.353 67.146 140.351 65.4732C143.349 63.8069 186.448 37.1799 190.83 34.7789C194.294 32.8831 197.587 31.6564 199.47 31.3809C199.627 31.6892 199.673 32.0434 199.575 32.3977Z" fill="black"/>
<path d="M169.196 46.1206L168.999 46.2452L166.742 47.695L156.935 53.9795C156.344 54.36 155.656 54.5633 154.96 54.5633H108.575L110.3 52.674C111.769 51.0668 113.783 50.0697 115.955 49.8664L156.187 46.1928L168.828 45.0382C169.445 44.9792 169.72 45.7926 169.196 46.1206Z" fill="#407BFF"/>
<path opacity="0.9" d="M169.196 46.1206L168.999 46.2452L166.742 47.695L156.935 53.9795C156.344 54.36 155.656 54.5633 154.96 54.5633H123.085C133.975 52.5035 150.926 48.9873 156.18 46.1928L168.822 45.0382C169.445 44.9792 169.72 45.7926 169.196 46.1206Z" fill="white"/>
<path opacity="0.2" d="M169.005 46.2449L156.941 53.9792C156.351 54.3597 155.662 54.563 154.967 54.563H108.929L109.887 53.5134C111.356 51.9062 113.37 50.9091 115.541 50.7057L168.415 45.8776C168.704 45.8579 168.913 46.0219 169.005 46.2449Z" fill="black"/>
<path d="M153.773 50.4315C154.101 50.0313 154.291 49.4737 154.285 48.8309C154.265 47.4139 153.288 46.1019 152.1 45.9051C151.582 45.8198 151.11 45.9641 150.742 46.2659C148.499 47.7222 140.902 53.1145 139.695 55.9288C138.941 57.6934 141.611 56.7488 143.461 56.3749C145.271 56.0075 150.506 52.9177 153.347 50.812C153.412 50.7726 153.471 50.7267 153.53 50.6808C153.629 50.6021 153.707 50.5233 153.773 50.4315Z" fill="#407BFF"/>
<path opacity="0.9" d="M154.285 48.8304C154.291 49.4798 154.101 50.0374 153.773 50.4376C153.707 50.5229 153.629 50.6081 153.53 50.6803C153.471 50.7328 153.406 50.7721 153.347 50.8181C152.96 51.1067 152.527 51.4084 152.067 51.7233C149.142 53.711 145.028 56.066 143.461 56.3809C141.611 56.7548 138.941 57.7061 139.695 55.9349C140.679 53.6454 145.894 49.6373 149.01 47.4462C149.719 46.9477 150.322 46.5344 150.742 46.2654C151.11 45.9636 151.582 45.8259 152.1 45.9046C153.288 46.1014 154.265 47.4069 154.285 48.8304Z" fill="white"/>
<path d="M154.285 48.8304C154.291 49.4798 154.101 50.0374 153.773 50.4376C153.707 50.5229 153.629 50.6081 153.53 50.6803C153.471 50.7328 153.406 50.7721 153.347 50.8181C152.96 51.1067 152.527 51.4084 152.067 51.7233C151.47 51.7168 150.919 51.5987 150.473 51.3363C148.912 50.4179 148.715 48.732 149.01 47.4462C149.719 46.9477 150.322 46.5344 150.742 46.2654C151.11 45.9636 151.582 45.8259 152.1 45.9046C153.288 46.1014 154.265 47.4069 154.285 48.8304Z" fill="#407BFF"/>
<path opacity="0.2" d="M154.127 48.3851C154.14 49.4478 153.432 50.1891 152.54 50.0447C151.654 49.9004 150.919 48.923 150.906 47.8603C150.893 46.7975 151.602 46.0563 152.494 46.2006C153.386 46.3449 154.114 47.3223 154.127 48.3851Z" fill="black"/>
<path d="M152.054 47.5638C152.218 47.3408 153.228 47.2949 153.248 47.5704C153.301 48.3576 152.822 48.9021 152.435 48.8365C152.376 48.8299 151.477 48.3445 152.054 47.5638Z" fill="#407BFF"/>
<path opacity="0.2" d="M140.292 56.9647C139.118 57.1943 150.854 49.2305 150.854 49.2305C150.854 49.2305 151.602 50.8508 153.255 50.3063C153.248 50.3063 147.449 55.5543 140.292 56.9647Z" fill="black"/>
<path d="M135.261 51.4804C135.503 51.1852 135.648 50.7784 135.641 50.2996C135.628 49.25 134.906 48.2857 134.027 48.1413C133.647 48.0757 133.299 48.1807 133.024 48.4103C131.364 49.4861 125.762 53.4615 124.876 55.541C124.319 56.8465 126.293 56.1445 127.658 55.869C128.996 55.6001 132.86 53.3172 134.952 51.7625C134.998 51.7297 135.044 51.6968 135.09 51.664C135.156 51.605 135.215 51.546 135.261 51.4804Z" fill="#407BFF"/>
<path opacity="0.9" d="M135.641 50.2996C135.648 50.7785 135.503 51.1852 135.267 51.4804C135.215 51.546 135.162 51.6051 135.09 51.6575C135.044 51.6969 134.998 51.7231 134.952 51.7559C134.664 51.9659 134.349 52.1889 134.008 52.4251C131.85 53.8945 128.812 55.6263 127.658 55.8625C126.293 56.138 124.319 56.8399 124.883 55.5345C125.604 53.842 129.455 50.89 131.758 49.2763C132.283 48.9089 132.729 48.6071 133.037 48.4038C133.306 48.1807 133.654 48.0758 134.041 48.1414C134.907 48.2857 135.628 49.25 135.641 50.2996Z" fill="white"/>
<path d="M135.641 50.2993C135.648 50.7782 135.503 51.185 135.267 51.4802C135.215 51.5458 135.162 51.6048 135.09 51.6573C135.044 51.6966 134.998 51.7229 134.952 51.7557C134.664 51.9656 134.349 52.1886 134.008 52.4248C133.568 52.4248 133.161 52.333 132.827 52.1362C131.672 51.4605 131.535 50.2141 131.751 49.2694C132.276 48.9021 132.722 48.6003 133.03 48.397C133.299 48.1739 133.647 48.0689 134.034 48.1345C134.906 48.2854 135.628 49.2497 135.641 50.2993Z" fill="#407BFF"/>
<path opacity="0.2" d="M135.53 49.9713C135.536 50.7519 135.018 51.303 134.362 51.198C133.706 51.0931 133.168 50.3715 133.155 49.5843C133.148 48.8036 133.667 48.2526 134.323 48.3575C134.979 48.4625 135.516 49.1841 135.53 49.9713Z" fill="black"/>
<path d="M133.995 49.3671C134.113 49.2031 134.86 49.1703 134.874 49.3736C134.913 49.9575 134.559 50.3576 134.277 50.3052C134.231 50.2986 133.568 49.9378 133.995 49.3671Z" fill="#407BFF"/>
<path opacity="0.2" d="M125.585 56.1569C124.745 56.3209 133.175 50.6006 133.175 50.6006C133.175 50.6006 133.712 51.7617 134.9 51.3747C134.9 51.3747 130.728 55.1467 125.585 56.1569Z" fill="black"/>
<path d="M109.631 72.4723L124.778 71.3702L132.033 67.8672L112.878 70.196C112.209 70.2747 111.586 70.5765 111.1 71.0422L109.631 72.4723Z" fill="#407BFF"/>
<path d="M130.019 68.8318C130 68.8515 129.973 68.8711 129.94 68.8843L124.778 71.3771L110.3 72.4267L109.631 72.4791L111.107 71.0491C111.592 70.5833 112.215 70.2881 112.878 70.2028L129.724 68.1561C130.131 68.1036 130.308 68.6153 130.019 68.8318Z" fill="#407BFF"/>
<path opacity="0.2" d="M130.019 68.8316C130 68.8513 129.973 68.8709 129.94 68.8841L124.778 71.3769L110.3 72.4265L111.107 71.6524C111.592 71.1866 112.215 70.8849 112.878 70.8062L129.724 68.7529C129.849 68.7398 129.947 68.7725 130.019 68.8316Z" fill="black"/>
<path d="M108.634 126.383H100.604V162.587H108.634V126.383Z" stroke="#263238" stroke-width="1.91368" stroke-miterlimit="10"/>
<path d="M102.257 217.698C102.034 217.698 101.201 217.698 100.978 217.698C99.5414 217.698 98.3803 218.813 98.3803 220.25C98.3803 221.687 99.5414 222.802 100.978 222.802C101.201 222.802 102.034 222.802 102.257 222.802C103.694 222.802 104.855 221.687 104.855 220.25C104.855 218.813 103.694 217.698 102.257 217.698Z" fill="#263238"/>
<path opacity="0.1" d="M104.855 220.204C104.855 221.641 103.694 222.802 102.257 222.802C100.821 222.802 99.6595 221.641 99.6595 220.204C99.6595 218.768 100.821 217.606 102.257 217.606C103.694 217.606 104.855 218.768 104.855 220.204Z" fill="white"/>
<path d="M109.27 217.698C109.047 217.698 108.214 217.698 107.991 217.698C106.554 217.698 105.393 218.813 105.393 220.25C105.393 221.687 106.554 222.802 107.991 222.802C108.214 222.802 109.047 222.802 109.27 222.802C110.707 222.802 111.868 221.687 111.868 220.25C111.868 218.813 110.707 217.698 109.27 217.698Z" fill="#263238"/>
<path opacity="0.2" d="M111.874 220.204C111.874 221.641 110.713 222.802 109.276 222.802C107.84 222.802 106.679 221.641 106.679 220.204C106.679 218.768 107.84 217.606 109.276 217.606C110.713 217.606 111.874 218.768 111.874 220.204Z" fill="white"/>
<path d="M132.656 164.024V209.157C132.656 213.651 129.016 217.705 124.522 217.705H102.034V155.831H124.522C127.644 155.831 130.354 157.622 131.718 160.2C132.322 161.328 132.656 162.647 132.656 164.024Z" fill="#407BFF"/>
<path d="M110.385 218.558H100.427C99.4758 218.558 98.7083 217.79 98.7083 216.839V156.389C98.7083 155.437 99.4758 154.67 100.427 154.67H110.385C111.336 154.67 112.104 155.437 112.104 156.389V216.839C112.104 217.784 111.33 218.558 110.385 218.558Z" fill="#263238"/>
<path opacity="0.2" d="M105.426 218.558H100.427C99.4758 218.558 98.7083 217.79 98.7083 216.839V156.389C98.7083 155.437 99.4758 154.67 100.427 154.67H105.426C106.377 154.67 107.144 155.437 107.144 156.389V216.839C107.144 217.784 106.37 218.558 105.426 218.558Z" fill="white"/>
<path opacity="0.2" d="M132.656 164.024V209.157C132.656 213.651 129.016 217.705 124.522 217.705H115.489C115.141 217.069 114.793 215.92 114.793 215.146V164.753C114.793 162.253 116.984 160.285 119.484 160.285H131.718C132.322 161.564 132.656 162.647 132.656 164.024Z" fill="black"/>
<path opacity="0.2" d="M104.212 216.937H100.847C100.191 216.937 99.653 216.406 99.653 215.743V157.556C99.653 156.9 100.184 156.362 100.847 156.362H104.212C104.868 156.362 105.406 156.894 105.406 157.556V215.743C105.406 216.399 104.875 216.937 104.212 216.937Z" fill="black"/>
<path d="M108.739 127.577H100.368C99.6661 127.577 99.0954 127.006 99.0954 126.304V125.504C99.0954 124.802 99.6661 124.231 100.368 124.231H108.739C109.44 124.231 110.011 124.802 110.011 125.504V126.304C110.011 127.006 109.44 127.577 108.739 127.577Z" fill="#263238"/>
<path opacity="0.2" d="M108.739 127.577H100.368C99.6661 127.577 99.0954 127.006 99.0954 126.304V125.504C99.0954 124.802 99.6661 124.231 100.368 124.231H108.739C109.44 124.231 110.011 124.802 110.011 125.504V126.304C110.011 127.006 109.44 127.577 108.739 127.577Z" fill="white"/>
<path opacity="0.2" d="M108.739 127.577H108.024C107.322 127.577 106.751 127.006 106.751 126.304V125.504C106.751 124.802 107.322 124.231 108.024 124.231H108.739C109.44 124.231 110.011 124.802 110.011 125.504V126.304C110.011 127.006 109.44 127.577 108.739 127.577Z" fill="black"/>
<path d="M80.1108 88.0584C73.7607 87.2318 67.6075 86.0576 67.6075 86.0576L67.0761 86.6677C67.0761 86.6677 56.0028 88.8719 54.2841 90.8923C52.5654 92.9128 53.0705 101.703 53.0705 101.703L53.7855 102.32C53.7855 102.32 53.5756 120.983 55.97 124.23C58.3644 127.484 69.0113 127.891 77.126 125.667C85.2407 123.443 86.4675 88.885 80.1108 88.0584Z" fill="#263238"/>
<path opacity="0.4" d="M77.1259 125.661C75.8008 126.021 74.4035 126.317 72.9931 126.533C65.7443 127.675 57.9773 126.946 55.9699 124.224C53.5755 120.97 53.7854 102.314 53.7854 102.314L53.0704 101.697C53.0704 101.697 52.5587 92.9065 54.284 90.8926C55.7141 89.2133 63.5926 87.4093 66.2166 86.8517C66.7545 86.7336 67.0694 86.6745 67.0694 86.6745L67.6073 86.0645C67.6073 86.0645 73.7541 87.2387 80.1107 88.0653C86.4673 88.8853 85.2406 123.443 77.1259 125.661Z" fill="white"/>
<path opacity="0.2" d="M77.1259 125.66C75.8008 126.021 74.4035 126.316 72.9931 126.533C68.0403 126.434 63.5992 125.765 62.8185 124.224C61.4409 121.469 63.0809 110.238 62.0182 102.313C60.9621 94.3888 62.7398 88.3602 66.2297 86.917L66.2166 86.8448C66.7545 86.7267 67.0694 86.6677 67.0694 86.6677L67.6073 86.0576C67.6073 86.0576 73.7541 87.2318 80.1107 88.0584C86.4673 88.885 85.2406 123.443 77.1259 125.66Z" fill="black"/>
<path d="M101.319 119.587L105.911 121.542L108.575 124.723L105.085 125.668L103.208 124.474C103.208 124.474 99.935 124.369 99.0888 121.771L101.319 119.587Z" fill="#CE7A63"/>
<path d="M99.5021 122.624C98.6952 122.224 95.2774 119.98 92.004 117.632C89.0913 115.539 86.2968 113.355 85.5489 112.292C84.624 110.974 83.5809 107.031 82.7937 102.911C81.7901 97.7748 81.18 92.3759 81.6392 91.4641C82.4592 89.8241 85.5489 88.8926 85.5489 88.8926C89.275 91.0902 91.0397 105.555 91.8006 108.291C91.8006 108.291 101.903 118.183 102.283 119.318C102.664 120.453 99.5021 122.624 99.5021 122.624Z" fill="#407BFF"/>
<path opacity="0.4" d="M99.5021 122.624C98.6952 122.224 95.2774 119.98 92.004 117.632C89.0913 115.539 86.2968 113.355 85.5489 112.292C84.624 110.974 83.5809 107.031 82.7937 102.911C81.7901 97.7748 81.18 92.3759 81.6392 91.4641C82.4592 89.8241 85.5489 88.8926 85.5489 88.8926C89.275 91.0902 91.0397 105.555 91.8006 108.291C91.8006 108.291 101.903 118.183 102.283 119.318C102.664 120.453 99.5021 122.624 99.5021 122.624Z" fill="white"/>
<path d="M106.935 222.795C103.051 222.795 102.539 222.736 100.355 222.664C98.4853 222.599 98.0392 222.828 96.537 222.795C95.284 222.769 95.3299 221.569 95.717 220.184C95.9072 219.489 96.209 218.026 96.4779 216.904L102.165 216.491C102.966 218.02 104.77 220.198 106.961 220.493C109.047 220.775 108.483 222.795 106.935 222.795Z" fill="#407BFF"/>
<path d="M78.2083 222.795C74.3248 222.795 73.8131 222.736 71.6286 222.664C69.759 222.599 69.3129 222.828 67.8107 222.795C66.5577 222.769 66.6037 221.569 66.9907 220.184C67.1809 219.489 67.4827 218.026 67.7517 216.904L73.4392 216.491C74.2395 218.02 76.0435 220.198 78.2345 220.493C80.3272 220.775 79.7565 222.795 78.2083 222.795Z" fill="#407BFF"/>
<path opacity="0.4" d="M106.935 222.795C103.051 222.795 102.539 222.736 100.355 222.664C98.4853 222.599 98.0392 222.828 96.537 222.795C95.284 222.769 95.3299 221.569 95.717 220.184C95.9072 219.489 96.209 218.026 96.4779 216.904L102.165 216.491C102.966 218.02 104.77 220.198 106.961 220.493C109.047 220.775 108.483 222.795 106.935 222.795Z" fill="white"/>
<path opacity="0.4" d="M78.2083 222.795C74.3248 222.795 73.8131 222.736 71.6286 222.664C69.759 222.599 69.3129 222.828 67.8107 222.795C66.5577 222.769 66.6037 221.569 66.9907 220.184C67.1809 219.489 67.4827 218.026 67.7517 216.904L73.4392 216.491C74.2395 218.02 76.0435 220.198 78.2345 220.493C80.3272 220.775 79.7565 222.795 78.2083 222.795Z" fill="white"/>
<path opacity="0.2" d="M92.0105 117.632C89.0979 115.539 86.3033 113.355 85.5555 112.292C84.6305 110.974 83.5875 107.031 82.8003 102.911C83.8696 100.74 84.6896 99.2969 84.6896 99.2969C84.6896 99.2969 89.5112 105.686 92.0105 117.632Z" fill="black"/>
<path d="M66.6168 62.003C64.6291 59.3922 61.887 58.2966 58.4758 60.0613C55.0712 61.8259 55.0515 65.2174 56.8293 68.6942C58.607 72.171 53.3065 73.3518 54.4414 76.8221C54.8875 78.1931 55.8846 78.5605 55.9109 80.8761C55.924 82.2603 54.1003 84.635 55.2877 85.5469C56.8161 86.708 61.7821 84.3333 60.8899 82.0373C59.9912 79.7413 63.527 80.0365 63.6517 77.8323C63.7894 75.451 62.0904 74.6573 62.7398 72.8992C63.5008 70.8459 65.6525 70.9246 66.6168 67.9923C67.4433 65.4864 67.2597 62.8362 66.6168 62.003Z" fill="#407BFF"/>
<path opacity="0.5" d="M66.6168 62.003C64.6291 59.3922 61.887 58.2966 58.4758 60.0613C55.0712 61.8259 55.0515 65.2174 56.8293 68.6942C58.607 72.171 53.3065 73.3518 54.4414 76.8221C54.8875 78.1931 55.8846 78.5605 55.9109 80.8761C55.924 82.2603 54.1003 84.635 55.2877 85.5469C56.8161 86.708 61.7821 84.3333 60.8899 82.0373C59.9912 79.7413 63.527 80.0365 63.6517 77.8323C63.7894 75.451 62.0904 74.6573 62.7398 72.8992C63.5008 70.8459 65.6525 70.9246 66.6168 67.9923C67.4433 65.4864 67.2597 62.8362 66.6168 62.003Z" fill="black"/>
<path d="M87.7662 118.084C87.7662 118.084 92.7912 148.365 93.6177 163.984C94.4902 180.391 99.7513 206.664 102.526 216.93C101.746 217.632 98.0654 217.927 96.327 217.061C96.327 217.061 81.1472 186.761 83.1217 167.815C70.4347 132.083 73.4982 118.714 73.4982 118.714L87.7662 118.084Z" fill="#263238"/>
<path opacity="0.2" d="M79.3694 156.447C77.5654 150.497 76.26 145.341 75.3416 140.92C76.2534 137.463 77.5457 134.504 79.3104 132.72C79.3169 132.72 81.8491 142.356 79.3694 156.447Z" fill="black"/>
<path d="M82.328 116.497C82.328 116.497 78.1755 148.621 75.7942 164.083C73.2949 180.319 72.98 206.376 73.6032 216.996C72.6913 217.528 69.3785 218.164 67.5877 217.606C67.5877 217.606 59.1187 184.767 64.7472 165.691C59.6238 128.121 67.0366 118.918 67.0366 118.918L82.328 116.497Z" fill="#263238"/>
<path d="M88.0417 114.588C88.2713 109.884 88.3632 106.585 88.3829 103.246C88.5009 98.3191 88.1861 96.7578 88.0549 94.7046C87.8121 91.0178 84.9257 86.8522 81.2128 86.4652C80.1829 86.3602 79.107 86.2618 78.0705 86.2028C74.9414 86.0257 72.0681 86.2356 68.5585 86.5242C67.6598 86.5964 66.7808 86.7014 65.9542 86.8129C62.8579 87.2327 61.0145 90.2569 61.992 93.3073C64.9965 102.688 66.3281 108.789 66.7611 113.663C66.2297 115.159 63.4089 123.227 64.5635 124.139C65.8361 125.15 87.0118 125.904 88.6518 124.139C89.9245 122.768 88.6649 117.074 88.0417 114.588Z" fill="#407BFF"/>
<path opacity="0.4" d="M88.6518 124.147C87.0053 125.905 65.8296 125.157 64.5569 124.147C63.4024 123.228 66.2232 115.159 66.7545 113.664C66.5446 111.335 66.1379 108.718 65.4294 105.608C64.9309 103.397 64.288 100.918 63.4614 98.11C63.0219 96.6078 62.5299 95.0071 61.9854 93.3081C61.008 90.2577 62.8513 87.2335 65.9477 86.8137C66.7742 86.7022 67.6533 86.6038 68.5585 86.525C72.0616 86.2364 74.9349 86.0265 78.0705 86.197C79.107 86.2561 80.1829 86.3479 81.2062 86.4594C84.9257 86.8465 87.8121 91.0121 88.0483 94.6988C88.1795 96.7521 88.4944 98.3134 88.3829 103.24C88.3632 106.579 88.2648 109.879 88.0352 114.582C88.6649 117.068 89.9245 122.776 88.6518 124.147Z" fill="white"/>
<path d="M69.8509 100.229C69.8509 100.229 68.4011 107.576 65.1801 112.292L65.8624 113.421C65.8624 113.421 69.1555 109.327 71.1104 100.229H69.8509Z" fill="#263238"/>
<path opacity="0.2" d="M69.8509 100.229C69.8509 100.229 68.4011 107.576 65.1801 112.292L65.8624 113.421C65.8624 113.421 69.1555 109.327 71.1104 100.229H69.8509Z" fill="white"/>
<path d="M63.796 87.2982C63.796 87.2982 69.9361 89.5154 69.2473 100.359C69.2014 101.074 69.7656 101.678 70.4806 101.678C71.0513 101.678 71.5499 101.291 71.6811 100.733C72.3502 97.9122 73.7409 89.522 67.6139 86.0518C67.6073 86.0518 64.3667 86.4716 63.796 87.2982Z" fill="#263238"/>
<path d="M87.1365 100.229C87.1365 100.229 87.5629 105.477 88.232 110.206L88.6912 109.327C88.6912 109.327 88.4091 104.873 88.1008 100.229H87.1365Z" fill="#263238"/>
<path opacity="0.2" d="M87.1365 100.229C87.1365 100.229 87.5629 105.477 88.232 110.206L88.6912 109.327C88.6912 109.327 88.4091 104.873 88.1008 100.229H87.1365Z" fill="white"/>
<path d="M80.9438 86.4386C80.9438 86.4386 85.7654 89.6793 86.756 100.411C86.7953 100.844 87.1561 101.179 87.5891 101.179C88.0549 101.179 88.4288 100.805 88.4288 100.339C88.4288 98.1351 88.0877 92.0278 84.6765 87.6063C84.6765 87.6129 82.0131 85.8942 80.9438 86.4386Z" fill="#263238"/>
<g opacity="0.2">
<path d="M81.9081 124.553C81.895 124.553 81.8753 124.553 81.8622 124.546C81.7769 124.52 81.731 124.435 81.7573 124.349C82.82 120.814 81.0225 115.369 81.0094 115.31C81.0029 115.29 81.0029 115.264 81.0029 115.238C81.016 115.139 82.1837 105.096 81.0029 97.7486C80.1173 92.2251 78.1493 89.6929 78.1296 89.6667C78.0771 89.5945 78.0837 89.4961 78.1558 89.4436C78.2214 89.3911 78.3264 89.3977 78.3789 89.4699C78.4641 89.5748 80.4125 92.0873 81.3177 97.7027C82.4723 104.873 81.3965 114.575 81.3243 115.244C81.4883 115.756 83.1217 120.918 82.0656 124.441C82.0393 124.507 81.9737 124.553 81.9081 124.553Z" fill="black"/>
</g>
<path d="M68.1453 82.9424C68.1453 82.9424 74.7053 84.707 79.0611 83.5131C83.4169 82.3126 81.7769 89.4433 77.736 89.3187C73.695 89.1875 65.7509 84.9038 68.1453 82.9424Z" fill="#407BFF"/>
<path d="M68.8603 75.7988C69.7918 78.8295 70.9989 84.4055 69.0833 86.5113C69.0833 86.5113 71.9697 85.9799 78.2542 89.5748C79.9467 86.9574 78.5953 86.1899 78.5953 86.1899C75.0923 85.4945 74.9086 82.9623 75.2432 80.5745L68.8603 75.7988Z" fill="#CE7A63"/>
<path opacity="0.2" d="M71.4581 77.7461L75.2366 80.5669C75.1579 81.131 75.1054 81.7083 75.1251 82.2594C73.8 82.115 71.8517 80.7506 71.5696 79.3927C71.4253 78.717 71.3859 78.061 71.4581 77.7461Z" fill="black"/>
<path d="M66.0329 69.7436C67.1285 74.657 67.4893 76.7497 70.3888 79.026C74.7512 82.4437 80.5174 80.3642 80.8979 75.3065C81.2456 70.7538 79.3891 63.4919 74.2461 62.029C69.1817 60.5924 64.9374 64.8301 66.0329 69.7436Z" fill="#CE7A63"/>
<path d="M72.9013 59.5889C76.5486 60.0416 81.4817 64.0628 76.7126 64.4827C76.5749 65.9849 73.8262 65.7684 71.8976 64.8172C72.0944 65.939 70.0608 67.966 67.6139 67.0936C68.9915 67.9988 68.7947 71.7643 67.0301 71.843C65.2654 71.9217 61.5131 72.604 62.6086 66.4769C63.7107 60.3499 68.9981 59.11 72.9013 59.5889Z" fill="#407BFF"/>
<path opacity="0.5" d="M72.9013 59.5889C76.5486 60.0416 81.4817 64.0628 76.7126 64.4827C76.5749 65.9849 73.8262 65.7684 71.8976 64.8172C72.0944 65.939 70.0608 67.966 67.6139 67.0936C68.9915 67.9988 68.7947 71.7643 67.0301 71.843C65.2654 71.9217 61.5131 72.604 62.6086 66.4769C63.7107 60.3499 68.9981 59.11 72.9013 59.5889Z" fill="black"/>
<path d="M72.3765 70.3475C72.4486 70.7607 72.7307 71.0756 72.9931 71.0494C73.2621 71.0232 73.4195 70.6624 73.3408 70.2425C73.2686 69.8292 72.9865 69.5144 72.7241 69.5406C72.4552 69.5734 72.2977 69.9342 72.3765 70.3475Z" fill="#263238"/>
<path d="M77.5589 69.6258C77.631 70.0391 77.9065 70.3539 78.1755 70.3277C78.4445 70.3015 78.6019 69.9407 78.5232 69.5208C78.451 69.1075 78.1755 68.7927 77.9065 68.8189C77.6376 68.8517 77.4867 69.2125 77.5589 69.6258Z" fill="#263238"/>
<path d="M77.795 68.8584L78.7266 68.4648C78.72 68.4648 78.3592 69.298 77.795 68.8584Z" fill="#263238"/>
<path d="M76.1353 70.7148C76.1353 70.7148 77.1456 72.4336 78.064 73.2142C77.6179 73.7849 76.6601 73.6472 76.6601 73.6472L76.1353 70.7148Z" fill="#BA4D3C"/>
<path d="M74.5806 75.437C74.7971 75.4502 75.0333 75.4502 75.276 75.4239C75.3416 75.4174 75.3875 75.3583 75.3744 75.2862C75.3613 75.2206 75.3022 75.1681 75.2301 75.1746C73.4392 75.3714 72.3699 74.1841 72.3633 74.171C72.3174 74.1185 72.2387 74.1119 72.1928 74.1513C72.1469 74.1972 72.1403 74.2694 72.1862 74.3218C72.2321 74.3809 73.0849 75.3321 74.5806 75.437Z" fill="#263238"/>
<path d="M65.0555 73.9884C65.7771 74.9331 66.8136 75.4513 67.7123 75.5563C69.0702 75.7137 69.4573 74.3427 68.8406 73.0831C68.283 71.9483 66.9054 70.4985 65.659 70.9249C64.4323 71.3382 64.2355 72.906 65.0555 73.9884Z" fill="#CE7A63"/>
<path d="M71.1432 67.8284C71.2088 67.8284 71.2678 67.8022 71.3137 67.7497C71.9894 66.9428 72.8816 67.0806 72.8947 67.0806C73.0259 67.1002 73.144 67.015 73.1571 66.8772C73.1702 66.746 73.0718 66.6148 72.9341 66.5951C72.8881 66.5886 71.7664 66.4114 70.9267 67.4151C70.8414 67.5135 70.8611 67.671 70.9661 67.7628C71.0185 67.8022 71.0841 67.8284 71.1432 67.8284Z" fill="#263238"/>
<path d="M79.1989 66.6603C79.2579 66.6669 79.3235 66.6538 79.3694 66.6144C79.4678 66.5291 79.4809 66.3782 79.3891 66.2667C78.4904 65.1843 77.3752 65.2565 77.3293 65.263C77.1981 65.2762 77.1062 65.3942 77.1259 65.5254C77.1456 65.6632 77.2702 65.7616 77.4014 65.755C77.4473 65.7485 78.3133 65.7091 79.0217 66.5685C79.0742 66.621 79.1398 66.6538 79.1989 66.6603Z" fill="#263238"/>
<path d="M72.6126 69.5801L73.5441 69.1865C73.5376 69.1865 73.1768 70.0196 72.6126 69.5801Z" fill="#263238"/>
<path d="M78.2477 89.5745C78.2477 89.5745 68.4601 79.8526 63.5401 83.2638C60.739 85.2056 62.4053 87.2982 63.7894 87.2982C65.1998 87.2982 67.0694 86.6684 67.0694 86.6684C67.0694 86.6684 70.3691 88.9448 78.2477 89.5745Z" fill="#407BFF"/>
<path d="M78.2477 89.5749C78.2477 89.5749 80.0057 85.6586 79.1857 84.0842C78.3657 82.5098 83.6662 82.6935 84.0467 85.8488C84.4206 89.0042 78.2477 89.5749 78.2477 89.5749Z" fill="#407BFF"/>
<path opacity="0.2" d="M78.2477 89.5745C78.2477 89.5745 68.4601 79.8526 63.5401 83.2638C60.739 85.2056 62.4053 87.2982 63.7894 87.2982C65.1998 87.2982 67.0694 86.6684 67.0694 86.6684C67.0694 86.6684 70.3691 88.9448 78.2477 89.5745Z" fill="white"/>
<path opacity="0.2" d="M78.2477 89.5749C78.2477 89.5749 80.0057 85.6586 79.1857 84.0842C78.3657 82.5098 83.6662 82.6935 84.0467 85.8488C84.4206 89.0042 78.2477 89.5749 78.2477 89.5749Z" fill="white"/>
<path d="M82.8856 106.748L75.5121 121.207L66.3675 117.5L66.42 117.402L65.6853 116.556L65.167 116.359L72.8816 101.415C72.8816 101.415 80.8913 104.721 81.7573 105.226C82.6035 105.732 82.8856 106.748 82.8856 106.748Z" fill="#407BFF"/>
<path opacity="0.4" d="M82.8856 106.748L75.5121 121.207L66.3675 117.5L66.42 117.402L65.6853 116.556L65.167 116.359L72.8816 101.415C72.8816 101.415 80.8913 104.721 81.7573 105.226C81.8032 105.253 81.8491 105.285 81.8819 105.318C82.6297 105.83 82.8856 106.748 82.8856 106.748Z" fill="black"/>
<path opacity="0.2" d="M82.8856 106.748L75.5121 121.206L66.3675 117.5L66.42 117.401L65.6853 116.555L74.679 119.927L81.8819 105.305C82.6297 105.829 82.8856 106.748 82.8856 106.748Z" fill="black"/>
<path opacity="0.6" d="M75.1841 120.984L66.4134 117.409L65.6787 116.562L74.6462 120.02C75.3088 120.59 75.1841 120.984 75.1841 120.984Z" fill="white"/>
<path d="M70.6381 113.702L77.7294 102.806L81.3243 104.977L74.4035 115.794L70.6381 113.702Z" fill="white"/>
<path opacity="0.1" d="M70.6381 113.702L77.7294 102.806L81.3243 104.977L74.4035 115.794L70.6381 113.702Z" fill="black"/>
<path d="M70.7365 113.649L77.0931 102.313L80.8257 104.249L74.6265 115.493L70.7365 113.649Z" fill="white"/>
<path d="M71.5433 113.23L74.2854 105.011L80.4256 106.48L77.9065 114.733L71.5433 113.23Z" fill="#407BFF"/>
<path d="M77.7622 110.146C77.4801 111.104 76.4699 111.688 75.5121 111.452C74.5478 111.215 74.0033 110.251 74.2854 109.293C74.5675 108.336 75.5777 107.752 76.5355 107.988C77.4933 108.224 78.0443 109.188 77.7622 110.146Z" stroke="white" stroke-width="0.159474" stroke-miterlimit="10"/>
<path d="M76.5355 107.988L75.5121 111.452" stroke="white" stroke-width="0.159474" stroke-miterlimit="10"/>
<path d="M77.0078 109.963C76.7257 110.92 76.0566 111.59 75.5121 111.458C74.9677 111.327 74.7577 110.442 75.0398 109.484C75.3219 108.526 75.991 107.857 76.5355 107.988C77.08 108.119 77.2899 109.005 77.0078 109.963Z" stroke="white" stroke-width="0.169379" stroke-miterlimit="10"/>
<path d="M74.2854 109.295L77.7622 110.148" stroke="white" stroke-width="0.169379" stroke-miterlimit="10"/>
<path d="M79.7499 113.296L78.8118 112.043C78.4576 111.571 77.9 111.302 77.3161 111.315L74.5675 111.374C73.472 111.4 72.4486 111.951 71.832 112.863L71.4515 113.427C72.8619 115.612 75.9976 116.93 75.9976 116.93L76.8504 117.403C77.6113 117.822 78.5166 117.593 78.9365 116.865L79.9008 115.192C80.2354 114.621 80.1763 113.867 79.7499 113.296Z" fill="#CE7A63"/>
<path opacity="0.2" d="M65.436 105.608C64.9374 103.397 64.2945 100.917 63.468 98.1098C64.1502 97.5916 64.9637 97.5653 65.8689 98.3328C65.8624 98.3394 66.4265 102.289 65.436 105.608Z" fill="black"/>
<path d="M63.6976 88.1186C61.6377 86.951 52.7489 104.322 53.8838 110.239C55.0187 116.156 73.2949 115.29 73.2949 115.29C73.2949 115.29 74.4232 112.804 74.1214 111.262C74.1214 111.262 65.6197 107.845 61.7099 107.011L66.3019 98.3588C66.3019 98.3654 67.2072 90.1063 63.6976 88.1186Z" fill="#407BFF"/>
<path opacity="0.4" d="M63.6976 88.1186C61.6377 86.951 52.7489 104.322 53.8838 110.239C55.0187 116.156 73.2949 115.29 73.2949 115.29C73.2949 115.29 74.4232 112.804 74.1214 111.262C74.1214 111.262 65.6197 107.845 61.7099 107.011L66.3019 98.3588C66.3019 98.3654 67.2072 90.1063 63.6976 88.1186Z" fill="white"/>
</svg>
