<svg width="40" height="41" viewBox="0 0 40 41" fill="none" xmlns="http://www.w3.org/2000/svg">
<path d="M18.1573 16.6388L1.91657 9.74593C1.22677 9.47711 0.822702 8.98681 0.704354 8.27504C0.586007 7.56326 0.78128 6.95377 1.29018 6.44657L1.91404 5.77198C2.1558 5.53191 2.43054 5.36791 2.73824 5.28C3.04595 5.19208 3.3714 5.17433 3.71461 5.22674L25.8084 9.04092L33.7665 1.06513C34.4782 0.355043 35.3388 0 36.3481 0C37.3575 0 38.2189 0.355043 38.9323 1.06513C39.6441 1.77691 40 2.63831 40 3.64933C40 4.66036 39.6441 5.52092 38.9323 6.231L30.9718 14.2043L34.7733 36.2829C34.824 36.6278 34.8079 36.9566 34.7251 37.2694C34.6422 37.5805 34.4808 37.8569 34.2407 38.0986L33.5686 38.7073C33.0581 39.2179 32.4452 39.4165 31.73 39.3033C31.0132 39.1883 30.5204 38.7868 30.2515 38.0986L23.3688 21.8072L15.5857 29.5776L16.9298 37.4875C16.9839 37.7478 16.9797 37.9972 16.9171 38.2356C16.8563 38.4757 16.7261 38.6946 16.5266 38.8924L15.8393 39.5315C15.442 39.9288 14.9889 40.0801 14.48 39.9854C13.9728 39.8908 13.5882 39.6093 13.3261 39.141L8.99207 31.0181L0.871732 26.6815C0.403413 26.4228 0.121914 26.039 0.0272362 25.5301C-0.0674419 25.0212 0.0847189 24.5681 0.48372 24.1708L1.12026 23.4836C1.31807 23.2841 1.53701 23.1454 1.77709 23.0676C2.01548 22.9899 2.26485 22.9772 2.52522 23.0296L10.4198 24.4092L18.1573 16.6388Z" fill="url(#paint0_linear_541_17282)"/>
<defs>
<linearGradient id="paint0_linear_541_17282" x1="22.2217" y1="33.3504" x2="-5.44445" y2="12.3047" gradientUnits="userSpaceOnUse">
<stop stop-color="#008CFF"/>
<stop offset="1" stop-color="#59D7FF"/>
</linearGradient>
</defs>
</svg>
