<svg width="58" height="56" viewBox="0 0 58 56" fill="none" xmlns="http://www.w3.org/2000/svg">
<path d="M56.0129 21.4335C56.5608 21.3725 56.9555 20.879 56.8945 20.3312L55.9014 11.4035C55.8405 10.8557 55.347 10.4609 54.7991 10.5218C54.2512 10.5828 53.8565 11.0763 53.9175 11.6242L54.8002 19.5599L46.8645 20.4427C46.3166 20.5037 45.9219 20.9972 45.9829 21.545C46.0438 22.0928 46.5373 22.4875 47.0852 22.4267L56.0129 21.4335ZM2.81273 35.3976C9.11882 24.475 16.3729 19.584 22.6221 18.627C28.8438 17.6743 34.2723 20.5799 37.1755 25.7176L38.9135 24.7355C35.621 18.909 29.3988 15.5699 22.32 16.6539C15.2688 17.7336 7.57276 23.1606 1.08398 34.3995L2.81273 35.3976ZM37.1755 25.7176C38.6306 28.2924 38.8312 30.4088 38.3751 31.9685C37.9212 33.5204 36.7749 34.6733 35.2128 35.2711C32.0822 36.4692 27.1989 35.4053 23.6935 30.3517L22.0533 31.4896C25.9804 37.1508 31.7806 38.722 35.9263 37.1354C38.0023 36.3409 39.6425 34.7465 40.291 32.5288C40.9374 30.3187 40.5563 27.6428 38.9135 24.7355L37.1755 25.7176ZM23.6935 30.3517C22.0475 27.9789 21.9279 25.3403 22.9744 22.8802C24.0332 20.3912 26.3053 18.0603 29.4637 16.4946C35.7416 13.3824 45.4443 13.3551 55.2791 21.221L56.526 19.6621C46.1465 11.3607 35.6183 11.2156 28.5771 14.7061C25.076 16.4417 22.4164 19.0922 21.1375 22.0988C19.8463 25.1341 19.983 28.505 22.0533 31.4896L23.6935 30.3517Z" fill="#989898"/>
</svg>
